<svg width="101" height="110" viewBox="0 0 101 110" fill="none" xmlns="http://www.w3.org/2000/svg">
<g filter="url(#filter0_d)">
<path d="M95.8187 49.5C95.8187 76.0097 60.6375 100.5 50.8187 100.5C41 100.5 5.81873 76.0097 5.81873 49.5C5.81873 22.9903 25.9659 1.5 50.8187 1.5C75.6715 1.5 95.8187 22.9903 95.8187 49.5Z" fill="#428DA4"/>
</g>
<path d="M50.4991 85C48.0166 85 45.8244 84.2938 43.9371 82.8814C43.0951 82.2635 42.3837 81.469 41.7739 80.498C41.1642 79.527 40.8593 78.5854 40.8593 77.688C40.8593 76.6581 41.3239 76.1432 42.2675 76.1432C42.9063 76.1432 43.7193 76.3492 44.7356 76.7611C46.2599 77.3496 47.6972 77.6439 49.0619 77.6439C50.4991 77.6439 52.1977 77.173 54.1286 76.2167C56.0595 75.2752 57.8161 73.495 59.384 70.9057C60.6035 68.9048 61.2133 67.4777 61.2133 66.6391C61.2133 65.7858 60.6035 65.3738 59.384 65.3738C58.4404 65.3738 56.5531 65.7563 53.6931 66.5213C48.5102 67.9043 44.2855 68.5958 41.048 68.5958C33.6875 68.5958 30 64.4617 30 56.2081C30 53.5599 30.4645 50.5292 31.3792 47.116C32.3083 43.688 33.6004 40.2306 35.2845 36.7438C36.9685 33.257 38.9575 30.0204 41.2658 27.0485C43.5742 24.0766 46.1148 21.6491 48.9167 19.7954C51.7186 17.9416 54.6657 17 57.7871 17C60.6035 17 62.7957 17.9563 64.3782 19.8542C65.9606 21.7521 66.7446 24.1943 66.7446 27.1956C66.7446 32.8156 65.8444 36.7439 64.0442 39.0095C63.2312 40.01 62.3892 40.5101 61.5036 40.5101C60.3712 40.5101 59.7905 39.4067 59.7905 37.1999C59.7905 36.4348 59.8341 35.4639 59.9212 34.3163C60.0083 33.1688 60.0518 32.1977 60.0518 31.4327C60.0518 30.4911 59.9793 29.4907 59.8196 28.4755C59.6744 27.4457 59.3695 26.5629 58.9485 25.7979C58.513 25.0476 57.9613 24.6651 57.279 24.6651C56.3208 24.6651 54.9561 25.5184 53.214 27.2103C50.9347 29.4171 48.8296 32.2566 46.9132 35.714C44.9824 39.1714 43.4289 42.6582 42.224 46.1597C41.019 49.6612 40.4238 52.4417 40.4238 54.4867C40.4238 56.929 41.5707 58.1354 43.879 58.1354C45.6502 58.1354 48.5392 57.7529 52.5316 56.9878C55.9433 56.3258 59.1953 55.9874 62.2876 55.9874C65.496 55.9874 67.8915 56.7525 69.4594 58.2973C71.158 59.9892 72 62.1812 72 64.8736C72 66.9333 71.4919 69.0225 70.4756 71.1852C69.2126 73.907 67.3688 76.3638 64.9298 78.5707C62.5054 80.7775 59.8341 82.4694 56.916 83.6464C54.7529 84.5586 52.6042 85 50.4991 85Z" fill="white"/>
<defs>
<filter id="filter0_d" x="0.818726" y="0.5" width="100" height="109" filterUnits="userSpaceOnUse" color-interpolation-filters="sRGB">
<feFlood flood-opacity="0" result="BackgroundImageFix"/>
<feColorMatrix in="SourceAlpha" type="matrix" values="0 0 0 0 0 0 0 0 0 0 0 0 0 0 0 0 0 0 127 0"/>
<feOffset dy="4"/>
<feGaussianBlur stdDeviation="2.5"/>
<feColorMatrix type="matrix" values="0 0 0 0 0.2375 0 0 0 0 0.217708 0 0 0 0 0.217708 0 0 0 0.25 0"/>
<feBlend mode="normal" in2="BackgroundImageFix" result="effect1_dropShadow"/>
<feBlend mode="normal" in="SourceGraphic" in2="effect1_dropShadow" result="shape"/>
</filter>
</defs>
</svg>
