<svg width="1483" height="687" viewBox="0 0 1483 687" fill="none" xmlns="http://www.w3.org/2000/svg">
<path d="M567.443 266.732C561.133 267.418 554.094 263.666 546.326 255.474C529.112 237.209 518.149 206.427 513.437 163.128C508.936 121.771 507.049 85.925 507.775 55.5902C505.38 56.1456 500.665 57.0516 493.631 58.3083C486.694 59.5544 481.575 60.3571 478.274 60.7163C472.934 61.2974 467.933 60.0244 463.271 56.8972C458.695 53.6623 456.132 49.5208 455.583 44.4724C454.98 38.9387 462.785 33.0303 478.998 26.7472C488.701 22.9407 499.331 19.9666 510.886 17.825C514.867 7.47023 520.886 1.85437 528.944 0.977449C532.633 0.575965 535.969 1.44085 538.952 3.57209C542.021 5.59569 544.268 8.64195 545.693 12.7109C575.497 9.4673 594.134 11.4667 601.602 18.7091C603.022 20.028 603.838 21.6582 604.049 23.5999C604.314 26.027 603.552 28.9586 601.765 32.3948C601.039 33.849 600.368 34.9044 599.752 35.5608C597.201 38.2943 591.177 40.718 581.682 42.8319C567.785 46.0143 556.904 48.0334 549.041 48.8891C549.073 68.1393 550.145 87.4727 552.258 106.889C555.428 136.014 561.089 169.976 569.24 208.775C573.242 227.495 575.756 241.563 576.781 250.98C577.309 255.835 576.637 259.591 574.765 262.251C572.991 264.9 570.55 266.393 567.443 266.732ZM665.487 248.399C660.147 248.981 654.096 242.566 647.332 229.157C637.089 209.053 629.759 178.711 625.343 138.131C623.43 120.559 622.272 100.891 621.868 79.1269C621.454 57.2661 623.134 39.3031 626.908 25.238C630.051 13.501 634.923 7.27321 641.525 6.55477C645.02 6.17442 648.016 7.07628 650.513 9.26035C652.999 11.3473 654.902 13.9399 656.222 17.038C657.628 20.0284 658.484 22.9313 658.79 25.7467C660.28 39.4354 661.315 56.6119 661.893 77.276C662.286 94.424 663.197 111.368 664.626 128.109C670.801 96.3952 683.16 79.5294 701.703 77.5114C714.81 76.0851 725.205 81.3389 732.888 93.273C741.163 106.125 746.431 122.939 748.692 143.715C750.658 161.772 750.287 180.035 747.582 198.502C744.866 216.873 740.935 226.338 735.79 226.898C732.004 227.31 729.079 225.712 727.017 222.106C724.965 218.596 723.249 211.858 721.87 201.89C717.224 167.326 713.926 145.141 711.974 135.333C708.103 116.01 703.401 106.649 697.867 107.251C694.372 107.632 690.187 115.209 685.311 129.983C680.522 144.65 677.769 165.382 677.05 192.18L676.174 222.04C675.845 238.873 672.283 247.66 665.487 248.399ZM824.596 208.982C814.499 210.08 806.343 209.151 800.127 206.193C793.911 203.234 789.208 198.835 786.018 192.993C782.926 187.141 780.972 180.477 780.159 173.002C779.345 165.526 780.041 158.378 782.246 151.556C784.45 144.735 787.322 138.627 790.86 133.232C794.496 127.826 798.097 123.456 801.664 120.121C797.683 120.554 793.559 120.119 789.291 118.815C785.013 117.414 781.26 114.974 778.033 111.494C774.795 107.917 772.833 102.973 772.146 96.6628C771.533 91.032 772.495 85.4263 775.031 79.8457C780.092 68.5875 788.11 59.2178 799.084 51.7366C806.299 46.7274 812.674 43.9217 818.207 43.3195C821.702 42.9391 824.559 43.4632 826.777 44.8917C829.621 46.6452 831.201 48.9782 831.518 51.8907C831.57 52.3761 831.514 53.6593 831.347 55.7403C831.278 57.8108 829.153 60.3996 824.972 63.5069C820.792 66.6141 816.614 70.6542 812.44 75.6272C808.266 80.6001 805.28 85.1983 803.48 89.4217C802.71 91.3719 802.388 92.9296 802.515 94.0946C802.79 96.6187 804.529 97.7065 807.733 97.3578C811.131 96.988 816.684 94.7628 824.393 90.6821C826.358 89.7807 828.214 89.2349 829.962 89.0447C835.981 88.3896 839.916 91.1539 841.768 97.3375C842.068 98.2872 842.281 99.3446 842.408 100.51C843.105 106.917 841.06 112.493 836.272 117.238C834.132 119.239 830.902 123.864 826.583 131.112C822.264 138.36 818.957 145.891 816.664 153.705C815.38 159.051 814.896 163.18 815.213 166.093C815.678 170.364 818.192 172.252 822.755 171.755C826.055 171.396 830.944 169.833 837.421 167.065C843.887 164.2 848.674 162.598 851.78 162.26C857.703 161.616 860.965 164.06 861.567 169.594C862.074 174.254 860.677 179.465 857.374 185.227C853.585 191.927 848.827 197.405 843.102 201.663C837.463 205.813 831.294 208.253 824.596 208.982ZM69.9292 648.943C87.8144 637.272 96.197 626.291 95.0771 616C94.3058 608.913 89.9398 605.803 81.979 606.669C74.5036 607.482 67.647 611.274 61.4091 618.043C62.9445 625.833 64.5684 632.631 66.2808 638.437C67.9826 644.145 69.1988 647.648 69.9292 648.943ZM53.3409 580.463C90.1889 533.623 106.774 493.311 103.098 459.526C102.073 450.109 97.5315 445.839 89.4736 446.716C77.6295 448.005 68.2051 457.086 61.2003 473.958C55.5396 487.836 52.3508 505.472 51.6339 526.866C51.1442 543.128 51.7133 560.994 53.3409 580.463ZM58.1984 686.026C44.898 687.473 37.8569 684.605 37.0751 677.421C36.7476 674.411 37.833 671.297 40.3315 668.078C31.0414 655.828 24.6186 644.198 21.063 633.19C12.6767 607.58 7.07298 581.815 4.25203 555.893C0.047015 517.254 -0.715948 484.97 1.96314 459.039C4.72875 433.001 11.2084 419.428 21.4021 418.318C33.7317 416.976 40.6307 423.053 42.0993 436.547C42.4902 440.139 42.7355 443.747 42.8352 447.371C56.8016 423.159 74.8523 409.849 96.9873 407.44C110.385 405.982 121.841 409.254 131.356 417.256C140.344 424.922 145.609 435.843 147.152 450.017C149.952 475.744 141.431 504.864 121.59 537.377C113.428 550.839 105.081 562.602 96.5499 572.666C107.035 571.525 115.934 572.963 123.248 576.981C134.32 583.045 140.549 592.436 141.933 605.154C142.408 609.523 142.001 615.265 140.713 622.379C139.414 629.397 135.06 637.68 127.651 647.229C120.253 656.875 109.588 665.846 95.6577 674.14C91.5109 676.654 86.3182 679.036 80.0798 681.287C73.8413 683.538 66.5476 685.117 58.1984 686.026ZM217.21 632.178C207.114 633.277 198.957 632.347 192.742 629.389C186.526 626.431 181.823 622.031 178.633 616.19C175.54 610.338 173.587 603.674 172.774 596.198C171.96 588.723 172.656 581.575 174.86 574.753C177.065 567.932 179.937 561.823 183.475 556.428C187.111 551.023 190.712 546.652 194.278 543.317C190.298 543.751 186.174 543.315 181.906 542.011C177.628 540.611 173.875 538.17 170.648 534.69C167.41 531.114 165.447 526.17 164.761 519.859C164.148 514.229 165.109 508.623 167.646 503.042C172.707 491.784 180.725 482.414 191.699 474.933C198.914 469.924 205.288 467.118 210.822 466.516C214.317 466.136 217.174 466.66 219.392 468.088C222.235 469.842 223.815 472.175 224.132 475.087C224.185 475.573 224.128 476.856 223.962 478.937C223.893 481.007 221.768 483.596 217.587 486.704C213.406 489.811 209.229 493.851 205.055 498.824C200.881 503.797 197.894 508.395 196.095 512.618C195.325 514.569 195.003 516.126 195.13 517.291C195.404 519.815 197.144 520.903 200.347 520.554C203.745 520.185 209.299 517.959 217.008 513.879C218.973 512.977 220.829 512.432 222.576 512.241C228.596 511.586 232.531 514.351 234.383 520.534C234.683 521.484 234.896 522.541 235.023 523.706C235.72 530.114 233.675 535.69 228.886 540.435C226.747 542.436 223.517 547.061 219.198 554.309C214.878 561.557 211.572 569.088 209.279 576.901C207.994 582.247 207.511 586.377 207.828 589.289C208.292 593.561 210.806 595.448 215.369 594.952C218.67 594.593 223.559 593.029 230.036 590.261C236.502 587.397 241.289 585.795 244.395 585.457C250.317 584.813 253.579 587.257 254.182 592.791C254.689 597.451 253.291 602.662 249.989 608.424C246.199 615.123 241.442 620.602 235.717 624.86C230.078 629.01 223.909 631.449 217.21 632.178ZM307.038 562.726C309.077 562.504 311.716 559.221 314.954 552.876C325.213 532.506 331.424 511.496 333.586 489.846C324.573 493.676 317.749 499.575 313.115 507.545C308.568 515.408 305.573 523.543 304.131 531.952C302.83 539.854 302.491 546.669 303.114 552.397C303.886 559.484 305.193 562.927 307.038 562.726ZM370.588 630.811C366.316 631.276 362.428 628.948 358.924 623.829C351.776 613.211 345.538 589.283 340.208 552.043C337.637 563.62 334.2 574.014 329.898 583.225C322.627 598.554 314.623 606.695 305.885 607.646C297.342 608.575 290.331 606.883 284.851 602.567C275.507 595.234 269.915 583.122 268.077 566.229C265.584 543.318 269.364 521.639 279.418 501.193C288.833 482.093 301.161 471.714 316.403 470.056C323.393 469.295 329.296 469.831 334.113 471.665C335.171 461.53 337.874 453.426 342.223 447.353C346.67 441.27 351.271 437.97 356.028 437.452C360.591 436.956 364.924 437.958 369.027 440.458C373.981 443.553 376.881 448.985 377.726 456.751C378.518 464.032 378.164 475.22 376.663 490.315C374.766 508.989 374.579 525.316 376.1 539.296L380.525 578.599C381.877 591.026 382.317 601.391 381.846 609.693C381.039 623.043 377.286 630.082 370.588 630.811ZM472.361 615.609C450.42 617.997 433.851 610.173 422.655 592.138C415.864 581.188 411.596 567.703 409.853 551.684C406.979 525.278 411.032 500.229 422.009 476.539C432.977 452.752 447.635 439.86 465.984 437.863C474.139 436.976 481.207 439.645 487.189 445.87C493.171 452.095 496.828 461.324 498.159 473.557C498.814 479.576 498.731 485.577 497.908 491.56C497.183 497.533 495.484 502.679 492.81 506.998C490.137 511.316 486.81 513.692 482.829 514.125C478.072 514.643 475.229 510.63 474.299 502.087C474.024 499.563 473.738 495.124 473.439 488.771C473.228 482.311 472.963 477.625 472.646 474.712C471.78 466.751 470.23 462.893 467.997 463.136C464.211 463.548 460.606 469.687 457.182 481.552C453.748 493.321 451.398 506.937 450.134 522.398C449.268 533.397 449.358 543.701 450.404 553.312C453.035 577.486 461.195 588.828 474.883 587.338C480.805 586.694 487.894 580.52 496.149 568.816C499.979 563.389 503.593 560.491 506.99 560.121C509.029 559.899 511.083 560.265 513.151 561.219C516.566 562.812 518.464 565.356 518.844 568.851C519.151 571.666 518.799 574.75 517.788 578.101C514.495 589.363 508.673 598.15 500.323 604.462C491.972 610.774 482.652 614.489 472.361 615.609ZM577.061 615.119C571.721 615.7 565.67 609.286 558.906 595.876C548.663 575.773 541.333 545.431 536.917 504.85C535.004 487.278 533.846 467.61 533.443 445.846C533.028 423.985 534.708 406.022 538.482 391.957C541.625 380.22 546.497 373.992 553.099 373.274C556.594 372.894 559.59 373.796 562.087 375.98C564.573 378.067 566.476 380.659 567.796 383.757C569.202 386.748 570.058 389.651 570.365 392.466C571.854 406.155 572.889 423.331 573.467 443.995C573.86 461.143 574.771 478.088 576.2 494.828C582.375 463.114 594.735 446.249 613.277 444.231C626.384 442.804 636.779 448.058 644.463 459.992C652.737 472.844 658.005 489.658 660.266 510.434C662.232 528.491 661.861 546.754 659.156 565.221C656.44 583.592 652.509 593.057 647.364 593.617C643.578 594.029 640.653 592.432 638.591 588.825C636.539 585.316 634.823 578.577 633.444 568.609C628.798 534.045 625.5 511.86 623.548 502.053C619.677 482.729 614.975 473.368 609.441 473.971C605.946 474.351 601.761 481.928 596.885 496.703C592.096 511.369 589.343 532.102 588.624 558.899L587.748 588.759C587.419 605.593 583.857 614.379 577.061 615.119ZM831.64 614.968C825.621 615.623 820.393 614.522 815.957 611.665C802.421 602.823 792.015 585.734 784.738 560.395C780.65 546.302 777.123 532.393 774.156 518.668C772.118 508.969 770.079 494.75 768.04 476.013C767.142 467.761 766.4 459.59 765.815 451.501C762.457 453.143 759.662 454.086 757.429 454.329C755.584 454.53 753.805 454.429 752.091 454.026C745.247 452.511 741.46 448.405 740.731 441.706C740.382 438.502 741.285 435.064 743.439 431.392C747.748 424.046 754.762 417.635 764.48 412.157C764.481 406.754 764.542 401.442 764.661 396.223C765.517 366.169 770.051 347.355 778.264 339.781C781.571 336.769 784.972 335.073 788.467 334.693C792.835 334.217 796.725 335.66 800.136 339.022C803.634 342.276 805.689 346.718 806.302 352.349C807.348 361.96 808.409 376.678 809.486 396.502C814.773 395.436 819.892 394.633 824.843 394.094C837.464 392.721 849.191 393.065 860.025 395.128L860.549 385.051C861.601 363.129 866.463 347.325 875.134 337.638C878.107 334.269 881.487 332.379 885.273 331.967C890.224 331.428 893.175 335.527 894.126 344.265C895.447 356.4 895.99 371.322 895.756 389.029C895.532 402.315 896.221 417.22 897.823 433.746C899.414 450.174 900.564 461.64 901.272 468.145C903.121 485.134 905.072 499.902 907.125 512.449C909.837 529.247 911.684 542.16 912.667 551.188C913.185 555.945 912.394 559.961 910.294 563.235C908.292 566.498 905.64 568.309 902.339 568.668C899.621 568.964 896.733 568.149 893.674 566.222C886.19 561.536 879.547 546.983 873.746 522.565C868.735 501.794 864.993 480.05 862.521 457.332C861.053 443.838 860.16 432.933 859.845 424.617C840.07 427.948 824.269 431.24 812.442 434.491C812.968 440.23 813.569 446.206 814.245 452.419C815.09 460.186 816.683 473.912 819.021 493.599C821.457 513.275 824.551 530.866 828.301 546.372C833.42 567.229 836.74 584.648 838.261 598.628C839.381 608.919 837.174 614.365 831.64 614.968ZM1001.29 549.206C982.263 551.277 966.971 546.163 955.417 533.864C943.948 521.458 936.836 502.585 934.078 477.247C932.039 458.51 933.747 442.164 939.203 428.211C945.223 413.116 954.494 404.886 967.018 403.523C968.668 403.344 970.34 403.358 972.033 403.567C976.594 403.955 979.022 405.508 979.318 408.226C979.592 410.75 978.698 412.911 976.634 414.707C970.81 419.86 966.801 428.154 964.607 439.592C962.403 450.932 961.866 461.796 962.997 472.184C964.423 485.29 967.791 495.926 973.1 504.091C978.398 512.158 985.028 515.759 992.989 514.893C1002.7 513.836 1009.22 502.959 1012.57 482.26C1014.5 470.165 1014.75 457.564 1013.32 444.458C1012.61 437.953 1011.23 431.08 1009.16 423.839C1007.19 416.588 1004.06 410.347 999.756 405.118C995.551 399.878 990.342 397.596 984.128 398.272C982.866 398.41 981.334 398.773 979.532 399.362C976.963 400.133 974.466 400.65 972.039 400.914C969.514 401.189 967.521 400.473 966.058 398.765C965.068 397.793 964.473 396.384 964.272 394.539C963.923 391.336 965.763 388.385 969.792 385.687C973.821 382.989 978.748 381.323 984.573 380.689C1009.33 377.995 1028.26 387.183 1041.35 408.253C1049.09 420.672 1053.85 435.037 1055.62 451.347C1056.51 459.502 1056.48 468.739 1055.54 479.057C1054.69 489.268 1052.04 499.674 1047.6 510.276C1043.15 520.878 1037.04 529.745 1029.27 536.878C1021.59 543.903 1012.26 548.012 1001.29 549.206ZM1201.53 549.222C1195.12 549.919 1190.47 547.331 1187.57 541.458C1182.64 531.385 1178.12 507.418 1174 469.555L1172.86 459.07C1166.09 498.903 1151.4 520.05 1128.78 522.512C1119.26 523.548 1110.83 519.603 1103.47 510.679C1096.12 501.754 1090.52 489.593 1086.68 474.195C1085.25 468.26 1084.18 462.041 1083.47 455.536C1082.34 445.148 1082.21 434.013 1083.08 422.131C1083.58 415.888 1085.03 411.211 1087.45 408.099C1089.86 404.988 1092.47 403.279 1095.29 402.973C1102.86 402.149 1108.18 411.344 1111.26 430.558C1113.49 444.755 1115.86 455.696 1118.36 463.38C1122.44 475.51 1127.82 481.211 1134.52 480.482C1141.31 479.743 1147.64 471.097 1153.5 454.546C1158.7 440.031 1161.86 425.296 1162.99 410.34C1164.28 394.285 1166.64 383.469 1170.06 377.89C1172.74 373.572 1176.65 371.132 1181.79 370.572C1188.3 369.864 1194.08 371.986 1199.13 376.936C1204.29 381.877 1207.52 390.317 1208.82 402.258C1211.06 423.821 1213.23 457.279 1215.32 502.632C1216.09 519.641 1215.13 532.025 1212.44 539.783C1210.5 545.495 1206.87 548.641 1201.53 549.222ZM1317.09 538.856C1308.64 539.775 1301.02 538.345 1294.23 534.566C1290.97 532.661 1288.1 530.222 1285.62 527.251C1283.23 524.269 1281.87 521.274 1281.55 518.264C1281.02 513.41 1283.42 510.692 1288.76 510.111C1291.19 509.847 1294.27 510.199 1298.01 511.167C1302.26 512.277 1306.18 512.636 1309.77 512.245C1313.56 511.833 1317.94 510.128 1322.92 507.131C1327.89 504.036 1332.22 498.702 1335.91 491.129C1338.72 485.323 1340.03 481.594 1339.85 479.944C1339.75 478.973 1339.06 478.556 1337.8 478.694C1335.37 478.958 1330.1 480.612 1321.99 483.656C1306.32 489.585 1293.4 493.104 1283.2 494.213C1258.45 496.907 1244.65 485.245 1241.82 459.227C1240.97 451.363 1241.39 442.181 1243.1 431.681C1244.9 421.171 1247.81 410.49 1251.84 399.639C1255.96 388.778 1261.08 378.496 1267.2 368.793C1273.41 359.079 1280.67 350.873 1288.98 344.173C1297.38 337.462 1306.73 333.547 1317.02 332.427C1326.83 331.36 1334.74 333.643 1340.75 339.275C1346.87 344.896 1350.43 352.367 1351.44 361.687C1353.28 378.58 1351.67 390.886 1346.62 398.607C1343.83 402.742 1340.44 405.026 1336.46 405.459C1330.54 406.104 1327.12 402.252 1326.22 393.902C1325.96 391.572 1325.8 388.741 1325.73 385.409C1325.66 381.979 1325.49 379.148 1325.25 376.915C1324.97 374.294 1324.43 371.602 1323.64 368.839C1322.14 363.206 1320.46 360.442 1318.61 360.545C1316.76 360.746 1313.79 363.231 1309.69 367.999C1303.67 374.941 1298.34 383.724 1293.7 394.347C1289.05 404.873 1285.47 415.331 1282.97 425.721C1280.56 436.101 1279.67 444.155 1280.29 449.883C1280.86 455.125 1283.43 457.498 1287.99 457.002C1293.04 456.452 1301.37 454.417 1312.97 450.895C1323.44 447.791 1333.48 445.716 1343.09 444.67C1353.96 443.487 1362.5 445.259 1368.72 449.985C1374.93 454.712 1378.49 461.299 1379.41 469.745C1380.1 476.055 1379.2 482.686 1376.71 489.636C1373.54 498.429 1368.49 506.592 1361.55 514.125C1354.61 521.659 1346.72 527.723 1337.89 532.319C1331.01 535.916 1324.08 538.095 1317.09 538.856ZM1445.59 498.495C1435.5 499.594 1427.34 498.665 1421.13 495.706C1414.91 492.748 1410.21 488.348 1407.02 482.507C1403.92 476.655 1401.97 469.991 1401.16 462.516C1400.34 455.04 1401.04 447.892 1403.24 441.07C1405.45 434.249 1408.32 428.141 1411.86 422.746C1415.49 417.34 1419.1 412.97 1422.66 409.635C1418.68 410.068 1414.56 409.632 1410.29 408.329C1406.01 406.928 1402.26 404.488 1399.03 401.008C1395.79 397.431 1393.83 392.487 1393.14 386.177C1392.53 380.546 1393.49 374.94 1396.03 369.36C1401.09 358.101 1409.11 348.732 1420.08 341.251C1427.3 336.241 1433.67 333.436 1439.21 332.833C1442.7 332.453 1445.56 332.977 1447.78 334.406C1450.62 336.159 1452.2 338.492 1452.52 341.405C1452.57 341.89 1452.51 343.173 1452.35 345.254C1452.28 347.325 1450.15 349.914 1445.97 353.021C1441.79 356.128 1437.61 360.168 1433.44 365.141C1429.27 370.114 1426.28 374.712 1424.48 378.936C1423.71 380.886 1423.39 382.443 1423.51 383.608C1423.79 386.133 1425.53 387.22 1428.73 386.872C1432.13 386.502 1437.68 384.277 1445.39 380.196C1447.36 379.295 1449.21 378.749 1450.96 378.559C1456.98 377.904 1460.91 380.668 1462.77 386.851C1463.07 387.801 1463.28 388.858 1463.41 390.023C1464.1 396.431 1462.06 402.007 1457.27 406.752C1455.13 408.753 1451.9 413.378 1447.58 420.626C1443.26 427.874 1439.96 435.405 1437.66 443.219C1436.38 448.565 1435.89 452.694 1436.21 455.607C1436.68 459.878 1439.19 461.766 1443.75 461.269C1447.05 460.91 1451.94 459.346 1458.42 456.579C1464.89 453.714 1469.67 452.112 1472.78 451.774C1478.7 451.13 1481.96 453.574 1482.57 459.108C1483.07 463.768 1481.68 468.979 1478.37 474.741C1474.58 481.441 1469.83 486.919 1464.1 491.177C1458.46 495.327 1452.29 497.766 1445.59 498.495Z" fill="white"/>
</svg>
