<svg xmlns="http://www.w3.org/2000/svg" width="346" height="483.129" viewBox="0 0 346 483.129"><g transform="translate(-77 -8.436)"><path d="M840,1884l-58,73.564H997.974L940,1884" transform="translate(-640 -1474)" fill="none" stroke="#cea66c" stroke-linejoin="round" stroke-width="16"/><path d="M840,1957.564,782,1884H997.974L940,1957.564" transform="translate(-640 -1867.564)" fill="none" stroke="#cea66c" stroke-linejoin="round" stroke-width="16"/><path d="M725,1564h330l-98.663,160L1055,1884H725l99-160Z" transform="translate(-640 -1474)" fill="none" stroke="#cea66c" stroke-linejoin="round" stroke-width="16"/><g transform="translate(203 132)"><circle cx="15" cy="15" r="15" transform="translate(32)" fill="#428da4"/><circle cx="15" cy="15" r="15" transform="translate(64 36)" fill="#428da4"/><circle cx="15" cy="15" r="15" transform="translate(0 36)" fill="#428da4"/></g><g transform="translate(203 302)"><circle cx="15" cy="15" r="15" transform="translate(32 36)" fill="#428da4"/><circle cx="15" cy="15" r="15" transform="translate(64)" fill="#428da4"/><circle cx="15" cy="15" r="15" fill="#428da4"/></g></g></svg>