<svg xmlns="http://www.w3.org/2000/svg" width="370.99" height="477.763" viewBox="0 0 370.99 477.763"><g transform="translate(-64.505 -11.118)"><path d="M242.86,1554,216,1584.441l26.86,30.441,26.86-30.441Z" transform="translate(7.281 -1534.882)" fill="none" stroke="rgba(206,165,106,0.98)" stroke-linejoin="round" stroke-width="16"/><path d="M242.86,1554,216,1584.441l26.86,30.441,26.86-30.441Z" transform="translate(7.281 -1134)" fill="none" stroke="rgba(206,165,106,0.98)" stroke-linejoin="round" stroke-width="16"/><path d="M185.5,1726.977l27.5-31.934-27.5-34.515h0" transform="translate(214.503 -1476.977)" fill="none" stroke="rgba(206,165,106,0.98)" stroke-linecap="round" stroke-linejoin="round" stroke-width="16"/><path d="M185.5,1660.529l27.5,31.934-27.5,34.515h0" transform="translate(214.503 -1410.977)" fill="none" stroke="rgba(206,165,106,0.98)" stroke-linecap="round" stroke-linejoin="round" stroke-width="16"/><path d="M212.992,1726.977l-27.5-31.934,27.5-34.515h0" transform="translate(-112.992 -1476.977)" fill="none" stroke="rgba(206,165,106,0.98)" stroke-linecap="round" stroke-linejoin="round" stroke-width="16"/><path d="M212.992,1660.529l-27.5,31.934,27.5,34.515h0" transform="translate(-112.992 -1410.977)" fill="none" stroke="rgba(206,165,106,0.98)" stroke-linecap="round" stroke-linejoin="round" stroke-width="16"/><path d="M366,1554,216,1724l150,170,150-170Z" transform="translate(-116 -1474)" fill="none" stroke="rgba(206,165,106,0.98)" stroke-linejoin="round" stroke-width="16"/><circle cx="34" cy="34" r="34" transform="translate(216 216)" fill="#428da4"/><circle cx="17" cy="17" r="17" transform="translate(233 170)" fill="#428da4"/><circle cx="17" cy="17" r="17" transform="translate(233 296)" fill="#428da4"/></g></svg>