<svg xmlns="http://www.w3.org/2000/svg" xmlns:xlink="http://www.w3.org/1999/xlink" ><defs><style>.a{clip-path:url(#j);}.b,.c,.d{fill:#fff;}.c{font-size:60px;font-family:Lato-Black, Lato;font-weight:800;letter-spacing:0.04em;}.d{font-size:30px;font-family:Lato-Bold, Lato;font-weight:700;letter-spacing:0.08em;}.e{fill:none;stroke:#fff;stroke-width:2px;}.f{filter:url(#g);}.g{filter:url(#e);}.h{filter:url(#c);}.i{filter:url(#a);}</style><filter id="a" x="6.978" y="51.263" width="376.022" height="276.475" filterUnits="userSpaceOnUse"><feOffset input="SourceAlpha"/><feGaussianBlur stdDeviation="3" result="b"/><feFlood flood-opacity="0.078"/><feComposite operator="in" in2="b"/><feComposite in="SourceGraphic"/></filter><filter id="c" x="73" y="312.737" width="355" height="90" filterUnits="userSpaceOnUse"><feOffset input="SourceAlpha"/><feGaussianBlur stdDeviation="3" result="d"/><feFlood flood-opacity="0.078"/><feComposite operator="in" in2="d"/><feComposite in="SourceGraphic"/></filter><filter id="e" x="109.5" y="387.737" width="284" height="54" filterUnits="userSpaceOnUse"><feOffset input="SourceAlpha"/><feGaussianBlur stdDeviation="3" result="f"/><feFlood flood-opacity="0.078"/><feComposite operator="in" in2="f"/><feComposite in="SourceGraphic"/></filter><filter id="g" x="161" y="435.5" width="178" height="20" filterUnits="userSpaceOnUse"><feOffset input="SourceAlpha"/><feGaussianBlur stdDeviation="3" result="h"/><feFlood flood-opacity="0.078"/><feComposite operator="in" in2="h"/><feComposite in="SourceGraphic"/></filter><clipPath id="j"><rect width="500" height="500"/></clipPath></defs><g id="i" class="a"><g class="i" transform="matrix(1, 0, 0, 1, 0, 0)"><path class="b" d="M358.167,258H317.489c-13.461-.809-26.243-2.036-37.993-3.647a297.3,297.3,0,0,1-38.428-7.611c-13-3.6-23.779-7.963-32.048-12.982a57.834,57.834,0,0,1-11.5-8.945A35.422,35.422,0,0,1,190.166,214c-2.693-6.371-4.069-12.119-4.089-17.083a20.916,20.916,0,0,1,3.238-11.752,23.385,23.385,0,0,1,9.015-7.78,47.081,47.081,0,0,1,12.142-4.087c8.544-1.762,17.235-1.868,22.986-1.938,3.155-.038,5.239-.064,5.708-.36a63.159,63.159,0,0,0-4.279-5.3,93.756,93.756,0,0,0-12.16-11.453c-9.751-7.644-25.655-16.757-46.05-16.757a71.741,71.741,0,0,0-8.51.513c-15.043,1.8-37.976,11.266-52.779,27.778A89.918,89.918,0,0,0,110.166,150c-10.52-26.454-29.538-49.277-55-66-14.993-9.684-27.7-17.471-41-24a25.467,25.467,0,0,1-9.728-8.644A27.069,27.069,0,0,1,.167,39a28.7,28.7,0,0,1,.8-7.68A34.669,34.669,0,0,1,9.41,15.414,44.249,44.249,0,0,1,26.766,4.308C35.34,1.135,45.879-.474,58.089-.474c3.835,0,7.9.16,12.077.474A205.04,205.04,0,0,1,97.359,3.919a222.033,222.033,0,0,1,26.55,7.439A248.4,248.4,0,0,1,149.753,22.05a283.774,283.774,0,0,1,25.075,13.679c31.454,19.233,62.185,45.9,91.339,79.271a532.538,532.538,0,0,1,37.811,49.166c9.935,14.5,19.7,30.033,29.021,46.176C348.8,237.711,358.074,257.8,358.166,258Z" transform="translate(15.83 60.74)"/></g><g class="h" transform="matrix(1, 0, 0, 1, 0, 0)"><text class="c" transform="translate(82 380.74)"><tspan x="0" y="0">SINGLE FIN</tspan></text></g><g class="g" transform="matrix(1, 0, 0, 1, 0, 0)"><text class="d" transform="translate(118.5 426.74)"><tspan x="0" y="0">SURF MOROCCO</tspan></text></g><g class="f" transform="matrix(1, 0, 0, 1, 0, 0)"><line class="e" x2="160" transform="translate(170 445.5)"/></g></g></svg>