<svg width="1440" height="224" viewBox="0 0 1440 224" fill="none" xmlns="http://www.w3.org/2000/svg">
<g clip-path="url(#clip0)">
<path fill-rule="evenodd" clip-rule="evenodd" d="M0 91.6966C89.2845 70.05 145.603 59.2267 168.955 59.2267C203.982 59.2267 405.144 79.234 449.435 79.234C480.797 79.234 550.356 74.9745 578.218 67.9924C607.759 60.5887 632.837 60.5887 660.148 67.9924C769.161 97.5508 815.789 36.5828 852.352 36.5828C888.291 36.5828 1150.35 91.7713 1179.26 84.7751C1179.77 84.6539 1202.26 83.1509 1243.53 67.9966C1269.28 58.5386 1348.3 93.3533 1401.98 93.3533C1422.06 93.3533 1436.07 99.0871 1444.01 110.555L1415.52 152.149H0V91.6966Z" fill="url(#paint0_linear)"/>
<path fill-rule="evenodd" clip-rule="evenodd" d="M266.075 41.0242C301.329 41.0242 610.533 126.387 699.484 84.6736C788.435 42.96 891.807 31.7368 959.6 37.3484C1027.39 42.96 1118.51 95.2977 1170.7 104.275C1260.37 119.712 1351.47 110.43 1444 76.4296V182.488H0C153.928 88.1788 242.62 41.0242 266.075 41.0242Z" fill="url(#paint1_linear)"/>
<path d="M0 91.3765C50.4065 73.9673 96.0993 67.553 137.078 72.1334C328.049 93.4548 355.871 36.2176 401.048 36.2176C445.824 36.2176 525.988 105.256 591.138 105.256C656.287 105.256 807.825 0 845.125 0C882.425 0 1085.5 90.3994 1137.68 99.3738C1272.18 122.507 1317.01 71.4031 1371.77 71.4031C1392.26 71.4031 1416.33 78.0614 1444 91.378V224H0V91.3765Z" fill="url(#paint2_radial)"/>
<path d="M0 91.3765C50.4065 73.9673 96.0993 67.553 137.078 72.1334C328.049 93.4548 355.871 36.2176 401.048 36.2176C445.824 36.2176 525.988 105.256 591.138 105.256C656.287 105.256 807.825 0 845.125 0C882.425 0 1085.5 90.3994 1137.68 99.3738C1272.18 122.507 1317.01 71.4031 1371.77 71.4031C1392.26 71.4031 1416.33 78.0614 1444 91.378V224H0V91.3765Z" fill="url(#paint3_radial)"/>
</g>
<defs>
<linearGradient id="paint0_linear" x1="722.003" y1="36.5828" x2="722.003" y2="152.149" gradientUnits="userSpaceOnUse">
<stop stop-color="#F9EACC"/>
<stop offset="1" stop-color="#FAC06D"/>
</linearGradient>
<linearGradient id="paint1_linear" x1="722" y1="216.473" x2="722" y2="82.5853" gradientUnits="userSpaceOnUse">
<stop stop-color="#FBE7C1"/>
<stop offset="1" stop-color="#EABD7C"/>
</linearGradient>
<radialGradient id="paint2_radial" cx="0" cy="0" r="1" gradientUnits="userSpaceOnUse" gradientTransform="translate(-11.6705 125.345) rotate(90) scale(1443.8 34.7249)">
<stop stop-color="#F6E1B8"/>
<stop offset="1" stop-color="#FFCF8A"/>
</radialGradient>
<radialGradient id="paint3_radial" cx="0" cy="0" r="1" gradientUnits="userSpaceOnUse" gradientTransform="translate(-0.67891 886.507) rotate(90) scale(1371.61 32.9886)">
<stop stop-color="#F6E1B8"/>
<stop offset="1" stop-color="#FFCF8A"/>
</radialGradient>
<clipPath id="clip0">
<rect width="1444" height="224" fill="white"/>
</clipPath>
</defs>
</svg>
