<svg xmlns="http://www.w3.org/2000/svg" xmlns:xlink="http://www.w3.org/1999/xlink" width="1025" height="160" viewBox="0 0 1025 160">
  <defs>
    <linearGradient id="dunes-a" x1="50%" x2="50%" y1="0%" y2="100%">
      <stop offset="0%" stop-color="#F9EACC"/>
      <stop offset="100%" stop-color="#FAC06D"/>
    </linearGradient>
    <linearGradient id="dunes-b" x1="50%" x2="50%" y1="123.206%" y2="31.842%">
      <stop offset="0%" stop-color="#FBE7C1"/>
      <stop offset="100%" stop-color="#EABD7C"/>
    </linearGradient>
    <radialGradient id="dunes-c" cx="8.731%" cy="33.887%" r="100%" fx="8.731%" fy="33.887%" gradientTransform="matrix(0 1 -.15515 0 .14 .252)">
      <stop offset="0%" stop-color="#F6E1B8"/>
      <stop offset="100%" stop-color="#FFCF8A"/>
    </radialGradient>
    <radialGradient id="dunes-e" cx="61.463%" cy="4.188%" r="94.953%" fx="61.463%" fy="4.188%" gradientTransform="matrix(0 1 -.15515 0 .621 -.573)">
      <stop offset="0%" stop-color="#F6E1B8"/>
      <stop offset="100%" stop-color="#FFCF8A"/>
    </radialGradient>
    <path id="dunes-d" d="M0.00409090143,65.2478794 C35.7467117,52.9005076 68.1480266,48.3497272 97.2080356,51.5955381 C232.633307,66.7216457 252.362546,26.1269551 284.402021,26.1269551 C316.153777,26.1269551 372.997326,75.0916097 419.198722,75.0916097 C465.400118,75.0916097 572.861681,0.439619866 599.313137,0.439619866 C625.764593,0.439619866 769.769585,64.5545684 806.772585,70.9195197 C902.154647,87.3263562 933.943374,51.0811727 972.781576,51.0811727 C987.308393,51.0811727 1004.38256,55.8034083 1024.00409,65.2478794 L1024.00409,159.309712 C769.780043,159.309712 581.112006,159.309712 457.999983,159.309712 C334.887959,159.309712 182.222661,159.309712 0.00409090143,159.309712 L0.00409090143,65.2478794 Z"/>
  </defs>
  <g fill="none" fill-rule="evenodd">
    <path fill="url(#dunes-a)" d="M0.00402587115,65.4750624 C63.3166251,50.1226353 103.252808,42.4464218 119.812574,42.4464218 C144.652223,42.4464218 287.303687,56.6364839 318.710897,56.6364839 C340.951062,56.6364839 390.277925,53.6160384 410.03619,48.6632446 C430.984791,43.4120703 448.768873,43.4120703 468.132823,48.6632446 C545.439472,69.627495 578.505073,26.3858087 604.43454,26.3858087 C629.920706,26.3858087 815.760057,65.5277382 836.262375,60.5656153 C836.618987,60.4793056 852.567846,59.4131669 881.832575,48.6632446 C900.09314,41.9555233 956.129027,66.646888 994.200803,66.646888 C1008.44094,66.646888 1018.37401,70.7123966 1024,78.8434138 L1003.7965,108.340641 L0,108.340641 L0.00402587115,65.4750624 Z"/>
    <path fill="url(#dunes-b)" d="M188.685282,29.5363086 C213.6842,29.5363086 432.954429,90.0794501 496.032574,60.4942129 C559.110717,30.9089758 632.417478,22.9486746 680.491541,26.9288252 C728.565604,30.9089758 793.185094,68.0246187 830.188094,74.3958039 C893.776135,85.3444078 958.380103,78.7616234 1024,54.6474506 L1024,129.867751 L0,129.867751 C109.157359,62.9801227 172.052453,29.5363086 188.685282,29.5363086 Z"/>
    <use fill="url(#dunes-c)" xlink:href="#dunes-d"/>
    <use fill="url(#dunes-e)" xlink:href="#dunes-d"/>
  </g>
</svg>
