<svg xmlns="http://www.w3.org/2000/svg" xmlns:xlink="http://www.w3.org/1999/xlink" viewBox="0 0 500 500"><defs><style>.a{clip-path:url(#b);}.b{fill:#fff;}</style><clipPath id="b"><rect width="500" height="500"/></clipPath></defs><g id="a" class="a"><path class="b" d="M500.145,360.5H443.336c-18.8-1.13-36.65-2.844-53.059-5.094a415.2,415.2,0,0,1-53.667-10.629c-18.15-5.021-33.208-11.12-44.758-18.13a80.77,80.77,0,0,1-16.064-12.492,49.469,49.469,0,0,1-10.267-15.1c-3.762-8.9-5.683-16.925-5.711-23.858a29.21,29.21,0,0,1,4.522-16.413,32.659,32.659,0,0,1,12.59-10.865,65.751,65.751,0,0,1,16.957-5.707c11.932-2.461,24.069-2.609,32.1-2.707,4.406-.054,7.317-.089,7.971-.5a88.2,88.2,0,0,0-5.976-7.407A130.935,130.935,0,0,0,310.994,215.6c-13.618-10.676-35.829-23.4-64.312-23.4a100.188,100.188,0,0,0-11.885.717c-21.009,2.52-53.036,15.734-73.709,38.794-3.46-14.008-7.255-21.956-7.292-22.034-14.692-36.945-41.252-68.818-76.811-92.174C56.048,103.975,38.3,93.1,19.726,83.982A35.566,35.566,0,0,1,6.141,71.91,37.8,37.8,0,0,1,.175,54.654,40.079,40.079,0,0,1,1.3,43.928,48.418,48.418,0,0,1,13.084,21.715C19.222,15.1,27.377,9.885,37.323,6.2,49.3,1.773,64.015-.474,81.068-.474c5.356,0,11.031.223,16.867.663A286.352,286.352,0,0,1,135.91,5.662a310.083,310.083,0,0,1,37.078,10.389,346.912,346.912,0,0,1,36.093,14.932,396.308,396.308,0,0,1,35.018,19.1c43.927,26.86,86.845,64.107,127.56,110.707a743.718,743.718,0,0,1,52.805,68.663C438.34,249.7,451.976,271.4,465,293.944c22.074,38.223,35.02,66.277,35.149,66.556Z" transform="translate(-0.145 69.986)"/></g></svg>