<svg width="418" height="129" viewBox="0 0 418 129" fill="none" xmlns="http://www.w3.org/2000/svg">
<path d="M70.5197 19.6201C70.3497 19.9301 70.2198 20.17 70.0898 20.41C70.1198 20.44 70.1497 20.4801 70.1797 20.5101C70.4197 20.3801 70.6597 20.2401 70.9897 20.0601C71.1397 20.6801 71.2697 21.2401 71.4397 21.9501C71.5697 21.2801 71.6597 20.7901 71.7697 20.2601C72.0097 20.3401 72.1797 20.4 72.4297 20.48C72.3197 20.18 72.2497 19.97 72.1697 19.72C72.6597 19.59 73.1097 19.47 73.5697 19.35C73.5597 19.31 73.5597 19.26 73.5497 19.22C73.1597 19.12 72.7697 19.0101 72.3197 18.9001C72.5097 18.5301 72.6797 18.2201 72.9197 17.7501C72.4997 17.9601 72.2597 18.0801 71.9197 18.2501C71.7797 17.6401 71.6598 17.1 71.5298 16.55C71.4998 16.56 71.4597 16.5601 71.4297 16.5701C71.2997 17.1601 71.1597 17.7401 71.0097 18.3801C70.7597 18.2801 70.5797 18.2 70.3297 18.1C70.4497 18.4 70.5397 18.6301 70.6497 18.9001C70.1897 19.0101 69.7797 19.1101 69.2297 19.2501C69.7397 19.3901 70.1097 19.5001 70.5197 19.6201Z" fill="white"/>
<path d="M16.6296 46.9899C16.4396 47.3599 16.2797 47.6699 16.0297 48.1299C16.4397 47.9199 16.6897 47.7999 17.0197 47.6299C17.1597 48.2299 17.2797 48.7699 17.3997 49.3099C17.4297 49.2999 17.4697 49.2999 17.4997 49.2899C17.6297 48.7099 17.7696 48.1299 17.9096 47.4999C18.1596 47.5999 18.3297 47.6799 18.5797 47.7799C18.4597 47.4799 18.3697 47.2599 18.2697 46.9899C18.7297 46.8799 19.1297 46.78 19.6797 46.65C19.1597 46.5 18.7996 46.39 18.3896 46.27C18.5596 45.96 18.6896 45.7199 18.8196 45.4799C18.7896 45.4499 18.7596 45.4099 18.7296 45.3799C18.4896 45.5099 18.2597 45.64 17.9297 45.83C17.7797 45.22 17.6496 44.67 17.4796 43.96C17.3496 44.62 17.2596 45.1099 17.1596 45.6299C16.9196 45.5499 16.7596 45.4899 16.5096 45.4099C16.6096 45.7099 16.6897 45.9199 16.7697 46.1599C16.2797 46.2899 15.8396 46.4099 15.3896 46.5299C15.3996 46.5699 15.3996 46.6199 15.4096 46.6599C15.7996 46.7699 16.1896 46.8699 16.6296 46.9899Z" fill="white"/>
<path d="M16.1199 17.1399C16.3399 17.1999 16.5599 17.2599 16.8099 17.3199C16.6999 17.5299 16.6098 17.6998 16.4698 17.9698C16.7098 17.8498 16.8399 17.7799 17.0299 17.6899C17.1099 18.0299 17.1799 18.3399 17.2499 18.6499C17.2699 18.6499 17.2899 18.6399 17.3099 18.6399C17.3899 18.3099 17.4599 17.9799 17.5399 17.6199C17.6799 17.6799 17.7799 17.7198 17.9199 17.7798C17.8499 17.6098 17.7999 17.4799 17.7399 17.3299C17.9999 17.2699 18.2299 17.2099 18.5399 17.1299C18.2499 17.0399 18.0399 16.9799 17.8099 16.9199C17.9099 16.7399 17.9799 16.6098 18.0499 16.4698C18.0299 16.4498 18.0199 16.4299 17.9999 16.4099C17.8699 16.4799 17.7299 16.5599 17.5399 16.6599C17.4599 16.3099 17.3799 15.9999 17.2899 15.5999C17.2199 15.9699 17.1599 16.2499 17.1099 16.5499C16.9699 16.4999 16.8799 16.4699 16.7399 16.4199C16.7999 16.5899 16.8399 16.7099 16.8899 16.8499C16.6099 16.9199 16.3599 16.9899 16.1099 17.0599C16.1099 17.0899 16.1099 17.1099 16.1199 17.1399Z" fill="white"/>
<path d="M42.9197 20.8201C43.1397 20.8801 43.3597 20.9401 43.6097 21.0001C43.4997 21.2101 43.4097 21.3801 43.2697 21.6501C43.5097 21.5301 43.6397 21.4601 43.8297 21.3701C43.9097 21.7101 43.9797 22.0201 44.0497 22.3301C44.0697 22.3301 44.0897 22.3201 44.1097 22.3201C44.1897 21.9901 44.2597 21.66 44.3397 21.3C44.4797 21.36 44.5797 21.4001 44.7197 21.4601C44.6497 21.2901 44.5997 21.1701 44.5397 21.0101C44.7997 20.9501 45.0297 20.8901 45.3397 20.8101C45.0497 20.7201 44.8397 20.66 44.6097 20.6C44.7097 20.42 44.7797 20.2901 44.8497 20.1501C44.8297 20.1301 44.8197 20.1101 44.7997 20.0901C44.6697 20.1601 44.5297 20.2401 44.3397 20.3401C44.2597 19.9901 44.1797 19.68 44.0897 19.28C44.0197 19.65 43.9597 19.93 43.9097 20.23C43.7697 20.18 43.6797 20.15 43.5397 20.1C43.5997 20.27 43.6397 20.39 43.6897 20.53C43.4097 20.6 43.1597 20.6701 42.9097 20.7401C42.9197 20.7701 42.9197 20.7901 42.9197 20.8201Z" fill="white"/>
<path d="M85.1596 28.54C85.3796 28.6 85.5996 28.66 85.8496 28.72C85.7396 28.93 85.6496 29.1 85.5096 29.37C85.7496 29.25 85.8796 29.18 86.0696 29.09C86.1496 29.43 86.2196 29.74 86.2896 30.05C86.3096 30.05 86.3296 30.04 86.3496 30.04C86.4296 29.71 86.4997 29.38 86.5797 29.02C86.7197 29.08 86.8197 29.12 86.9597 29.18C86.8897 29.01 86.8397 28.88 86.7797 28.73C87.0397 28.67 87.2697 28.61 87.5797 28.53C87.2897 28.44 87.0796 28.38 86.8496 28.32C86.9496 28.14 87.0197 28.01 87.0897 27.87C87.0697 27.85 87.0596 27.83 87.0396 27.81C86.9096 27.88 86.7697 27.96 86.5797 28.06C86.4997 27.71 86.4197 27.4 86.3297 27C86.2597 27.37 86.1997 27.65 86.1497 27.95C86.0097 27.9 85.9197 27.87 85.7797 27.82C85.8397 27.99 85.8797 28.11 85.9297 28.25C85.6497 28.32 85.3997 28.39 85.1497 28.46C85.1497 28.49 85.1496 28.51 85.1596 28.54Z" fill="white"/>
<path d="M43.3496 48.8101C43.2396 49.0201 43.1496 49.1901 43.0096 49.4601C43.2496 49.3401 43.3796 49.2701 43.5696 49.1801C43.6496 49.5201 43.7196 49.8301 43.7896 50.1401C43.8096 50.1401 43.8296 50.1301 43.8496 50.1301C43.9296 49.8001 43.9997 49.47 44.0797 49.11C44.2197 49.17 44.3197 49.2101 44.4597 49.2701C44.3897 49.1001 44.3397 48.9701 44.2797 48.8201C44.5397 48.7601 44.7697 48.7001 45.0797 48.6201C44.7897 48.5301 44.5796 48.47 44.3496 48.41C44.4496 48.23 44.5197 48.1001 44.5897 47.9601C44.5697 47.9401 44.5596 47.9201 44.5396 47.9001C44.4096 47.9701 44.2697 48.0501 44.0797 48.1501C43.9997 47.8001 43.9197 47.4901 43.8297 47.0901C43.7597 47.4601 43.6997 47.74 43.6497 48.04C43.5097 47.99 43.4197 47.96 43.2797 47.91C43.3397 48.08 43.3797 48.2001 43.4297 48.3401C43.1497 48.4101 42.8997 48.48 42.6497 48.55C42.6497 48.57 42.6596 48.6001 42.6596 48.6201C42.8796 48.6901 43.0996 48.7501 43.3496 48.8101Z" fill="white"/>
<path d="M78.6397 45.9599C78.6497 45.9699 78.6597 45.9799 78.6697 45.9899C78.9397 45.7699 79.2197 45.5399 79.5097 45.2999C79.6597 46.2299 79.7997 47.1298 79.9397 48.0298C79.9497 48.0298 79.9597 48.0298 79.9697 48.0298C80.0997 47.1198 80.2397 46.2198 80.3697 45.2798C80.6797 45.5298 80.9597 45.7499 81.2497 45.9799C81.2597 45.9699 81.2697 45.9599 81.2697 45.9499C81.0697 45.6299 80.8797 45.2999 80.6697 44.9599C81.4697 44.7899 82.2397 44.6299 83.0097 44.4599C83.0097 44.4499 83.0097 44.4399 83.0097 44.4299C82.2297 44.2699 81.4497 44.1199 80.6497 43.9599C80.8697 43.5999 81.0697 43.2699 81.2697 42.9399C81.2597 42.9299 81.2497 42.9199 81.2397 42.9099C80.9497 43.1399 80.6597 43.3699 80.3597 43.5999C80.2197 42.6699 80.0897 41.7699 79.9597 40.8799C79.9497 40.8799 79.9397 40.8799 79.9297 40.8799C79.7897 41.7799 79.6397 42.6799 79.4997 43.6099C79.1997 43.3699 78.9297 43.1399 78.6597 42.9099C78.6497 42.9199 78.6397 42.9299 78.6397 42.9399C78.8397 43.2699 79.0297 43.6099 79.2397 43.9599C78.4497 44.1199 77.6797 44.2799 76.9097 44.4299C76.9097 44.4399 76.9097 44.4498 76.9097 44.4698C77.6697 44.6398 78.4397 44.8099 79.2297 44.9799C79.0197 45.3199 78.8297 45.6399 78.6397 45.9599Z" fill="white"/>
<path d="M28.5697 39.8399C32.4397 41.4299 36.4897 39.8599 37.8997 36.9499C35.9897 38.1699 34.3397 39.0199 32.1897 38.2099C30.1097 37.4299 28.0597 35.8498 27.3697 33.6598C26.7797 31.7998 27.3397 29.6099 28.2297 27.8999C29.3497 25.7299 31.3897 25.0999 33.7397 24.7099C30.9197 23.6599 25.6197 24.0799 23.4897 28.9499C21.6697 33.0899 24.3397 38.0999 28.5697 39.8399Z" fill="white"/>
<path d="M54.2797 37.93C54.2897 37.94 54.2997 37.95 54.3097 37.96C54.6497 37.69 54.9797 37.41 55.3297 37.12C55.5097 38.26 55.6797 39.35 55.8597 40.45C55.8697 40.45 55.8797 40.45 55.8997 40.45C56.0597 39.35 56.2197 38.24 56.3897 37.1C56.7597 37.4 57.1097 37.68 57.4597 37.96C57.4697 37.95 57.4797 37.94 57.4897 37.92C57.2497 37.52 57.0097 37.13 56.7597 36.71C57.7297 36.5 58.6697 36.3 59.6197 36.1C59.6197 36.09 59.6197 36.07 59.6197 36.06C58.6697 35.87 57.7197 35.68 56.7397 35.48C56.9997 35.04 57.2497 34.64 57.4897 34.24C57.4797 34.23 57.4697 34.22 57.4597 34.2C57.1097 34.48 56.7497 34.76 56.3897 35.04C56.2197 33.9 56.0597 32.81 55.8997 31.72C55.8897 31.72 55.8697 31.72 55.8597 31.72C55.6897 32.82 55.5097 33.92 55.3297 35.04C54.9697 34.74 54.6397 34.47 54.2997 34.19C54.2897 34.2 54.2797 34.21 54.2697 34.22C54.5097 34.63 54.7497 35.04 54.9997 35.47C54.0297 35.67 53.0997 35.85 52.1597 36.04C52.1597 36.05 52.1597 36.07 52.1597 36.08C53.0897 36.28 54.0197 36.49 54.9797 36.7C54.7397 37.15 54.5097 37.54 54.2797 37.93Z" fill="white"/>
<path d="M23.0298 125.2C23.4798 126.45 23.9198 127.7 24.3698 128.95C25.0798 128.77 25.7998 128.6 26.5098 128.42C26.4398 127.07 26.3698 125.71 26.2998 124.36C25.2098 124.64 24.1198 124.92 23.0298 125.2Z" fill="white"/>
<path d="M77.2897 124.18C76.4097 124.5 75.3797 125.65 75.2997 126.52C75.2297 127.24 76.4597 128.08 77.1097 128.87C77.9497 128.12 78.7897 127.38 80.1497 126.17C78.8197 125.21 77.8097 124 77.2897 124.18Z" fill="white"/>
<path d="M80.4297 3.96997C79.9797 2.71997 79.5397 1.46997 79.0897 0.219971C78.3797 0.399971 77.6597 0.569969 76.9497 0.749969C77.0197 2.09997 77.0897 3.45997 77.1597 4.80997C78.2497 4.51997 79.3397 4.23997 80.4297 3.96997Z" fill="white"/>
<path d="M26.1698 4.98004C27.0498 4.66004 28.0798 3.51001 28.1598 2.64001C28.2298 1.92001 26.9998 1.08004 26.3498 0.290039C25.5098 1.04004 24.6698 1.78002 23.3098 2.99002C24.6398 3.96002 25.6498 5.17004 26.1698 4.98004Z" fill="white"/>
<path d="M5.05975 51.54C4.77975 50.45 4.49973 49.36 4.21973 48.27C2.96973 48.72 1.71973 49.16 0.469727 49.61C0.649727 50.32 0.819756 51.04 0.999756 51.75C2.34976 51.68 3.70975 51.61 5.05975 51.54Z" fill="white"/>
<path d="M2.89981 100.54C2.17981 100.47 1.3398 101.7 0.549805 102.35C0.779805 102.6 1.00982 102.86 1.24982 103.13L2.08981 104.08C2.42981 104.47 2.79982 104.88 3.24982 105.39C4.21982 104.07 5.42981 103.05 5.23981 102.54C4.91981 101.65 3.77981 100.62 2.89981 100.54Z" fill="white"/>
<path d="M96.1597 93.8C95.8297 85.23 95.1297 76.66 95.0597 68.09C95.0197 62.46 95.9197 56.84 96.2097 51.2C96.4797 45.87 96.5997 15.73 96.5697 10.4C96.5697 10.04 96.4297 9.66997 96.2297 9.30997L96.5097 8.00998C95.5097 7.45998 94.4997 6.44997 93.4997 6.43997C88.1697 6.40997 82.8297 6.51996 77.4997 6.79996C71.8597 7.08996 66.2397 7.98998 60.6097 7.94998C52.0397 7.87998 43.4697 7.17998 34.8997 6.84998C27.0597 6.54998 19.2197 6.32996 11.3697 6.20996C11.1097 6.20996 10.8497 6.22998 10.5797 6.28998C9.73973 6.44998 8.80972 6.82996 7.69972 7.20996C7.58972 7.24996 7.52972 7.30995 7.47972 7.38995H7.46971C6.91971 8.38995 6.69972 9.39996 6.69972 10.4C6.66972 15.73 6.77974 45.87 7.05974 51.2C7.34974 56.84 8.24973 62.46 8.20973 68.09C8.17973 72.27 7.98973 76.45 7.76973 80.63V80.67C7.74973 80.67 7.73972 80.67 7.72972 80.67V81.51C7.50972 85.6 7.26973 89.7 7.10973 93.8C6.80973 101.64 6.58971 109.48 6.46971 117.33C6.45971 118.17 6.77973 119.03 7.17973 120.12C7.09973 120.47 7.02972 120.82 6.94972 121.17C7.17972 121.3 7.40973 121.45 7.64973 121.61C7.65973 121.62 7.67971 121.63 7.68971 121.64C7.69971 121.68 7.71972 121.72 7.72972 121.76C7.74972 121.74 7.75974 121.72 7.77974 121.7C7.83974 121.74 7.88972 121.78 7.94972 121.82C7.98972 121.85 8.02972 121.88 8.06972 121.9C8.07972 121.91 8.09973 121.92 8.10973 121.93C8.20973 122 8.30971 122.07 8.40971 122.13C8.44971 122.16 8.48974 122.18 8.52974 122.2C8.60974 122.25 8.68973 122.3 8.76973 122.34C8.80973 122.37 8.85973 122.39 8.89973 122.41C8.96973 122.45 9.04974 122.49 9.11974 122.52C9.15974 122.54 9.20974 122.56 9.24974 122.58C9.32974 122.61 9.40973 122.64 9.48973 122.66C9.52973 122.67 9.56973 122.68 9.60973 122.69C9.72973 122.72 9.83973 122.73 9.95973 122.73C15.2897 122.76 20.6297 122.65 25.9597 122.37C31.5997 122.08 37.2197 121.18 42.8497 121.22C51.4197 121.29 59.9897 121.99 68.5597 122.32C76.3997 122.62 84.2397 122.84 92.0897 122.96C92.2897 122.96 92.4997 122.94 92.6997 122.91C92.7497 122.9 92.8097 122.89 92.8597 122.88C93.0497 122.84 93.2297 122.8 93.4297 122.74C93.4497 122.73 93.4697 122.73 93.4897 122.72C93.7097 122.65 93.9497 122.57 94.1897 122.49C94.2797 122.46 94.3797 122.42 94.4797 122.39C95.0697 122.18 95.7397 121.93 96.5097 121.7C96.2297 121.48 95.9897 121.26 95.7597 121.05C96.2797 119.48 96.8097 118.4 96.7897 117.33C96.6797 109.48 96.4597 101.64 96.1597 93.8ZM93.3597 114.59C92.2297 114.27 91.4197 113.71 90.5397 113.1C89.1497 112.13 87.5697 111.02 84.5497 111.02C81.5297 111.02 79.9497 112.16 78.5497 113.17C77.1897 114.16 76.0097 115.01 73.5297 115.01C71.0397 115.01 69.8697 114.15 68.5097 113.16C67.1197 112.14 65.5397 110.99 62.5097 110.99C59.4897 110.99 57.9197 112.09 56.5297 113.06C55.1697 114.01 53.9897 114.83 51.4897 114.83C48.9897 114.83 47.8197 114.02 46.4497 113.07C45.0597 112.11 43.4797 111.02 40.4697 111.02C37.4397 111.02 35.8597 112.22 34.4597 113.27C33.0997 114.3 31.9297 115.19 29.4497 115.19C27.0097 115.19 25.8497 114.14 24.4997 112.91C23.0997 111.64 21.5097 110.21 18.4297 110.21C15.3497 110.21 13.7597 111.66 12.3597 112.94C11.5797 113.65 10.8497 114.31 9.90971 114.73C9.90971 113.07 9.91972 111.35 9.91972 109.57C11.4697 109.05 12.5197 108.11 13.4797 107.24C14.8297 106.01 15.9997 104.94 18.4297 104.94C20.8697 104.94 22.0297 105.99 23.3797 107.21C24.7797 108.48 26.3697 109.91 29.4497 109.91C32.4797 109.91 34.0697 108.71 35.4597 107.66C36.8197 106.63 37.9897 105.74 40.4697 105.74C42.9697 105.74 44.1397 106.55 45.5097 107.5C46.8997 108.46 48.4797 109.55 51.4897 109.55C54.5097 109.55 56.0797 108.45 57.4797 107.48C58.8397 106.53 60.0197 105.71 62.5097 105.71C64.9997 105.71 66.1697 106.57 67.5297 107.56C68.9197 108.57 70.4997 109.73 73.5297 109.73C76.5497 109.73 78.1297 108.59 79.5297 107.58C80.8897 106.6 82.0697 105.74 84.5497 105.74C87.0497 105.74 88.2197 106.56 89.5897 107.52C90.5897 108.22 91.6897 108.98 93.3397 109.35C93.3497 111.17 93.3497 112.91 93.3597 114.59ZM93.3397 107.66C92.2197 107.34 91.4197 106.78 90.5397 106.17C89.1497 105.2 87.5697 104.09 84.5497 104.09C81.5297 104.09 79.9497 105.23 78.5497 106.24C77.1897 107.23 76.0097 108.08 73.5297 108.08C71.0397 108.08 69.8697 107.22 68.5097 106.23C67.1197 105.22 65.5397 104.06 62.5097 104.06C59.4897 104.06 57.9197 105.16 56.5297 106.13C55.1697 107.08 53.9897 107.9 51.4897 107.9C48.9897 107.9 47.8197 107.09 46.4497 106.14C45.0597 105.18 43.4797 104.09 40.4697 104.09C37.4397 104.09 35.8597 105.29 34.4597 106.34C33.0997 107.37 31.9297 108.26 29.4497 108.26C27.0097 108.26 25.8497 107.21 24.4997 105.99C23.0997 104.72 21.5097 103.29 18.4297 103.29C15.3497 103.29 13.7597 104.74 12.3597 106.02C11.5797 106.73 10.8597 107.38 9.91972 107.81C9.91972 106.14 9.92973 104.42 9.92973 102.66C11.4697 102.14 12.5197 101.2 13.4797 100.33C14.8297 99.1 15.9997 98.0299 18.4297 98.0299C20.8697 98.0299 22.0297 99.08 23.3797 100.3C24.7797 101.57 26.3697 103 29.4497 103C32.4797 103 34.0697 101.8 35.4597 100.75C36.8197 99.72 37.9897 98.83 40.4697 98.83C42.9697 98.83 44.1397 99.64 45.5097 100.59C46.8997 101.55 48.4797 102.64 51.4897 102.64C54.5097 102.64 56.0797 101.54 57.4797 100.57C58.8397 99.62 60.0197 98.8 62.5097 98.8C64.9997 98.8 66.1697 99.66 67.5297 100.65C68.9197 101.67 70.4997 102.82 73.5297 102.82C76.5497 102.82 78.1297 101.68 79.5297 100.67C80.8897 99.69 82.0697 98.83 84.5497 98.83C87.0497 98.83 88.2197 99.65 89.5897 100.61C90.5897 101.31 91.6897 102.06 93.3297 102.44C93.3397 104.22 93.3397 105.97 93.3397 107.66ZM93.3297 100.74C92.2197 100.42 91.4097 99.86 90.5397 99.25C89.1497 98.28 87.5697 97.17 84.5497 97.17C81.5297 97.17 79.9497 98.31 78.5497 99.32C77.1897 100.31 76.0097 101.16 73.5297 101.16C71.0397 101.16 69.8697 100.3 68.5097 99.31C67.1197 98.29 65.5397 97.14 62.5097 97.14C59.4897 97.14 57.9197 98.24 56.5297 99.21C55.1697 100.16 53.9897 100.98 51.4897 100.98C48.9897 100.98 47.8197 100.17 46.4497 99.2199C45.0597 98.2599 43.4797 97.17 40.4697 97.17C37.4397 97.17 35.8597 98.37 34.4597 99.42C33.0997 100.45 31.9297 101.34 29.4497 101.34C27.0097 101.34 25.8497 100.29 24.4997 99.06C23.0997 97.79 21.5097 96.36 18.4297 96.36C15.3497 96.36 13.7597 97.81 12.3597 99.09C11.5797 99.8 10.8597 100.44 9.92973 100.87C9.92973 99.19 9.92971 97.4599 9.93971 95.7199C11.4697 95.1999 12.5297 94.26 13.4797 93.39C14.8297 92.16 15.9997 91.09 18.4297 91.09C20.8697 91.09 22.0297 92.14 23.3797 93.36C24.7797 94.63 26.3697 96.06 29.4497 96.06C32.4797 96.06 34.0697 94.86 35.4597 93.81C36.8197 92.78 37.9897 91.89 40.4697 91.89C42.9697 91.89 44.1397 92.7 45.5097 93.65C46.8997 94.61 48.4797 95.7 51.4897 95.7C54.5097 95.7 56.0797 94.6 57.4797 93.63C58.8397 92.68 60.0197 91.86 62.5097 91.86C64.9997 91.86 66.1697 92.72 67.5297 93.71C68.9197 94.72 70.4997 95.88 73.5297 95.88C76.5497 95.88 78.1297 94.7399 79.5297 93.7299C80.8897 92.7499 82.0697 91.89 84.5497 91.89C87.0497 91.89 88.2197 92.71 89.5897 93.67C90.5797 94.36 91.6797 95.12 93.3197 95.5C93.3297 97.28 93.3297 99.03 93.3297 100.74ZM93.3197 93.81C92.2097 93.49 91.4097 92.94 90.5397 92.33C89.1497 91.36 87.5697 90.25 84.5497 90.25C81.5297 90.25 79.9497 91.39 78.5497 92.4C77.1897 93.39 76.0097 94.24 73.5297 94.24C71.0397 94.24 69.8697 93.38 68.5097 92.39C67.1197 91.38 65.5397 90.2199 62.5097 90.2199C59.4897 90.2199 57.9197 91.3199 56.5297 92.2899C55.1697 93.2399 53.9897 94.06 51.4897 94.06C48.9897 94.06 47.8197 93.25 46.4497 92.3C45.0597 91.34 43.4797 90.25 40.4697 90.25C37.4397 90.25 35.8597 91.45 34.4597 92.5C33.0997 93.53 31.9297 94.42 29.4497 94.42C27.0097 94.42 25.8497 93.37 24.4997 92.15C23.0997 90.88 21.5097 89.45 18.4297 89.45C15.3497 89.45 13.7597 90.9 12.3597 92.18C11.5897 92.89 10.8697 93.53 9.93971 93.96C9.93971 92.27 9.93972 90.55 9.94972 88.81C11.4797 88.29 12.5297 87.3499 13.4797 86.4799C14.8297 85.2499 15.9997 84.18 18.4297 84.18C20.8697 84.18 22.0297 85.23 23.3797 86.45C24.7797 87.72 26.3697 89.15 29.4497 89.15C32.4797 89.15 34.0697 87.95 35.4597 86.9C36.8197 85.87 37.9897 84.9799 40.4697 84.9799C42.9697 84.9799 44.1397 85.79 45.5097 86.74C46.8997 87.7 48.4797 88.7899 51.4897 88.7899C54.5097 88.7899 56.0797 87.6899 57.4797 86.7199C58.8397 85.7699 60.0197 84.95 62.5097 84.95C64.9997 84.95 66.1697 85.81 67.5297 86.8C68.9197 87.82 70.4997 88.9699 73.5297 88.9699C76.5497 88.9699 78.1297 87.83 79.5297 86.82C80.8897 85.84 82.0697 84.9799 84.5497 84.9799C87.0497 84.9799 88.2197 85.8 89.5897 86.76C90.5797 87.45 91.6797 88.21 93.3197 88.58C93.3197 90.35 93.3197 92.09 93.3197 93.81ZM27.0497 57.5399C26.8797 56.5999 25.9097 56.07 24.8897 55.5C23.9397 54.98 22.9597 54.44 22.8097 53.65C22.6997 53.08 23.0097 52.33 23.7497 51.44C25.7797 48.95 26.6697 49.6199 30.0197 52.0999L30.9797 52.81C34.4697 55.36 37.7297 57.28 40.6797 58.74C36.2897 60.52 31.0797 62.9799 25.9497 65.4099C24.5797 66.0599 23.2297 66.7 21.9197 67.31C21.4497 65.17 24.2597 61.87 26.3497 59.42C26.9197 58.74 27.1497 58.1199 27.0497 57.5399ZM70.1197 48.2199C79.7397 51.5599 87.4797 54.7399 93.2997 57.7299C93.2997 61.5099 93.2997 65.31 93.2997 69.09C88.4797 66.8 86.0497 66.18 84.9297 65.9C84.4897 65.79 83.9797 65.7 83.5797 65.8C80.9097 65.63 77.5897 67.6199 74.0097 69.9699C72.5397 68.8699 71.1497 67.86 69.8397 66.93C80.9697 65.13 84.4997 64.4 84.9097 63.4C86.1297 60.45 75.6597 52.2799 70.1197 48.2199ZM93.3097 80.06C92.1297 79.76 91.5197 79.1599 90.5397 78.4799C89.5897 77.8199 88.5397 77.1 87.0097 76.71C87.2797 76.53 87.4997 76.3099 87.6497 76.0399C88.5097 74.4199 86.8397 71.85 85.3597 69.58C84.7097 68.58 83.7197 67.06 83.7797 66.74C83.7797 66.74 83.9597 66.64 84.6997 66.83C85.8197 67.11 88.2897 67.74 93.2997 70.15C93.2997 73.47 93.3097 76.78 93.3097 80.06ZM73.1797 70.5299C69.7597 72.7899 66.1297 75.24 62.6097 76.38C62.5697 76.38 62.5397 76.38 62.5097 76.38C59.4897 76.38 57.9197 77.48 56.5297 78.45C55.3497 79.27 54.2997 80 52.4197 80.18C52.1997 80.19 51.9697 80.2 51.7097 80.2C52.9997 79.39 53.5597 78.61 53.4597 77.8C53.2197 75.8 49.0797 74.8 42.7797 73.5C40.4497 73.02 38.2497 72.5699 37.0897 72.0999C31.7297 69.9399 30.6097 68.24 30.6097 67.2C30.6197 64.67 36.5797 62.3399 41.8297 60.2799C44.3797 59.2799 46.7797 58.34 48.5297 57.38C50.0397 56.56 56.9197 58.4399 73.1797 70.5299ZM13.4397 79.5999C14.7897 78.3699 15.9597 77.3 18.3897 77.3C20.8297 77.3 21.9897 78.35 23.3397 79.57C24.7397 80.84 26.3297 82.27 29.4097 82.27C32.4397 82.27 34.0297 81.07 35.4197 80.02C36.7797 78.99 37.9497 78.0999 40.4297 78.0999C42.9297 78.0999 44.0997 78.91 45.4697 79.86C46.8597 80.82 48.4397 81.9099 51.4497 81.9099C54.4697 81.9099 56.0397 80.81 57.4397 79.84C58.7997 78.89 59.9797 78.07 62.4697 78.07C62.9697 78.07 63.4097 78.11 63.8197 78.18C64.0197 78.24 64.2097 78.3 64.4097 78.36C64.6597 78.44 64.9097 78.51 65.1597 78.58C66.0097 79 66.8597 79.5299 67.6397 80.0299C68.9997 81.0199 70.5697 82.09 73.4997 82.09C76.5197 82.09 78.0997 80.95 79.4997 79.94C80.8597 78.95 82.0397 78.0999 84.5197 78.0999C84.5797 78.0999 84.6397 78.11 84.6997 78.11C86.4197 78.14 87.5097 78.57 88.4897 79.17C88.8497 79.39 89.1997 79.63 89.5597 79.88C90.6497 80.64 91.5397 81.48 93.3197 81.8C93.3197 83.51 93.3197 85.2 93.3197 86.88C92.2097 86.56 91.4197 86.01 90.5497 85.4C89.1597 84.43 87.5797 83.32 84.5597 83.32C81.5397 83.32 79.9597 84.4599 78.5597 85.4699C77.1997 86.4599 76.0197 87.31 73.5397 87.31C71.0497 87.31 69.8797 86.45 68.5197 85.46C67.1297 84.44 65.5497 83.2899 62.5197 83.2899C59.4997 83.2899 57.9297 84.39 56.5397 85.36C55.1797 86.31 53.9997 87.13 51.4997 87.13C48.9997 87.13 47.8297 86.32 46.4597 85.37C45.0697 84.41 43.4897 83.32 40.4797 83.32C37.4497 83.32 35.8697 84.52 34.4697 85.57C33.1097 86.6 31.9397 87.49 29.4597 87.49C27.0197 87.49 25.8597 86.44 24.5097 85.21C23.1097 83.94 21.5197 82.51 18.4397 82.51C15.3597 82.51 13.7697 83.96 12.3697 85.24C11.5997 85.94 10.8797 86.59 9.95973 87.01C9.95973 85.35 9.95973 83.67 9.95973 81.9799C11.5097 81.4999 12.4397 80.5099 13.4397 79.5999ZM93.2997 9.70996C93.2997 22.36 93.2997 39.26 93.2997 56.65C87.1197 53.5 80.1097 50.79 74.8797 48.9L67.6297 45.76L67.1497 45.55L66.8797 45.65L54.9697 50.33C51.0097 51.91 47.0397 53.4799 43.0997 55.0999C41.7097 55.6599 40.3097 56.21 38.9097 56.76C36.5997 55.5 34.1297 53.96 31.5197 52.05L30.5697 51.34C27.2997 48.91 25.6397 47.69 23.0797 50.76C18.6097 54.96 13.9897 58.83 9.95973 62.14C9.96973 42.82 9.95973 23.63 9.95973 9.63995C37.7397 9.71995 65.5197 9.70996 93.2997 9.70996ZM9.73973 119.46C9.78973 119.38 9.82972 119.3 9.84972 119.23C9.87972 119.15 9.89973 119.06 9.89973 118.97C9.89973 118.18 9.89971 117.36 9.90971 116.52C11.4597 116 12.5297 115.06 13.4897 114.18C14.8397 112.95 16.0097 111.88 18.4397 111.88C20.8797 111.88 22.0397 112.93 23.3897 114.15C24.7897 115.42 26.3797 116.85 29.4597 116.85C32.4897 116.85 34.0797 115.65 35.4697 114.6C36.8297 113.57 37.9997 112.68 40.4797 112.68C42.9797 112.68 44.1497 113.49 45.5197 114.44C46.9097 115.4 48.4897 116.49 51.4997 116.49C54.5197 116.49 56.0897 115.39 57.4897 114.42C58.8497 113.47 60.0297 112.65 62.5197 112.65C65.0097 112.65 66.1797 113.51 67.5397 114.5C68.9297 115.52 70.5097 116.67 73.5397 116.67C76.5597 116.67 78.1397 115.53 79.5397 114.52C80.8997 113.54 82.0797 112.68 84.5597 112.68C87.0597 112.68 88.2297 113.5 89.5997 114.46C90.5997 115.16 91.7097 115.92 93.3697 116.3C93.3697 117.21 93.3697 118.1 93.3797 118.97C93.3797 119.15 93.4497 119.34 93.5797 119.53C65.6197 119.45 37.6797 119.46 9.73973 119.46Z" fill="white"/>
<path d="M102.79 49.61C101.54 49.16 100.29 48.72 99.0397 48.27C98.7597 49.36 98.4797 50.45 98.1997 51.54C99.5497 51.61 100.91 51.68 102.26 51.75C102.44 51.03 102.62 50.32 102.79 49.61Z" fill="white"/>
<path d="M100.37 100.54C99.4896 100.62 98.3397 101.65 98.0297 102.53C97.8397 103.04 99.0496 104.06 100.02 105.38C101.23 104.02 101.97 103.18 102.72 102.34C101.93 101.7 101.09 100.48 100.37 100.54Z" fill="white"/>
<path d="M295.262 107.328H292V105.723H300.326V107.328H297.064V120.456H295.249V107.328H295.262Z" fill="white"/>
<path d="M312.928 118.404C312.928 119.061 312.98 120.061 313.02 120.442H311.389C311.336 120.206 311.283 119.627 311.283 119.232C310.876 120.1 310.06 120.64 308.692 120.64C306.574 120.64 305.798 118.969 305.798 117.43C305.798 115.365 307.206 113.879 310.086 113.879C310.573 113.879 310.876 113.879 311.191 113.918V112.498C311.191 111.682 311.047 110.656 309.626 110.656C308.113 110.656 308.008 111.721 307.942 112.458H306.232C306.272 110.866 307.035 109.222 309.692 109.222C311.889 109.222 312.954 110.275 312.954 112.327V118.404H312.928ZM311.218 115.286C310.941 115.247 310.652 115.233 310.179 115.233C308.311 115.233 307.561 116.128 307.561 117.285C307.561 118.233 308.061 119.14 309.192 119.14C310.744 119.14 311.218 118.035 311.218 115.839V115.286Z" fill="white"/>
<path d="M328.857 119.706C328.857 122.652 328.12 124.665 324.911 124.665C322.004 124.665 321.372 122.81 321.307 121.587H323.096C323.135 122.139 323.451 123.165 324.963 123.165C326.726 123.165 327.081 121.876 327.081 119.706V118.798C326.687 119.877 325.766 120.416 324.556 120.416C322.306 120.416 321.215 118.496 321.215 115.062C321.215 111.116 322.662 109.222 324.792 109.222C326.279 109.222 326.884 109.946 327.081 110.616C327.081 110.156 327.134 109.643 327.16 109.406H328.87C328.844 109.998 328.844 111.116 328.844 112.616V119.706H328.857ZM323.056 115.01C323.056 117.614 323.753 118.851 325.069 118.851C326.7 118.851 327.121 117.246 327.121 114.721C327.121 112.234 326.818 110.761 325.187 110.761C323.806 110.774 323.056 112.221 323.056 115.01Z" fill="white"/>
<path d="M339.485 105V110.682C339.88 109.814 340.695 109.196 342.103 109.196C343.76 109.196 344.878 110.248 344.878 112.59V120.443H343.089V112.958C343.089 111.656 342.734 110.775 341.432 110.775C339.985 110.775 339.485 111.945 339.485 113.787V120.456H337.696V105.013H339.485V105Z" fill="white"/>
<path d="M360.097 118.404C360.097 119.061 360.15 120.061 360.189 120.442H358.558C358.506 120.206 358.453 119.627 358.453 119.232C358.045 120.1 357.23 120.64 355.862 120.64C353.744 120.64 352.968 118.969 352.968 117.43C352.968 115.365 354.375 113.879 357.256 113.879C357.743 113.879 358.045 113.879 358.361 113.918V112.498C358.361 111.682 358.216 110.656 356.796 110.656C355.283 110.656 355.178 111.721 355.112 112.458H353.402C353.442 110.866 354.204 109.222 356.862 109.222C359.058 109.222 360.124 110.275 360.124 112.327V118.404H360.097ZM358.401 115.286C358.124 115.247 357.835 115.233 357.361 115.233C355.494 115.233 354.744 116.128 354.744 117.285C354.744 118.233 355.244 119.14 356.375 119.14C357.927 119.14 358.401 118.035 358.401 115.839V115.286Z" fill="white"/>
<path d="M367.91 119.153C369.042 117.246 371.146 113.563 372.659 110.932H368.239V109.393H374.671V110.761C373.606 112.616 371.37 116.562 369.989 118.916H374.75L374.527 120.442H367.91V119.153V119.153Z" fill="white"/>
<path d="M389.719 114.8C389.719 118.706 388.378 120.653 385.839 120.653C383.261 120.653 381.972 118.785 381.972 114.839C381.972 110.985 383.498 109.209 385.918 109.209C388.378 109.209 389.719 111.09 389.719 114.8ZM383.787 114.839C383.787 117.72 384.471 119.127 385.865 119.127C387.246 119.127 387.904 117.72 387.904 114.839C387.904 112.09 387.26 110.748 385.852 110.748C384.51 110.748 383.787 111.971 383.787 114.839Z" fill="white"/>
<path d="M405.109 117.378C405.109 118.812 405.109 119.903 405.136 120.443H403.439C403.386 120.114 403.36 119.667 403.36 119.022C402.939 120.101 402.045 120.64 400.769 120.64C399.427 120.64 398.006 120.061 398.006 117.338V109.394H399.795V116.918C399.795 118.272 400.15 119.075 401.361 119.075C402.531 119.075 403.334 118.378 403.334 116.102V109.38H405.123V117.378H405.109Z" fill="white"/>
<path d="M412.817 109.393H414.356V106.486H416.119V109.393H418V110.906H416.119V117.917C416.119 118.653 416.277 119.101 417.105 119.101C417.369 119.101 417.645 119.087 417.855 119.048V120.403C417.461 120.561 416.882 120.6 416.5 120.6C415.106 120.6 414.356 120.048 414.356 118.259V110.906H412.817V109.393V109.393Z" fill="white"/>
<path d="M377.63 31.3862C374.574 34.1044 372.693 35.7772 370.795 37.4661C369.331 35.6968 366.58 33.7989 366.725 32.1744C366.902 30.196 369.234 27.6064 371.197 26.8987C372.355 26.4805 374.655 29.1987 377.63 31.3862Z" fill="white"/>
<path d="M178.732 37.2894C176.014 34.2333 174.341 32.3515 172.652 30.4535C174.422 28.9899 176.32 26.2394 177.944 26.3842C179.922 26.5611 182.512 28.8773 183.22 30.8556C183.638 32.0137 180.92 34.3138 178.732 37.2894Z" fill="white"/>
<path d="M145.711 82.3417C142.961 82.3417 140.532 81.5696 138.441 80.0255C137.508 79.35 136.72 78.4813 136.044 77.4198C135.369 76.3582 135.031 75.3289 135.031 74.3477C135.031 73.2218 135.546 72.6589 136.591 72.6589C137.299 72.6589 138.2 72.884 139.326 73.3344C141.014 73.9778 142.607 74.2995 144.119 74.2995C145.711 74.2995 147.593 73.7848 149.732 72.7393C151.871 71.7099 153.817 69.7637 155.555 66.9329C156.906 64.7454 157.581 63.1852 157.581 62.2684C157.581 61.3355 156.906 60.8852 155.555 60.8852C154.509 60.8852 152.418 61.3033 149.25 62.1397C143.507 63.6516 138.827 64.4076 135.24 64.4076C127.085 64.4076 123 59.888 123 50.8647C123 47.9695 123.515 44.6562 124.528 40.9246C125.557 37.177 126.989 33.3971 128.855 29.5851C130.72 25.7731 132.924 22.2346 135.481 18.9856C138.039 15.7366 140.854 13.0827 143.958 11.0561C147.062 9.02943 150.327 8 153.785 8C156.906 8 159.334 9.04548 161.088 11.1204C162.841 13.1952 163.709 15.8652 163.709 19.1464C163.709 25.2906 162.712 29.5852 160.718 32.0621C159.817 33.1559 158.884 33.7027 157.903 33.7027C156.648 33.7027 156.005 32.4964 156.005 30.0837C156.005 29.2473 156.053 28.1858 156.15 26.9312C156.246 25.6767 156.294 24.6151 156.294 23.7787C156.294 22.7493 156.214 21.6555 156.037 20.5457C155.876 19.4198 155.539 18.4548 155.072 17.6184C154.59 16.7981 153.978 16.38 153.222 16.38C152.161 16.38 150.649 17.3128 148.719 19.1625C146.194 21.5751 143.861 24.6795 141.738 28.4593C139.599 32.2391 137.878 36.051 136.543 39.8791C135.208 43.7071 134.549 46.747 134.549 48.9828C134.549 51.6527 135.819 52.9717 138.377 52.9717C140.339 52.9717 143.54 52.5535 147.963 51.7171C151.743 50.9933 155.346 50.6234 158.771 50.6234C162.326 50.6234 164.98 51.4598 166.717 53.1486C168.599 54.9983 169.532 57.3948 169.532 60.3383C169.532 62.5901 168.969 64.8741 167.843 67.2385C166.444 70.2141 164.401 72.9001 161.699 75.3127C159.013 77.7254 156.053 79.5751 152.82 80.8618C150.424 81.8591 148.043 82.3417 145.711 82.3417Z" fill="white"/>
<path d="M179.746 82.9368C177.976 82.9368 176.577 80.8458 175.531 76.6639C174.357 71.6778 173.762 65.9357 173.762 59.4537C173.762 54.2585 174.196 49.6584 175.065 45.6212C175.901 41.7771 177.253 39.863 179.102 39.863C180.276 39.863 181.402 40.5064 182.464 41.7771C183.525 43.0477 184.201 44.3988 184.49 45.8303C185.472 52.2801 185.97 62.2042 185.97 75.6024C185.97 78.0955 185.391 79.9452 184.217 81.1354C183.059 82.3417 181.563 82.9368 179.746 82.9368Z" fill="white"/>
<path d="M200.896 79.6072C198.902 79.6072 197.261 78.6743 195.974 76.7925C193.176 72.7553 191.776 66.0482 191.776 56.6871C191.857 38.8175 193.899 29.8906 197.921 29.8906C199.127 29.8906 200.205 30.5179 201.153 31.7886C201.877 32.7214 202.376 34.0564 202.649 35.8096C202.923 37.5628 203.084 40.6993 203.132 45.2029C205.705 39.3161 209.389 36.3726 214.15 36.3726C217.929 36.3726 220.744 37.9971 222.562 41.2461C224.524 44.7847 225.505 49.224 225.505 54.5801C225.505 62.9439 225.103 68.5091 224.283 71.2756C223.157 75.1519 221.854 77.082 220.374 77.082C219.281 77.082 218.492 76.5994 218.026 75.6344C217.543 74.6693 217.27 72.9 217.19 70.3105C216.852 61.062 216.401 54.7731 215.838 51.4597C214.97 46.3771 213.731 43.8518 212.139 43.8518C210.145 43.8518 208.15 47.1813 206.124 53.8241C205.48 55.9633 205.046 59.6305 204.821 64.8579C204.596 70.0853 204.322 73.2056 204.016 74.2189C203.856 74.8301 203.711 75.4897 203.614 76.1974C203.518 76.9051 203.357 77.5484 203.132 78.1274C202.762 79.1246 202.022 79.6072 200.896 79.6072Z" fill="white"/>
<path d="M247.123 95.0001C244.903 95.0001 242.957 94.5176 241.252 93.5686C239.563 92.6196 238.228 91.3329 237.279 89.7405C236.33 88.1482 235.848 86.395 235.848 84.5292C235.848 78.8675 238.244 74.5569 243.037 71.6135C246.174 69.6834 249.777 68.6057 253.846 68.3805C254.184 64.1986 254.345 59.5342 254.345 54.3712C252.945 58.151 251.112 61.4322 248.876 64.2147C246.093 67.6568 243.295 69.3938 240.464 69.3938C237.488 69.3938 235.188 68.7183 233.564 67.3833C231.183 65.3889 229.993 62.4132 229.993 58.4243C229.993 54.8697 230.926 51.0417 232.776 46.9402C233.95 44.3024 235.429 41.8575 237.215 39.6218C239 37.3861 240.962 35.5525 243.118 34.1532C245.53 32.5609 247.975 31.7567 250.436 31.7567C252.125 31.7567 253.798 32.1909 255.487 33.0595C256.017 31.8853 256.564 30.9685 257.127 30.3251C257.69 29.6818 258.446 29.3601 259.395 29.3601C261.02 29.3601 262.274 30.486 263.143 32.7217C265.153 37.8847 266.167 45.0905 266.167 54.339C266.167 59.6146 265.748 64.9868 264.912 70.4555C266.488 71.2758 267.711 72.3212 268.611 73.6079C269.062 74.2835 269.287 74.9108 269.287 75.506C269.287 76.1493 269.062 76.7605 268.611 77.3395C268.161 77.9185 267.566 78.2081 266.81 78.2081C266.279 78.2081 265.7 77.999 265.089 77.5808L263.706 76.6962C260.585 88.8881 255.068 95.0001 247.123 95.0001ZM241.783 61.3517C242.796 61.3517 243.922 60.3705 245.193 58.4243C246.447 56.4781 247.67 54.162 248.844 51.5081C250.018 48.8381 251.031 46.313 251.9 43.9325C252.752 41.552 253.283 39.831 253.476 38.8016C251.449 39.3645 249.551 40.796 247.782 43.0961C245.997 45.3961 244.501 47.9535 243.262 50.8004C241.638 54.5802 240.818 57.5398 240.818 59.679C240.818 60.7888 241.139 61.3517 241.783 61.3517ZM246.914 88.0678C249.809 88.0678 251.884 83.4676 253.186 74.2674C252.479 74.3479 251.707 74.4765 250.87 74.6534C249.326 74.9912 247.863 75.9241 246.495 77.4682C245.128 79.0123 244.437 81.1676 244.437 83.9502C244.437 85.3495 244.71 86.3949 245.257 87.0705C245.804 87.746 246.351 88.0678 246.914 88.0678Z" fill="white"/>
<path d="M282.958 83.8215C282.057 83.8215 281.076 83.3229 280.015 82.3096C278.953 81.2962 277.956 79.6717 277.023 77.436C274.273 70.8414 272.906 61.6412 272.906 49.8032C272.906 35.1986 274.787 23.9878 278.535 16.203C280.127 12.9218 281.865 11.2812 283.746 11.2812C284.776 11.2812 285.58 11.9408 286.143 13.2597C286.513 14.1282 286.69 15.1737 286.69 16.4121C286.69 17.3611 286.593 18.6318 286.4 20.2241C286.207 21.8165 285.998 24.0843 285.773 27.0599C285.21 33.9923 284.937 40.4421 284.937 46.4576C284.937 53.7277 285.258 62.4937 285.902 72.7877C286.014 74.5891 286.063 76.0045 286.063 77.0339C286.063 78.9157 285.789 80.5563 285.258 81.9557C284.792 83.1781 284.02 83.8215 282.958 83.8215Z" fill="white"/>
<path d="M303.24 78.4816C300.329 78.4816 298.029 77.9669 296.34 76.9214C294.651 75.892 293.461 74.4766 292.737 72.7234C292.03 70.9541 291.66 68.9919 291.66 66.8366C291.66 64.6813 292.078 62.6546 292.914 60.7728C293.751 58.8909 294.764 57.2343 295.97 55.8028C297.161 54.3713 298.319 53.2292 299.444 52.3928C298.286 52.3928 297.128 52.1355 295.954 51.6208C294.78 51.1061 293.783 50.2858 292.962 49.176C292.142 48.0662 291.74 46.6025 291.74 44.785C291.74 43.1605 292.19 41.5842 293.091 40.0723C294.893 37.0163 297.466 34.5875 300.828 32.8022C303.047 31.5958 304.945 31.0007 306.554 31.0007C307.567 31.0007 308.355 31.242 308.95 31.7084C309.706 32.3036 310.092 33.0113 310.092 33.8477C310.092 33.9924 310.044 34.3463 309.948 34.9414C309.851 35.5365 309.159 36.196 307.873 36.968C306.586 37.724 305.267 38.7534 303.916 40.0401C302.565 41.3268 301.568 42.5493 300.924 43.7074C300.651 44.2381 300.506 44.6724 300.506 45.0102C300.506 45.734 300.973 46.1039 301.889 46.1039C302.87 46.1039 304.527 45.6375 306.859 44.7207C307.454 44.5277 308.001 44.4312 308.5 44.4312C310.237 44.4312 311.283 45.3479 311.62 47.1654C311.669 47.4389 311.701 47.7606 311.701 48.0983C311.701 49.948 310.945 51.4761 309.433 52.6824C308.757 53.181 307.696 54.4034 306.232 56.3496C304.768 58.2797 303.594 60.3385 302.694 62.4938C302.163 63.9736 301.889 65.1477 301.889 65.9841C301.889 67.2226 302.549 67.8338 303.868 67.8338C304.817 67.8338 306.264 67.5282 308.194 66.9331C310.124 66.338 311.54 66.0324 312.441 66.0324C314.146 66.0324 315.014 66.8366 315.014 68.4289C315.014 69.78 314.451 71.2276 313.325 72.7556C312.038 74.557 310.51 75.9564 308.757 76.9858C307.02 77.9669 305.17 78.4816 303.24 78.4816Z" fill="white"/>
<path d="M350.77 86.974C347.424 86.974 344.641 84.4166 342.406 79.3179C340.588 75.2003 339.35 70.6967 338.706 65.8232C337.806 58.923 337.355 52.9236 337.355 47.8248C337.355 41.0694 337.854 34.4749 338.867 28.0573C336.937 28.0573 335.441 27.5104 334.412 26.4166C333.575 25.5159 333.157 24.5187 333.157 23.425C333.157 21.6557 334.187 20.2724 336.278 19.2591C337.034 18.8731 337.789 18.5514 338.529 18.3262C339.269 18.101 340.17 17.892 341.199 17.699C341.762 15.3989 342.583 13.7583 343.676 12.7772C344.77 11.796 345.896 11.2974 347.038 11.2974C348.357 11.2974 349.531 11.7316 350.544 12.5841C351.574 13.4366 352.088 14.4339 352.088 15.5919L355.16 15.5436C356.817 15.5436 358.94 15.608 361.53 15.7366C364.119 15.8653 366.645 16.2835 369.073 16.9752C370.585 17.4255 371.663 18.0528 372.306 18.8731C372.869 19.5808 373.143 20.2724 373.143 20.9801C373.143 22.7494 371.824 23.9719 369.186 24.6313C366.854 25.2264 364.023 25.5642 360.693 25.6446C357.348 25.725 354.388 26.0306 351.783 26.5292C351.783 31.0489 351.59 37.4022 351.188 45.6213C353.005 45.2514 354.437 45.0744 355.482 45.0744C358.281 45.0744 360.34 45.6856 361.659 46.9241C362.527 47.7444 362.961 48.6773 362.961 49.7389C362.961 52.6823 359.793 54.7893 353.456 56.0439L351.188 56.5103C351.188 58.8586 351.365 62.1399 351.735 66.354C352.153 71.517 352.603 75.1681 353.086 77.3395C353.568 79.4948 353.793 81.2158 353.793 82.4704C353.793 84.0949 353.552 85.253 353.086 85.9446C352.603 86.6202 351.831 86.974 350.77 86.974Z" fill="white"/>
<path d="M372.049 82.9368C370.28 82.9368 368.88 80.8458 367.851 76.6639C366.677 71.6778 366.082 65.9357 366.082 59.4537C366.082 54.2585 366.516 49.6584 367.385 45.6212C368.221 41.7771 369.572 39.863 371.422 39.863C372.596 39.863 373.722 40.5064 374.783 41.7771C375.845 43.0477 376.52 44.3988 376.81 45.8303C377.791 52.2801 378.29 62.2042 378.29 75.6024C378.29 78.0955 377.711 79.9452 376.553 81.1354C375.362 82.3417 373.867 82.9368 372.049 82.9368Z" fill="white"/>
<path d="M393.2 79.6072C391.206 79.6072 389.565 78.6743 388.278 76.7925C385.48 72.7553 384.064 66.0482 384.064 56.6871C384.145 38.8175 386.187 29.8906 390.208 29.8906C391.415 29.8906 392.492 30.5179 393.441 31.7886C394.165 32.7214 394.664 34.0564 394.937 35.8096C395.211 37.5628 395.371 40.6993 395.42 45.2029C397.993 39.3161 401.676 36.3726 406.437 36.3726C410.217 36.3726 413.032 37.9971 414.85 41.2461C416.812 44.7847 417.793 49.224 417.793 54.5801C417.793 62.9439 417.391 68.5091 416.571 71.2756C415.445 75.1519 414.142 77.082 412.662 77.082C411.568 77.082 410.78 76.5994 410.314 75.6344C409.831 74.6693 409.558 72.9 409.477 70.3105C409.14 61.062 408.689 54.7731 408.126 51.4597C407.258 46.3771 406.019 43.8518 404.427 43.8518C402.432 43.8518 400.438 47.1813 398.411 53.8241C397.768 55.9633 397.334 59.6305 397.109 64.8579C396.883 70.0853 396.626 73.2056 396.304 74.2189C396.143 74.8301 395.999 75.4897 395.902 76.1974C395.806 76.9051 395.645 77.5484 395.42 78.1274C395.066 79.1246 394.326 79.6072 393.2 79.6072Z" fill="white"/>
</svg>
