<svg xmlns="http://www.w3.org/2000/svg" width="237.541" height="83.445" viewBox="0 0 237.541 83.445">
  <path id="Union_2" data-name="Union 2" d="M-2484.272-796.181a3.675,3.675,0,0,1,1.995-2.992,58.214,58.214,0,0,0,5.843-3.419A20.377,20.377,0,0,0-2468.6-812s3.012-6.24,0-15.389h27.82s2.325,11.317-5.592,20.376-17.482,15.6-27.928,16.387q-.916.069-1.722.068C-2484.691-790.555-2484.272-796.181-2484.272-796.181Zm71.432-25.77a4.947,4.947,0,0,1-3.12-4.77,5.005,5.005,0,0,1,.571-2.43,4.813,4.813,0,0,1,1.29-1.589,20.175,20.175,0,0,0,3.929,1.62,15.645,15.645,0,0,0,4.531.66,10.528,10.528,0,0,0,5.16-1.08,3.7,3.7,0,0,0,1.92-3.48v-.959a14.9,14.9,0,0,1-6,1.08,16.115,16.115,0,0,1-5.13-.81,11.489,11.489,0,0,1-4.261-2.52,12.362,12.362,0,0,1-2.939-4.41A16.84,16.84,0,0,1-2418-847.06a15.892,15.892,0,0,1,1.171-6.359,12.1,12.1,0,0,1,3.24-4.47,13.543,13.543,0,0,1,4.919-2.64,21.167,21.167,0,0,1,6.21-.87,20.785,20.785,0,0,1,6.21.87,16.344,16.344,0,0,1,4.71,2.25,7.309,7.309,0,0,1,1.89,1.859,4.626,4.626,0,0,1,.689,2.641v21a11.765,11.765,0,0,1-1.2,5.49,11.04,11.04,0,0,1-3.271,3.84,13.954,13.954,0,0,1-4.859,2.25,23.836,23.836,0,0,1-5.97.72A20.494,20.494,0,0,1-2412.84-821.95Zm6.45-29.82a6.85,6.85,0,0,0-1.471,4.71q0,3.48,1.471,5.01a4.973,4.973,0,0,0,3.749,1.53,6.11,6.11,0,0,0,3.9-1.14V-852.7a6.033,6.033,0,0,0-1.229-.481,7.213,7.213,0,0,0-2.011-.239A5.6,5.6,0,0,0-2406.389-851.77Zm-85.47,21.09a13.387,13.387,0,0,1-3.69-1.11,6.619,6.619,0,0,1-2.4-1.89,4.323,4.323,0,0,1-.87-2.7,4.61,4.61,0,0,1,.6-2.43,6.089,6.089,0,0,1,1.44-1.65,23.963,23.963,0,0,0,3.99,1.71,16.413,16.413,0,0,0,5.189.75,6.065,6.065,0,0,0,2.85-.54,1.618,1.618,0,0,0,.99-1.44,1.507,1.507,0,0,0-.72-1.32,6.682,6.682,0,0,0-2.4-.779l-1.8-.36q-5.22-1.021-7.77-3.21a7.812,7.812,0,0,1-2.551-6.27,8.406,8.406,0,0,1,.96-4.019,8.419,8.419,0,0,1,2.7-3,13.522,13.522,0,0,1,4.17-1.859,20.464,20.464,0,0,1,5.37-.661,24.959,24.959,0,0,1,4.171.33,13.564,13.564,0,0,1,3.389.99,6.11,6.11,0,0,1,2.28,1.71,3.861,3.861,0,0,1,.841,2.49,5.112,5.112,0,0,1-.51,2.37,5.325,5.325,0,0,1-1.29,1.65,7.424,7.424,0,0,0-1.44-.63q-.96-.329-2.1-.6t-2.309-.45a14.042,14.042,0,0,0-2.13-.18,8.214,8.214,0,0,0-3.06.45,1.49,1.49,0,0,0-1.08,1.409,1.268,1.268,0,0,0,.6,1.08,6.9,6.9,0,0,0,2.28.78l1.86.42q5.759,1.319,8.19,3.63a7.867,7.867,0,0,1,2.43,5.97,8.447,8.447,0,0,1-3.42,7.141q-3.419,2.58-10.08,2.579A28.479,28.479,0,0,1-2491.86-830.68Zm134.97-.689a14.9,14.9,0,0,1-5.28-2.97,13.758,13.758,0,0,1-3.541-4.981,17.671,17.671,0,0,1-1.29-7.02,16.427,16.427,0,0,1,1.29-6.809,13.461,13.461,0,0,1,3.39-4.68,13.549,13.549,0,0,1,4.8-2.7,17.878,17.878,0,0,1,5.521-.87,16.669,16.669,0,0,1,5.79.96,13.921,13.921,0,0,1,4.5,2.64,11.744,11.744,0,0,1,2.94,4.02,12.307,12.307,0,0,1,1.049,5.1,4.1,4.1,0,0,1-1.139,3.12,5.7,5.7,0,0,1-3.18,1.38l-14.82,2.22a4.982,4.982,0,0,0,2.7,2.97,10.592,10.592,0,0,0,4.68.99,16.738,16.738,0,0,0,4.65-.63,14.8,14.8,0,0,0,3.569-1.47,5.018,5.018,0,0,1,1.62,1.679,4.3,4.3,0,0,1,.66,2.281,4.28,4.28,0,0,1-2.52,4.019,13.359,13.359,0,0,1-4.319,1.381,30.519,30.519,0,0,1-4.5.36A21.042,21.042,0,0,1-2356.889-831.37Zm2.4-22.11a5,5,0,0,0-1.71,1.23,5.1,5.1,0,0,0-.99,1.679,6.921,6.921,0,0,0-.39,1.89l10.26-1.679a4.537,4.537,0,0,0-1.32-2.4,4.419,4.419,0,0,0-3.36-1.2A5.942,5.942,0,0,0-2354.49-853.48Zm86.1,22.44a4.034,4.034,0,0,1-1.771-.72,3.465,3.465,0,0,1-1.11-1.47,6.365,6.365,0,0,1-.391-2.43v-14.16a3.349,3.349,0,0,0-1.049-2.731,4.334,4.334,0,0,0-2.85-.869,9.514,9.514,0,0,0-2.37.3,5.971,5.971,0,0,0-2.011.9v20.82a13.743,13.743,0,0,1-1.889.36,19.226,19.226,0,0,1-2.67.18,14.037,14.037,0,0,1-2.37-.18,4.031,4.031,0,0,1-1.77-.72,3.465,3.465,0,0,1-1.111-1.47,6.361,6.361,0,0,1-.39-2.43v-18a4.621,4.621,0,0,1,.69-2.64,7.27,7.27,0,0,1,1.89-1.86,17.191,17.191,0,0,1,5.13-2.34,24.513,24.513,0,0,1,6.87-.9q6.781,0,10.44,2.97a10.037,10.037,0,0,1,3.66,8.25V-831.4a13.8,13.8,0,0,1-1.89.36,19.223,19.223,0,0,1-2.67.18A14.045,14.045,0,0,1-2268.39-831.04Zm-35.22,0a4.031,4.031,0,0,1-1.77-.72,3.465,3.465,0,0,1-1.111-1.47,6.38,6.38,0,0,1-.39-2.43v-24.42q.66-.12,1.95-.33a16.165,16.165,0,0,1,2.61-.21,14.046,14.046,0,0,1,2.37.18,4.037,4.037,0,0,1,1.77.72,3.463,3.463,0,0,1,1.11,1.47,6.366,6.366,0,0,1,.39,2.43v24.42q-.659.12-1.949.33a16.277,16.277,0,0,1-2.61.21A14.037,14.037,0,0,1-2303.609-831.04Zm-25.74,0a4.034,4.034,0,0,1-1.771-.72,3.469,3.469,0,0,1-1.111-1.47,6.385,6.385,0,0,1-.39-2.43V-860.5a12.043,12.043,0,0,1,1.05-5.25,9.957,9.957,0,0,1,2.849-3.6,11.77,11.77,0,0,1,4.23-2.07,19.736,19.736,0,0,1,5.19-.661q4.44,0,6.54,1.17a4.191,4.191,0,0,1,2.1,3.991,4.53,4.53,0,0,1-.51,2.16,4.537,4.537,0,0,1-1.11,1.44q-1.139-.3-2.37-.51a17.068,17.068,0,0,0-2.85-.21,7.8,7.8,0,0,0-4.02.869,3.251,3.251,0,0,0-1.44,3.03v1.92h9.841a10.171,10.171,0,0,1,.689,1.651,6.878,6.878,0,0,1,.33,2.19,4.164,4.164,0,0,1-.93,3.03,3.368,3.368,0,0,1-2.49.93h-6.9v19.02a13.749,13.749,0,0,1-1.889.36,19.223,19.223,0,0,1-2.67.18A14.037,14.037,0,0,1-2329.349-831.04Zm-49.8,0a4.037,4.037,0,0,1-1.77-.72,3.463,3.463,0,0,1-1.11-1.47,6.366,6.366,0,0,1-.39-2.43v-34.8q.66-.12,1.949-.329a16.19,16.19,0,0,1,2.611-.211,14.149,14.149,0,0,1,2.37.18,4.038,4.038,0,0,1,1.769.72,3.46,3.46,0,0,1,1.111,1.471,6.361,6.361,0,0,1,.39,2.43v34.8q-.66.12-1.95.33a16.26,16.26,0,0,1-2.609.21A14.057,14.057,0,0,1-2379.15-831.04Zm-50.82,0a4.033,4.033,0,0,1-1.769-.72,3.448,3.448,0,0,1-1.11-1.47,6.36,6.36,0,0,1-.391-2.43v-14.16a3.348,3.348,0,0,0-1.05-2.731,4.335,4.335,0,0,0-2.85-.869,9.52,9.52,0,0,0-2.371.3,5.963,5.963,0,0,0-2.01.9v20.82a13.739,13.739,0,0,1-1.89.36,19.208,19.208,0,0,1-2.669.18,14.055,14.055,0,0,1-2.371-.18,4.038,4.038,0,0,1-1.771-.72,3.465,3.465,0,0,1-1.11-1.47,6.366,6.366,0,0,1-.39-2.43v-18a4.615,4.615,0,0,1,.69-2.64,7.271,7.271,0,0,1,1.89-1.86,17.193,17.193,0,0,1,5.129-2.34,24.52,24.52,0,0,1,6.871-.9q6.78,0,10.44,2.97a10.037,10.037,0,0,1,3.66,8.25V-831.4a13.785,13.785,0,0,1-1.891.36,19.2,19.2,0,0,1-2.669.18A14.057,14.057,0,0,1-2429.97-831.04Zm-35.219,0a4.037,4.037,0,0,1-1.771-.72,3.465,3.465,0,0,1-1.11-1.47,6.366,6.366,0,0,1-.39-2.43v-24.42q.66-.12,1.949-.33a16.186,16.186,0,0,1,2.611-.21,14.053,14.053,0,0,1,2.37.18,4.029,4.029,0,0,1,1.77.72,3.461,3.461,0,0,1,1.111,1.47,6.366,6.366,0,0,1,.39,2.43v24.42q-.66.12-1.95.33a16.26,16.26,0,0,1-2.609.21A14.054,14.054,0,0,1-2465.19-831.04Zm159.36-33.719a5.275,5.275,0,0,1-1.53-3.84,5.275,5.275,0,0,1,1.53-3.84,5.418,5.418,0,0,1,4.05-1.56,5.419,5.419,0,0,1,4.05,1.56,5.274,5.274,0,0,1,1.53,3.84,5.274,5.274,0,0,1-1.53,3.84,5.419,5.419,0,0,1-4.05,1.56A5.418,5.418,0,0,1-2305.83-864.76Zm-161.581,0a5.274,5.274,0,0,1-1.53-3.84,5.274,5.274,0,0,1,1.53-3.84,5.422,5.422,0,0,1,4.051-1.56,5.42,5.42,0,0,1,4.05,1.56,5.274,5.274,0,0,1,1.53,3.84,5.274,5.274,0,0,1-1.53,3.84,5.42,5.42,0,0,1-4.05,1.56A5.421,5.421,0,0,1-2467.41-864.76Z" transform="translate(2499 874)" fill="#604218"/>
</svg>
