<svg width="296" height="130" viewBox="0 0 296 130" fill="none" xmlns="http://www.w3.org/2000/svg">
<path d="M70.6601 20.31C70.4901 20.62 70.3601 20.86 70.2301 21.1C70.2601 21.13 70.2901 21.17 70.3201 21.2C70.5601 21.07 70.8001 20.93 71.1301 20.75C71.2801 21.37 71.4101 21.93 71.5801 22.64C71.7101 21.97 71.8001 21.48 71.9101 20.95C72.1501 21.03 72.3201 21.09 72.5701 21.17C72.4601 20.87 72.3901 20.66 72.3101 20.41C72.8001 20.28 73.2501 20.16 73.7101 20.04C73.7001 20 73.7001 19.95 73.6901 19.91C73.3001 19.81 72.9101 19.7 72.4601 19.59C72.6501 19.22 72.8201 18.91 73.0601 18.44C72.6401 18.65 72.4001 18.77 72.0601 18.94C71.9201 18.33 71.8001 17.79 71.6701 17.24C71.6401 17.25 71.6001 17.25 71.5701 17.26C71.4401 17.85 71.3001 18.43 71.1501 19.07C70.9001 18.97 70.7201 18.89 70.4701 18.79C70.5901 19.09 70.6801 19.32 70.7901 19.59C70.3301 19.7 69.9201 19.8 69.3701 19.94C69.8801 20.08 70.2501 20.19 70.6601 20.31Z" fill="#473831"/>
<path d="M16.7698 47.6799C16.5798 48.0499 16.4198 48.3599 16.1698 48.8199C16.5798 48.6099 16.8298 48.4899 17.1598 48.3199C17.2998 48.9199 17.4198 49.4599 17.5398 49.9999C17.5698 49.9899 17.6098 49.9899 17.6398 49.9799C17.7698 49.3999 17.9098 48.8199 18.0498 48.1899C18.2998 48.2899 18.4698 48.3698 18.7198 48.4698C18.5998 48.1698 18.5098 47.9499 18.4098 47.6799C18.8698 47.5699 19.2698 47.4699 19.8198 47.3399C19.2998 47.1899 18.9398 47.0799 18.5298 46.9599C18.6998 46.6499 18.8298 46.4099 18.9598 46.1699C18.9298 46.1399 18.8998 46.0999 18.8698 46.0699C18.6298 46.1999 18.3998 46.3299 18.0698 46.5199C17.9198 45.9099 17.7898 45.3599 17.6198 44.6499C17.4898 45.3099 17.3998 45.7999 17.2998 46.3199C17.0598 46.2399 16.8998 46.1799 16.6498 46.0999C16.7498 46.3999 16.8298 46.6099 16.9098 46.8499C16.4198 46.9799 15.9798 47.0998 15.5298 47.2198C15.5398 47.2598 15.5398 47.3099 15.5498 47.3499C15.9398 47.4599 16.3298 47.5599 16.7698 47.6799Z" fill="#473831"/>
<path d="M16.26 17.8298C16.48 17.8898 16.7 17.9498 16.95 18.0098C16.84 18.2198 16.75 18.3898 16.61 18.6598C16.85 18.5398 16.98 18.4698 17.17 18.3798C17.25 18.7198 17.32 19.0298 17.39 19.3398C17.41 19.3398 17.43 19.3298 17.45 19.3298C17.53 18.9998 17.6 18.6698 17.68 18.3098C17.82 18.3698 17.92 18.4098 18.06 18.4698C17.99 18.2998 17.94 18.1698 17.88 18.0198C18.14 17.9598 18.37 17.8998 18.68 17.8198C18.39 17.7298 18.18 17.6698 17.95 17.6098C18.05 17.4298 18.12 17.2998 18.19 17.1598C18.17 17.1398 18.16 17.1198 18.14 17.0998C18.01 17.1698 17.87 17.2498 17.68 17.3498C17.6 16.9998 17.52 16.6898 17.43 16.2898C17.36 16.6598 17.3 16.9398 17.25 17.2398C17.11 17.1898 17.02 17.1598 16.88 17.1098C16.94 17.2798 16.98 17.3998 17.03 17.5398C16.75 17.6098 16.5 17.6798 16.25 17.7498C16.25 17.7798 16.25 17.7998 16.26 17.8298Z" fill="#473831"/>
<path d="M43.0598 21.51C43.2798 21.57 43.4998 21.63 43.7498 21.69C43.6398 21.9 43.5498 22.07 43.4098 22.34C43.6498 22.22 43.7798 22.15 43.9698 22.06C44.0498 22.4 44.1198 22.71 44.1898 23.02C44.2098 23.02 44.2298 23.01 44.2498 23.01C44.3298 22.68 44.3998 22.35 44.4798 21.99C44.6198 22.05 44.7198 22.09 44.8598 22.15C44.7898 21.98 44.7398 21.86 44.6798 21.7C44.9398 21.64 45.1698 21.58 45.4798 21.5C45.1898 21.41 44.9798 21.35 44.7498 21.29C44.8498 21.11 44.9198 20.98 44.9898 20.84C44.9698 20.82 44.9598 20.8 44.9398 20.78C44.8098 20.85 44.6698 20.93 44.4798 21.03C44.3998 20.68 44.3198 20.37 44.2298 19.97C44.1598 20.34 44.0998 20.62 44.0498 20.92C43.9098 20.87 43.8198 20.84 43.6798 20.79C43.7398 20.96 43.7798 21.08 43.8298 21.22C43.5498 21.29 43.2998 21.36 43.0498 21.43C43.0598 21.46 43.0598 21.48 43.0598 21.51Z" fill="#473831"/>
<path d="M85.3 29.2299C85.52 29.2899 85.74 29.3499 85.99 29.4099C85.88 29.6199 85.79 29.7899 85.65 30.0599C85.89 29.9399 86.02 29.87 86.21 29.78C86.29 30.12 86.36 30.4299 86.43 30.7399C86.45 30.7399 86.47 30.7299 86.49 30.7299C86.57 30.3999 86.64 30.07 86.72 29.71C86.86 29.77 86.96 29.8099 87.1 29.8699C87.03 29.6999 86.98 29.5699 86.92 29.4199C87.18 29.3599 87.41 29.2999 87.72 29.2199C87.43 29.1299 87.22 29.0699 86.99 29.0099C87.09 28.8299 87.16 28.6999 87.23 28.5599C87.21 28.5399 87.2 28.5199 87.18 28.4999C87.05 28.5699 86.91 28.6499 86.72 28.7499C86.64 28.3999 86.56 28.0899 86.47 27.6899C86.4 28.0599 86.34 28.34 86.29 28.64C86.15 28.59 86.06 28.5599 85.92 28.5099C85.98 28.6799 86.02 28.7999 86.07 28.9399C85.79 29.0099 85.54 29.08 85.29 29.15C85.29 29.18 85.29 29.1999 85.3 29.2299Z" fill="#473831"/>
<path d="M43.49 49.5C43.38 49.71 43.29 49.88 43.15 50.15C43.39 50.03 43.52 49.96 43.71 49.87C43.79 50.21 43.86 50.52 43.93 50.83C43.95 50.83 43.97 50.82 43.99 50.82C44.07 50.49 44.14 50.16 44.22 49.8C44.36 49.86 44.46 49.9 44.6 49.96C44.53 49.79 44.48 49.66 44.42 49.51C44.68 49.45 44.91 49.39 45.22 49.31C44.93 49.22 44.72 49.16 44.49 49.1C44.59 48.92 44.66 48.79 44.73 48.65C44.71 48.63 44.7 48.61 44.68 48.59C44.55 48.66 44.41 48.74 44.22 48.84C44.14 48.49 44.06 48.18 43.97 47.78C43.9 48.15 43.84 48.43 43.79 48.73C43.65 48.68 43.56 48.65 43.42 48.6C43.48 48.77 43.52 48.89 43.57 49.03C43.29 49.1 43.04 49.17 42.79 49.24C42.79 49.26 42.8 49.29 42.8 49.31C43.02 49.38 43.24 49.44 43.49 49.5Z" fill="#473831"/>
<path d="M78.7798 46.6498C78.7898 46.6598 78.7998 46.6698 78.8098 46.6798C79.0798 46.4598 79.3598 46.2298 79.6498 45.9898C79.7998 46.9198 79.9398 47.8198 80.0798 48.7198C80.0898 48.7198 80.0998 48.7198 80.1098 48.7198C80.2398 47.8098 80.3798 46.9098 80.5098 45.9698C80.8198 46.2198 81.0998 46.4398 81.3898 46.6698C81.3998 46.6598 81.4098 46.6498 81.4098 46.6398C81.2098 46.3198 81.0198 45.9898 80.8098 45.6498C81.6098 45.4798 82.3798 45.3198 83.1498 45.1498C83.1498 45.1398 83.1498 45.1298 83.1498 45.1198C82.3698 44.9598 81.5898 44.8098 80.7898 44.6498C81.0098 44.2898 81.2098 43.9598 81.4098 43.6298C81.3998 43.6198 81.3898 43.6098 81.3798 43.5998C81.0898 43.8298 80.7998 44.0598 80.4998 44.2898C80.3598 43.3598 80.2298 42.4598 80.0998 41.5698C80.0898 41.5698 80.0798 41.5698 80.0698 41.5698C79.9298 42.4698 79.7798 43.3698 79.6398 44.2998C79.3398 44.0598 79.0698 43.8298 78.7998 43.5998C78.7898 43.6098 78.7798 43.6198 78.7798 43.6298C78.9798 43.9598 79.1698 44.2998 79.3798 44.6498C78.5898 44.8098 77.8198 44.9698 77.0498 45.1198C77.0498 45.1298 77.0498 45.1398 77.0498 45.1598C77.8098 45.3298 78.5798 45.4998 79.3698 45.6698C79.1598 46.0098 78.9698 46.3298 78.7798 46.6498Z" fill="#473831"/>
<path d="M28.7098 40.5298C32.5798 42.1198 36.6298 40.5498 38.0398 37.6398C36.1298 38.8598 34.4798 39.7098 32.3298 38.8998C30.2498 38.1198 28.1998 36.5398 27.5098 34.3498C26.9198 32.4898 27.4798 30.2998 28.3698 28.5898C29.4898 26.4198 31.5298 25.7898 33.8798 25.3998C31.0598 24.3498 25.7598 24.7698 23.6298 29.6398C21.8098 33.7798 24.4798 38.7898 28.7098 40.5298Z" fill="#473831"/>
<path d="M54.4198 38.6199C54.4298 38.6299 54.4398 38.64 54.4498 38.65C54.7898 38.38 55.1198 38.0999 55.4698 37.8099C55.6498 38.9499 55.8198 40.04 55.9998 41.14C56.0098 41.14 56.0198 41.14 56.0398 41.14C56.1998 40.04 56.3598 38.9299 56.5298 37.7899C56.8998 38.0899 57.2498 38.37 57.5998 38.65C57.6098 38.64 57.6198 38.6299 57.6298 38.6099C57.3898 38.2099 57.1498 37.82 56.8998 37.4C57.8698 37.19 58.8098 36.9899 59.7598 36.7899C59.7598 36.7799 59.7598 36.7599 59.7598 36.7499C58.8098 36.5599 57.8598 36.3699 56.8798 36.1699C57.1398 35.7299 57.3898 35.3299 57.6298 34.9299C57.6198 34.9199 57.6098 34.91 57.5998 34.89C57.2498 35.17 56.8898 35.4499 56.5298 35.7299C56.3598 34.5899 56.1998 33.4999 56.0398 32.4099C56.0298 32.4099 56.0098 32.4099 55.9998 32.4099C55.8298 33.5099 55.6498 34.6099 55.4698 35.7299C55.1098 35.4299 54.7798 35.1599 54.4398 34.8799C54.4298 34.8899 54.4198 34.8999 54.4098 34.9099C54.6498 35.3199 54.8898 35.7299 55.1398 36.1599C54.1698 36.3599 53.2398 36.5399 52.2998 36.7299C52.2998 36.7399 52.2998 36.76 52.2998 36.77C53.2298 36.97 54.1598 37.18 55.1198 37.39C54.8798 37.84 54.6498 38.2299 54.4198 38.6199Z" fill="#473831"/>
<path d="M23.1699 125.89C23.6199 127.14 24.0599 128.39 24.5099 129.64C25.2199 129.46 25.9399 129.29 26.6499 129.11C26.5799 127.76 26.5099 126.4 26.4399 125.05C25.3499 125.33 24.2599 125.61 23.1699 125.89Z" fill="#473831"/>
<path d="M77.4299 124.87C76.5499 125.19 75.5199 126.34 75.4399 127.21C75.3699 127.93 76.5999 128.77 77.2499 129.56C78.0899 128.81 78.9299 128.07 80.2899 126.86C78.9599 125.9 77.9499 124.69 77.4299 124.87Z" fill="#473831"/>
<path d="M80.5699 4.65991C80.1199 3.40991 79.6799 2.15991 79.2299 0.909912C78.5199 1.08991 77.7998 1.25991 77.0898 1.43991C77.1598 2.78991 77.2298 4.14991 77.2998 5.49991C78.3898 5.20991 79.4799 4.92991 80.5699 4.65991Z" fill="#473831"/>
<path d="M26.3097 5.66998C27.1897 5.34998 28.2197 4.19996 28.2997 3.32996C28.3697 2.60996 27.1397 1.76998 26.4897 0.97998C25.6497 1.72998 24.8097 2.46996 23.4497 3.67996C24.7797 4.64996 25.7897 5.85998 26.3097 5.66998Z" fill="#473831"/>
<path d="M5.19989 52.2299C4.91989 51.1399 4.63986 50.05 4.35986 48.96C3.10986 49.41 1.85986 49.8499 0.609863 50.2999C0.789863 51.0099 0.959893 51.7299 1.13989 52.4399C2.48989 52.3699 3.84989 52.2999 5.19989 52.2299Z" fill="#473831"/>
<path d="M3.03995 101.23C2.31995 101.16 1.47994 102.39 0.689941 103.04C0.919941 103.29 1.14995 103.55 1.38995 103.82L2.22995 104.77C2.56995 105.16 2.93995 105.57 3.38995 106.08C4.35995 104.76 5.56994 103.74 5.37994 103.23C5.05994 102.34 3.91995 101.31 3.03995 101.23Z" fill="#473831"/>
<path d="M96.3001 94.4899C95.9701 85.9199 95.2701 77.3499 95.2001 68.7799C95.1601 63.1499 96.0601 57.5299 96.3501 51.8899C96.6201 46.5599 96.7401 16.4199 96.7101 11.0899C96.7101 10.7299 96.5701 10.3599 96.3701 9.99991L96.6501 8.69992C95.6501 8.14992 94.6401 7.13991 93.6401 7.12991C88.3101 7.09991 82.9701 7.2099 77.6401 7.4899C72.0001 7.7799 66.3801 8.67992 60.7501 8.63992C52.1801 8.56992 43.6101 7.86992 35.0401 7.53992C27.2001 7.23992 19.3601 7.0199 11.5101 6.8999C11.2501 6.8999 10.9901 6.91992 10.7201 6.97992C9.88011 7.13992 8.9501 7.5199 7.8401 7.8999C7.7301 7.9399 7.6701 7.99989 7.6201 8.0799H7.61009C7.06009 9.0799 6.8401 10.0899 6.8401 11.0899C6.8101 16.4199 6.92012 46.5599 7.20012 51.8899C7.49012 57.5299 8.39011 63.1499 8.35011 68.7799C8.32011 72.9599 8.13011 77.1399 7.91011 81.3199V81.3599C7.89011 81.3599 7.8801 81.3599 7.8701 81.3599V82.1999C7.6501 86.2899 7.41011 90.3899 7.25011 94.4899C6.95011 102.33 6.73009 110.17 6.61009 118.02C6.60009 118.86 6.92011 119.72 7.32011 120.81C7.24011 121.16 7.1701 121.51 7.0901 121.86C7.3201 121.99 7.55011 122.14 7.79011 122.3C7.80011 122.31 7.82009 122.32 7.83009 122.33C7.84009 122.37 7.8601 122.41 7.8701 122.45C7.8901 122.43 7.90012 122.41 7.92012 122.39C7.98012 122.43 8.0301 122.47 8.0901 122.51C8.1301 122.54 8.1701 122.57 8.2101 122.59C8.2201 122.6 8.24011 122.61 8.25011 122.62C8.35011 122.69 8.45009 122.76 8.55009 122.82C8.59009 122.85 8.63012 122.87 8.67012 122.89C8.75012 122.94 8.83011 122.99 8.91011 123.03C8.95011 123.06 9.00011 123.08 9.04011 123.1C9.11011 123.14 9.19012 123.18 9.26012 123.21C9.30012 123.23 9.35012 123.25 9.39012 123.27C9.47012 123.3 9.55011 123.33 9.63011 123.35C9.67011 123.36 9.71011 123.37 9.75011 123.38C9.87011 123.41 9.98011 123.42 10.1001 123.42C15.4301 123.45 20.7701 123.34 26.1001 123.06C31.7401 122.77 37.3601 121.87 42.9901 121.91C51.5601 121.98 60.1301 122.68 68.7001 123.01C76.5401 123.31 84.3801 123.53 92.2301 123.65C92.4301 123.65 92.6401 123.63 92.8401 123.6C92.8901 123.59 92.9501 123.58 93.0001 123.57C93.1901 123.53 93.3701 123.49 93.5701 123.43C93.5901 123.42 93.6101 123.42 93.6301 123.41C93.8501 123.34 94.0901 123.26 94.3301 123.18C94.4201 123.15 94.5201 123.11 94.6201 123.08C95.2101 122.87 95.8801 122.62 96.6501 122.39C96.3701 122.17 96.1301 121.95 95.9001 121.74C96.4201 120.17 96.9501 119.09 96.9301 118.02C96.8201 110.17 96.6001 102.33 96.3001 94.4899ZM93.5001 115.28C92.3701 114.96 91.5601 114.4 90.6801 113.79C89.2901 112.82 87.7101 111.71 84.6901 111.71C81.6701 111.71 80.0901 112.85 78.6901 113.86C77.3301 114.85 76.1501 115.7 73.6701 115.7C71.1801 115.7 70.0101 114.84 68.6501 113.85C67.2601 112.83 65.6801 111.68 62.6501 111.68C59.6301 111.68 58.0601 112.78 56.6701 113.75C55.3101 114.7 54.1301 115.52 51.6301 115.52C49.1301 115.52 47.9601 114.71 46.5901 113.76C45.2001 112.8 43.6201 111.71 40.6101 111.71C37.5801 111.71 36.0001 112.91 34.6001 113.96C33.2401 114.99 32.0701 115.88 29.5901 115.88C27.1501 115.88 25.9901 114.83 24.6401 113.6C23.2401 112.33 21.6501 110.9 18.5701 110.9C15.4901 110.9 13.9001 112.35 12.5001 113.63C11.7201 114.34 10.9901 115 10.0501 115.42C10.0501 113.76 10.0601 112.04 10.0601 110.26C11.6101 109.74 12.6601 108.8 13.6201 107.93C14.9701 106.7 16.1401 105.63 18.5701 105.63C21.0101 105.63 22.1701 106.68 23.5201 107.9C24.9201 109.17 26.5101 110.6 29.5901 110.6C32.6201 110.6 34.2101 109.4 35.6001 108.35C36.9601 107.32 38.1301 106.43 40.6101 106.43C43.1101 106.43 44.2801 107.24 45.6501 108.19C47.0401 109.15 48.6201 110.24 51.6301 110.24C54.6501 110.24 56.2201 109.14 57.6201 108.17C58.9801 107.22 60.1601 106.4 62.6501 106.4C65.1401 106.4 66.3101 107.26 67.6701 108.25C69.0601 109.26 70.6401 110.42 73.6701 110.42C76.6901 110.42 78.2701 109.28 79.6701 108.27C81.0301 107.29 82.2101 106.43 84.6901 106.43C87.1901 106.43 88.3601 107.25 89.7301 108.21C90.7301 108.91 91.8301 109.67 93.4801 110.04C93.4901 111.86 93.4901 113.6 93.5001 115.28ZM93.4801 108.35C92.3601 108.03 91.5601 107.47 90.6801 106.86C89.2901 105.89 87.7101 104.78 84.6901 104.78C81.6701 104.78 80.0901 105.92 78.6901 106.93C77.3301 107.92 76.1501 108.77 73.6701 108.77C71.1801 108.77 70.0101 107.91 68.6501 106.92C67.2601 105.91 65.6801 104.75 62.6501 104.75C59.6301 104.75 58.0601 105.85 56.6701 106.82C55.3101 107.77 54.1301 108.59 51.6301 108.59C49.1301 108.59 47.9601 107.78 46.5901 106.83C45.2001 105.87 43.6201 104.78 40.6101 104.78C37.5801 104.78 36.0001 105.98 34.6001 107.03C33.2401 108.06 32.0701 108.95 29.5901 108.95C27.1501 108.95 25.9901 107.9 24.6401 106.68C23.2401 105.41 21.6501 103.98 18.5701 103.98C15.4901 103.98 13.9001 105.43 12.5001 106.71C11.7201 107.42 11.0001 108.07 10.0601 108.5C10.0601 106.83 10.0701 105.11 10.0701 103.35C11.6101 102.83 12.6601 101.89 13.6201 101.02C14.9701 99.7899 16.1401 98.7199 18.5701 98.7199C21.0101 98.7199 22.1701 99.7699 23.5201 100.99C24.9201 102.26 26.5101 103.69 29.5901 103.69C32.6201 103.69 34.2101 102.49 35.6001 101.44C36.9601 100.41 38.1301 99.5199 40.6101 99.5199C43.1101 99.5199 44.2801 100.33 45.6501 101.28C47.0401 102.24 48.6201 103.33 51.6301 103.33C54.6501 103.33 56.2201 102.23 57.6201 101.26C58.9801 100.31 60.1601 99.4899 62.6501 99.4899C65.1401 99.4899 66.3101 100.35 67.6701 101.34C69.0601 102.36 70.6401 103.51 73.6701 103.51C76.6901 103.51 78.2701 102.37 79.6701 101.36C81.0301 100.38 82.2101 99.5199 84.6901 99.5199C87.1901 99.5199 88.3601 100.34 89.7301 101.3C90.7301 102 91.8301 102.75 93.4701 103.13C93.4801 104.91 93.4801 106.66 93.4801 108.35ZM93.4701 101.43C92.3601 101.11 91.5501 100.55 90.6801 99.9399C89.2901 98.9699 87.7101 97.8599 84.6901 97.8599C81.6701 97.8599 80.0901 98.9999 78.6901 100.01C77.3301 101 76.1501 101.85 73.6701 101.85C71.1801 101.85 70.0101 100.99 68.6501 99.9999C67.2601 98.9799 65.6801 97.8299 62.6501 97.8299C59.6301 97.8299 58.0601 98.9299 56.6701 99.8999C55.3101 100.85 54.1301 101.67 51.6301 101.67C49.1301 101.67 47.9601 100.86 46.5901 99.9099C45.2001 98.9499 43.6201 97.8599 40.6101 97.8599C37.5801 97.8599 36.0001 99.0599 34.6001 100.11C33.2401 101.14 32.0701 102.03 29.5901 102.03C27.1501 102.03 25.9901 100.98 24.6401 99.7499C23.2401 98.4799 21.6501 97.0499 18.5701 97.0499C15.4901 97.0499 13.9001 98.4999 12.5001 99.7799C11.7201 100.49 11.0001 101.13 10.0701 101.56C10.0701 99.8799 10.0701 98.1499 10.0801 96.4099C11.6101 95.8899 12.6701 94.9499 13.6201 94.0799C14.9701 92.8499 16.1401 91.7799 18.5701 91.7799C21.0101 91.7799 22.1701 92.8299 23.5201 94.0499C24.9201 95.3199 26.5101 96.7499 29.5901 96.7499C32.6201 96.7499 34.2101 95.5499 35.6001 94.4999C36.9601 93.4699 38.1301 92.5799 40.6101 92.5799C43.1101 92.5799 44.2801 93.3899 45.6501 94.3399C47.0401 95.2999 48.6201 96.3899 51.6301 96.3899C54.6501 96.3899 56.2201 95.2899 57.6201 94.3199C58.9801 93.3699 60.1601 92.5499 62.6501 92.5499C65.1401 92.5499 66.3101 93.4099 67.6701 94.3999C69.0601 95.4099 70.6401 96.5699 73.6701 96.5699C76.6901 96.5699 78.2701 95.4299 79.6701 94.4199C81.0301 93.4399 82.2101 92.5799 84.6901 92.5799C87.1901 92.5799 88.3601 93.3999 89.7301 94.3599C90.7201 95.0499 91.8201 95.8099 93.4601 96.1899C93.4701 97.9699 93.4701 99.7199 93.4701 101.43ZM93.4601 94.4999C92.3501 94.1799 91.5501 93.6299 90.6801 93.0199C89.2901 92.0499 87.7101 90.9399 84.6901 90.9399C81.6701 90.9399 80.0901 92.0799 78.6901 93.0899C77.3301 94.0799 76.1501 94.9299 73.6701 94.9299C71.1801 94.9299 70.0101 94.0699 68.6501 93.0799C67.2601 92.0699 65.6801 90.9099 62.6501 90.9099C59.6301 90.9099 58.0601 92.0099 56.6701 92.9799C55.3101 93.9299 54.1301 94.7499 51.6301 94.7499C49.1301 94.7499 47.9601 93.9399 46.5901 92.9899C45.2001 92.0299 43.6201 90.9399 40.6101 90.9399C37.5801 90.9399 36.0001 92.1399 34.6001 93.1899C33.2401 94.2199 32.0701 95.1099 29.5901 95.1099C27.1501 95.1099 25.9901 94.0599 24.6401 92.8399C23.2401 91.5699 21.6501 90.1399 18.5701 90.1399C15.4901 90.1399 13.9001 91.5899 12.5001 92.8699C11.7301 93.5799 11.0101 94.2199 10.0801 94.6499C10.0801 92.9599 10.0801 91.2399 10.0901 89.4999C11.6201 88.9799 12.6701 88.0399 13.6201 87.1699C14.9701 85.9399 16.1401 84.8699 18.5701 84.8699C21.0101 84.8699 22.1701 85.9199 23.5201 87.1399C24.9201 88.4099 26.5101 89.8399 29.5901 89.8399C32.6201 89.8399 34.2101 88.6399 35.6001 87.5899C36.9601 86.5599 38.1301 85.6699 40.6101 85.6699C43.1101 85.6699 44.2801 86.4799 45.6501 87.4299C47.0401 88.3899 48.6201 89.4799 51.6301 89.4799C54.6501 89.4799 56.2201 88.3799 57.6201 87.4099C58.9801 86.4599 60.1601 85.6399 62.6501 85.6399C65.1401 85.6399 66.3101 86.4999 67.6701 87.4899C69.0601 88.5099 70.6401 89.6599 73.6701 89.6599C76.6901 89.6599 78.2701 88.5199 79.6701 87.5099C81.0301 86.5299 82.2101 85.6699 84.6901 85.6699C87.1901 85.6699 88.3601 86.4899 89.7301 87.4499C90.7201 88.1399 91.8201 88.8999 93.4601 89.2699C93.4601 91.0399 93.4601 92.7799 93.4601 94.4999ZM27.1901 58.2299C27.0201 57.2899 26.0501 56.7599 25.0301 56.1899C24.0801 55.6699 23.1001 55.1299 22.9501 54.3399C22.8401 53.7699 23.1501 53.0199 23.8901 52.1299C25.9201 49.6399 26.8101 50.3099 30.1601 52.7899L31.1201 53.4999C34.6101 56.0499 37.8701 57.9699 40.8201 59.4299C36.4301 61.2099 31.2201 63.6699 26.0901 66.0999C24.7201 66.7499 23.3701 67.3899 22.0601 67.9999C21.5901 65.8599 24.4001 62.5599 26.4901 60.1099C27.0601 59.4299 27.2901 58.8099 27.1901 58.2299ZM70.2601 48.9099C79.8801 52.2499 87.6201 55.4299 93.4401 58.4199C93.4401 62.1999 93.4401 65.9999 93.4401 69.7799C88.6201 67.4899 86.1901 66.8699 85.0701 66.5899C84.6301 66.4799 84.1201 66.3899 83.7201 66.4899C81.0501 66.3199 77.7301 68.3099 74.1501 70.6599C72.6801 69.5599 71.2901 68.5499 69.9801 67.6199C81.1101 65.8199 84.6401 65.0899 85.0501 64.0899C86.2701 61.1399 75.8001 52.9699 70.2601 48.9099ZM93.4501 80.7499C92.2701 80.4499 91.6601 79.8499 90.6801 79.1699C89.7301 78.5099 88.6801 77.7899 87.1501 77.3999C87.4201 77.2199 87.6401 76.9999 87.7901 76.7299C88.6501 75.1099 86.9801 72.5399 85.5001 70.2699C84.8501 69.2699 83.8601 67.7499 83.9201 67.4299C83.9201 67.4299 84.1001 67.3299 84.8401 67.5199C85.9601 67.7999 88.4301 68.4299 93.4401 70.8399C93.4401 74.1599 93.4501 77.4699 93.4501 80.7499ZM73.3201 71.2199C69.9001 73.4799 66.2701 75.9299 62.7501 77.0699C62.7101 77.0699 62.6801 77.0699 62.6501 77.0699C59.6301 77.0699 58.0601 78.1699 56.6701 79.1399C55.4901 79.9599 54.4401 80.6899 52.5601 80.8699C52.3401 80.8799 52.1101 80.8899 51.8501 80.8899C53.1401 80.0799 53.7001 79.2999 53.6001 78.4899C53.3601 76.4899 49.2201 75.4899 42.9201 74.1899C40.5901 73.7099 38.3901 73.2599 37.2301 72.7899C31.8701 70.6299 30.7501 68.9299 30.7501 67.8899C30.7601 65.3599 36.7201 63.0299 41.9701 60.9699C44.5201 59.9699 46.9201 59.0299 48.6701 58.0699C50.1801 57.2499 57.0601 59.1299 73.3201 71.2199ZM13.5801 80.2899C14.9301 79.0599 16.1001 77.9899 18.5301 77.9899C20.9701 77.9899 22.1301 79.0399 23.4801 80.2599C24.8801 81.5299 26.4701 82.9599 29.5501 82.9599C32.5801 82.9599 34.1701 81.7599 35.5601 80.7099C36.9201 79.6799 38.0901 78.7899 40.5701 78.7899C43.0701 78.7899 44.2401 79.5999 45.6101 80.5499C47.0001 81.5099 48.5801 82.5999 51.5901 82.5999C54.6101 82.5999 56.1801 81.4999 57.5801 80.5299C58.9401 79.5799 60.1201 78.7599 62.6101 78.7599C63.1101 78.7599 63.5501 78.7999 63.9601 78.8699C64.1601 78.9299 64.3501 78.9899 64.5501 79.0499C64.8001 79.1299 65.0501 79.1999 65.3001 79.2699C66.1501 79.6899 67.0001 80.2199 67.7801 80.7199C69.1401 81.7099 70.7101 82.7799 73.6401 82.7799C76.6601 82.7799 78.2401 81.6399 79.6401 80.6299C81.0001 79.6399 82.1801 78.7899 84.6601 78.7899C84.7201 78.7899 84.7801 78.7999 84.8401 78.7999C86.5601 78.8299 87.6501 79.2599 88.6301 79.8599C88.9901 80.0799 89.3401 80.3199 89.7001 80.5699C90.7901 81.3299 91.6801 82.1699 93.4601 82.4899C93.4601 84.1999 93.4601 85.8899 93.4601 87.5699C92.3501 87.2499 91.5601 86.6999 90.6901 86.0899C89.3001 85.1199 87.7201 84.0099 84.7001 84.0099C81.6801 84.0099 80.1001 85.1499 78.7001 86.1599C77.3401 87.1499 76.1601 87.9999 73.6801 87.9999C71.1901 87.9999 70.0201 87.1399 68.6601 86.1499C67.2701 85.1299 65.6901 83.9799 62.6601 83.9799C59.6401 83.9799 58.0701 85.0799 56.6801 86.0499C55.3201 86.9999 54.1401 87.8199 51.6401 87.8199C49.1401 87.8199 47.9701 87.0099 46.6001 86.0599C45.2101 85.0999 43.6301 84.0099 40.6201 84.0099C37.5901 84.0099 36.0101 85.2099 34.6101 86.2599C33.2501 87.2899 32.0801 88.1799 29.6001 88.1799C27.1601 88.1799 26.0001 87.1299 24.6501 85.8999C23.2501 84.6299 21.6601 83.1999 18.5801 83.1999C15.5001 83.1999 13.9101 84.6499 12.5101 85.9299C11.7401 86.6299 11.0201 87.2799 10.1001 87.6999C10.1001 86.0399 10.1001 84.3599 10.1001 82.6699C11.6501 82.1899 12.5801 81.1999 13.5801 80.2899ZM93.4401 10.3999C93.4401 23.0499 93.4401 39.9499 93.4401 57.3399C87.2601 54.1899 80.2501 51.4799 75.0201 49.5899L67.7701 46.4499L67.2901 46.2399L67.0201 46.3399L55.1101 51.0199C51.1501 52.5999 47.1801 54.1699 43.2401 55.7899C41.8501 56.3499 40.4501 56.8999 39.0501 57.4499C36.7401 56.1899 34.2701 54.6499 31.6601 52.7399L30.7101 52.0299C27.4401 49.5999 25.7801 48.3799 23.2201 51.4499C18.7501 55.6499 14.1301 59.5199 10.1001 62.8299C10.1101 43.5099 10.1001 24.3199 10.1001 10.3299C37.8801 10.4099 65.6601 10.3999 93.4401 10.3999ZM9.88011 120.15C9.93011 120.07 9.9701 119.99 9.9901 119.92C10.0201 119.84 10.0401 119.75 10.0401 119.66C10.0401 118.87 10.0401 118.05 10.0501 117.21C11.6001 116.69 12.6701 115.75 13.6301 114.87C14.9801 113.64 16.1501 112.57 18.5801 112.57C21.0201 112.57 22.1801 113.62 23.5301 114.84C24.9301 116.11 26.5201 117.54 29.6001 117.54C32.6301 117.54 34.2201 116.34 35.6101 115.29C36.9701 114.26 38.1401 113.37 40.6201 113.37C43.1201 113.37 44.2901 114.18 45.6601 115.13C47.0501 116.09 48.6301 117.18 51.6401 117.18C54.6601 117.18 56.2301 116.08 57.6301 115.11C58.9901 114.16 60.1701 113.34 62.6601 113.34C65.1501 113.34 66.3201 114.2 67.6801 115.19C69.0701 116.21 70.6501 117.36 73.6801 117.36C76.7001 117.36 78.2801 116.22 79.6801 115.21C81.0401 114.23 82.2201 113.37 84.7001 113.37C87.2001 113.37 88.3701 114.19 89.7401 115.15C90.7401 115.85 91.8501 116.61 93.5101 116.99C93.5101 117.9 93.5101 118.79 93.5201 119.66C93.5201 119.84 93.5901 120.03 93.7201 120.22C65.7601 120.14 37.8201 120.15 9.88011 120.15Z" fill="#473831"/>
<path d="M102.93 50.2999C101.68 49.8499 100.43 49.41 99.1798 48.96C98.8998 50.05 98.6198 51.1399 98.3398 52.2299C99.6898 52.2999 101.05 52.3699 102.4 52.4399C102.58 51.7199 102.76 51.0099 102.93 50.2999Z" fill="#473831"/>
<path d="M100.51 101.23C99.6298 101.31 98.4798 102.34 98.1698 103.22C97.9798 103.73 99.1898 104.75 100.16 106.07C101.37 104.71 102.11 103.87 102.86 103.03C102.07 102.39 101.23 101.17 100.51 101.23Z" fill="#473831"/>
<path d="M201.48 92.77H199V91.55H205.33V92.77H202.85V102.75H201.47V92.77H201.48Z" fill="#473831"/>
<path d="M214.91 101.19C214.91 101.69 214.95 102.45 214.98 102.74H213.74C213.7 102.56 213.66 102.12 213.66 101.82C213.35 102.48 212.73 102.89 211.69 102.89C210.08 102.89 209.49 101.62 209.49 100.45C209.49 98.88 210.56 97.75 212.75 97.75C213.12 97.75 213.35 97.75 213.59 97.78V96.7C213.59 96.08 213.48 95.3 212.4 95.3C211.25 95.3 211.17 96.11 211.12 96.67H209.82C209.85 95.46 210.43 94.21 212.45 94.21C214.12 94.21 214.93 95.01 214.93 96.57V101.19H214.91ZM213.61 98.82C213.4 98.79 213.18 98.78 212.82 98.78C211.4 98.78 210.83 99.46 210.83 100.34C210.83 101.06 211.21 101.75 212.07 101.75C213.25 101.75 213.61 100.91 213.61 99.24V98.82Z" fill="#473831"/>
<path d="M227.02 102.18C227.02 104.42 226.46 105.95 224.02 105.95C221.81 105.95 221.33 104.54 221.28 103.61H222.64C222.67 104.03 222.91 104.81 224.06 104.81C225.4 104.81 225.67 103.83 225.67 102.18V101.49C225.37 102.31 224.67 102.72 223.75 102.72C222.04 102.72 221.21 101.26 221.21 98.65C221.21 95.65 222.31 94.21 223.93 94.21C225.06 94.21 225.52 94.76 225.67 95.27C225.67 94.92 225.71 94.53 225.73 94.35H227.03C227.01 94.8 227.01 95.65 227.01 96.79V102.18H227.02ZM222.61 98.61C222.61 100.59 223.14 101.53 224.14 101.53C225.38 101.53 225.7 100.31 225.7 98.39C225.7 96.5 225.47 95.38 224.23 95.38C223.18 95.39 222.61 96.49 222.61 98.61Z" fill="#473831"/>
<path d="M235.1 91V95.32C235.4 94.66 236.02 94.19 237.09 94.19C238.35 94.19 239.2 94.99 239.2 96.77V102.74H237.84V97.05C237.84 96.06 237.57 95.39 236.58 95.39C235.48 95.39 235.1 96.28 235.1 97.68V102.75H233.74V91.01H235.1V91Z" fill="#473831"/>
<path d="M250.77 101.19C250.77 101.69 250.81 102.45 250.84 102.74H249.6C249.56 102.56 249.52 102.12 249.52 101.82C249.21 102.48 248.59 102.89 247.55 102.89C245.94 102.89 245.35 101.62 245.35 100.45C245.35 98.88 246.42 97.75 248.61 97.75C248.98 97.75 249.21 97.75 249.45 97.78V96.7C249.45 96.08 249.34 95.3 248.26 95.3C247.11 95.3 247.03 96.11 246.98 96.67H245.68C245.71 95.46 246.29 94.21 248.31 94.21C249.98 94.21 250.79 95.01 250.79 96.57V101.19H250.77ZM249.48 98.82C249.27 98.79 249.05 98.78 248.69 98.78C247.27 98.78 246.7 99.46 246.7 100.34C246.7 101.06 247.08 101.75 247.94 101.75C249.12 101.75 249.48 100.91 249.48 99.24V98.82Z" fill="#473831"/>
<path d="M256.71 101.76C257.57 100.31 259.17 97.5099 260.32 95.5099H256.96V94.3398H261.85V95.3799C261.04 96.7899 259.34 99.7898 258.29 101.58H261.91L261.74 102.74H256.71V101.76Z" fill="#473831"/>
<path d="M273.29 98.45C273.29 101.42 272.27 102.9 270.34 102.9C268.38 102.9 267.4 101.48 267.4 98.4799C267.4 95.5499 268.56 94.2 270.4 94.2C272.27 94.2 273.29 95.63 273.29 98.45ZM268.78 98.4799C268.78 100.67 269.3 101.74 270.36 101.74C271.41 101.74 271.91 100.67 271.91 98.4799C271.91 96.3899 271.42 95.3699 270.35 95.3699C269.33 95.3699 268.78 96.2999 268.78 98.4799Z" fill="#473831"/>
<path d="M284.99 100.41C284.99 101.5 284.99 102.33 285.01 102.74H283.72C283.68 102.49 283.66 102.15 283.66 101.66C283.34 102.48 282.66 102.89 281.69 102.89C280.67 102.89 279.59 102.45 279.59 100.38V94.3401H280.95V100.06C280.95 101.09 281.22 101.7 282.14 101.7C283.03 101.7 283.64 101.17 283.64 99.4401V94.3301H285V100.41H284.99Z" fill="#473831"/>
<path d="M290.85 94.3398H292.02V92.1299H293.36V94.3398H294.79V95.4899H293.36V100.82C293.36 101.38 293.48 101.72 294.11 101.72C294.31 101.72 294.52 101.71 294.68 101.68V102.71C294.38 102.83 293.94 102.86 293.65 102.86C292.59 102.86 292.02 102.44 292.02 101.08V95.4899H290.85V94.3398Z" fill="#473831"/>
<path d="M270.19 41.5999C268.29 43.2899 267.12 44.3299 265.94 45.3799C265.03 44.2799 263.32 43.1 263.41 42.09C263.52 40.86 264.97 39.2499 266.19 38.8099C266.91 38.5499 268.34 40.2399 270.19 41.5999Z" fill="#473831"/>
<path d="M146.53 45.27C144.84 43.37 143.8 42.2 142.75 41.02C143.85 40.11 145.03 38.4 146.04 38.49C147.27 38.6 148.88 40.04 149.32 41.27C149.58 41.99 147.89 43.42 146.53 45.27Z" fill="#473831"/>
<path d="M126 73.2801C124.29 73.2801 122.78 72.8001 121.48 71.8401C120.9 71.4201 120.41 70.88 119.99 70.22C119.57 69.56 119.36 68.9201 119.36 68.3101C119.36 67.6101 119.68 67.2601 120.33 67.2601C120.77 67.2601 121.33 67.4001 122.03 67.6801C123.08 68.0801 124.07 68.2801 125.01 68.2801C126 68.2801 127.17 67.9601 128.5 67.3101C129.83 66.6701 131.04 65.4601 132.12 63.7001C132.96 62.3401 133.38 61.37 133.38 60.8C133.38 60.22 132.96 59.9401 132.12 59.9401C131.47 59.9401 130.17 60.2 128.2 60.72C124.63 61.66 121.72 62.1301 119.49 62.1301C114.42 62.1301 111.88 59.3201 111.88 53.7101C111.88 51.9101 112.2 49.8501 112.83 47.5301C113.47 45.2001 114.36 42.85 115.52 40.48C116.68 38.11 118.05 35.9101 119.64 33.8901C121.23 31.8701 122.98 30.2201 124.91 28.9601C126.84 27.7001 128.87 27.0601 131.02 27.0601C132.96 27.0601 134.47 27.7101 135.56 29.0001C136.65 30.2901 137.19 31.9501 137.19 33.9901C137.19 37.8101 136.57 40.4801 135.33 42.0201C134.77 42.7001 134.19 43.04 133.58 43.04C132.8 43.04 132.4 42.29 132.4 40.79C132.4 40.27 132.43 39.6101 132.49 38.8301C132.55 38.0501 132.58 37.3901 132.58 36.8701C132.58 36.2301 132.53 35.55 132.42 34.86C132.32 34.16 132.11 33.56 131.82 33.04C131.52 32.53 131.14 32.2701 130.67 32.2701C130.01 32.2701 129.07 32.8501 127.87 34.0001C126.3 35.5001 124.85 37.4301 123.53 39.7801C122.2 42.1301 121.13 44.5001 120.3 46.8801C119.47 49.2601 119.06 51.15 119.06 52.54C119.06 54.2 119.85 55.0201 121.44 55.0201C122.66 55.0201 124.65 54.7601 127.4 54.2401C129.75 53.7901 131.99 53.5601 134.12 53.5601C136.33 53.5601 137.98 54.0801 139.06 55.1301C140.23 56.2801 140.81 57.77 140.81 59.6C140.81 61 140.46 62.4201 139.76 63.8901C138.89 65.7401 137.62 67.41 135.94 68.91C134.27 70.41 132.43 71.56 130.42 72.36C128.93 72.98 127.45 73.2801 126 73.2801Z" fill="#473831"/>
<path d="M147.16 73.6501C146.06 73.6501 145.19 72.3501 144.54 69.7501C143.81 66.6501 143.44 63.0801 143.44 59.0501C143.44 55.8201 143.71 52.9601 144.25 50.4501C144.77 48.0601 145.61 46.8701 146.76 46.8701C147.49 46.8701 148.19 47.2701 148.85 48.0601C149.51 48.8501 149.93 49.6901 150.11 50.5801C150.72 54.5901 151.03 60.7601 151.03 69.0901C151.03 70.6401 150.67 71.7902 149.94 72.5302C149.22 73.2802 148.29 73.6501 147.16 73.6501Z" fill="#473831"/>
<path d="M160.31 71.58C159.07 71.58 158.05 71 157.25 69.83C155.51 67.32 154.64 63.15 154.64 57.33C154.69 46.22 155.96 40.6699 158.46 40.6699C159.21 40.6699 159.88 41.0599 160.47 41.8499C160.92 42.4299 161.23 43.2599 161.4 44.3499C161.57 45.4399 161.67 47.3899 161.7 50.1899C163.3 46.5299 165.59 44.7 168.55 44.7C170.9 44.7 172.65 45.7099 173.78 47.7299C175 49.9299 175.61 52.69 175.61 56.02C175.61 61.22 175.36 64.68 174.85 66.4C174.15 68.81 173.34 70.0099 172.42 70.0099C171.74 70.0099 171.25 69.7099 170.96 69.1099C170.66 68.5099 170.49 67.4099 170.44 65.7999C170.23 60.0499 169.95 56.14 169.6 54.08C169.06 50.92 168.29 49.3499 167.3 49.3499C166.06 49.3499 164.82 51.4199 163.56 55.5499C163.16 56.8799 162.89 59.1599 162.75 62.4099C162.61 65.6599 162.44 67.5999 162.25 68.2299C162.15 68.6099 162.06 69.02 162 69.46C161.94 69.9 161.84 70.2999 161.7 70.6599C161.47 71.2799 161.01 71.58 160.31 71.58Z" fill="#473831"/>
<path d="M189.05 81.1501C187.67 81.1501 186.46 80.8501 185.4 80.2601C184.35 79.6701 183.52 78.8701 182.93 77.8801C182.34 76.8901 182.04 75.8001 182.04 74.6401C182.04 71.1201 183.53 68.44 186.51 66.61C188.46 65.41 190.7 64.74 193.23 64.6C193.44 62 193.54 59.1001 193.54 55.8901C192.67 58.2401 191.53 60.2801 190.14 62.0101C188.41 64.1501 186.67 65.23 184.91 65.23C183.06 65.23 181.63 64.81 180.62 63.98C179.14 62.74 178.4 60.89 178.4 58.41C178.4 56.2 178.98 53.8201 180.13 51.2701C180.86 49.6301 181.78 48.11 182.89 46.72C184 45.33 185.22 44.1901 186.56 43.3201C188.06 42.3301 189.58 41.8301 191.11 41.8301C192.16 41.8301 193.2 42.1001 194.25 42.6401C194.58 41.9101 194.92 41.3401 195.27 40.9401C195.62 40.5401 196.09 40.3401 196.68 40.3401C197.69 40.3401 198.47 41.0401 199.01 42.4301C200.26 45.6401 200.89 50.1201 200.89 55.8701C200.89 59.1501 200.63 62.4901 200.11 65.8901C201.09 66.4001 201.85 67.05 202.41 67.85C202.69 68.27 202.83 68.6601 202.83 69.0301C202.83 69.4301 202.69 69.81 202.41 70.17C202.13 70.53 201.76 70.7101 201.29 70.7101C200.96 70.7101 200.6 70.5801 200.22 70.3201L199.36 69.7701C197.42 77.3501 193.99 81.1501 189.05 81.1501ZM185.73 60.23C186.36 60.23 187.06 59.62 187.85 58.41C188.63 57.2 189.39 55.76 190.12 54.11C190.85 52.45 191.48 50.8801 192.02 49.4001C192.55 47.9201 192.88 46.8501 193 46.2101C191.74 46.5601 190.56 47.4501 189.46 48.8801C188.35 50.3101 187.42 51.9 186.65 53.67C185.64 56.02 185.13 57.8601 185.13 59.1901C185.13 59.8801 185.33 60.23 185.73 60.23ZM188.92 76.8401C190.72 76.8401 192.01 73.9801 192.82 68.2601C192.38 68.3101 191.9 68.3901 191.38 68.5001C190.42 68.7101 189.51 69.2901 188.66 70.2501C187.81 71.2101 187.38 72.5501 187.38 74.2801C187.38 75.1501 187.55 75.8 187.89 76.22C188.23 76.64 188.57 76.8401 188.92 76.8401Z" fill="#473831"/>
<path d="M211.33 74.2001C210.77 74.2001 210.16 73.8901 209.5 73.2601C208.84 72.6301 208.22 71.6201 207.64 70.2301C205.93 66.1301 205.08 60.4101 205.08 53.0501C205.08 43.9701 206.25 37.0001 208.58 32.1601C209.57 30.1201 210.65 29.1001 211.82 29.1001C212.46 29.1001 212.96 29.5101 213.31 30.3301C213.54 30.8701 213.65 31.5201 213.65 32.2901C213.65 32.8801 213.59 33.6701 213.47 34.6601C213.35 35.6501 213.22 37.0601 213.08 38.9101C212.73 43.2201 212.56 47.2301 212.56 50.9701C212.56 55.4901 212.76 60.9401 213.16 67.3401C213.23 68.4601 213.26 69.3401 213.26 69.9801C213.26 71.1501 213.09 72.1701 212.76 73.0401C212.47 73.8001 211.99 74.2001 211.33 74.2001Z" fill="#473831"/>
<path d="M223.94 70.8801C222.13 70.8801 220.7 70.5601 219.65 69.9101C218.6 69.2701 217.86 68.3901 217.41 67.3001C216.97 66.2001 216.74 64.9801 216.74 63.6401C216.74 62.3001 217 61.0401 217.52 59.8701C218.04 58.7001 218.67 57.6702 219.42 56.7802C220.16 55.8902 220.88 55.1801 221.58 54.6601C220.86 54.6601 220.14 54.5001 219.41 54.1801C218.68 53.8601 218.06 53.3501 217.55 52.6601C217.04 51.9701 216.79 51.0601 216.79 49.9301C216.79 48.9201 217.07 47.9401 217.63 47.0001C218.75 45.1001 220.35 43.5901 222.44 42.4801C223.82 41.7301 225 41.3601 226 41.3601C226.63 41.3601 227.12 41.5101 227.49 41.8001C227.96 42.1701 228.2 42.6101 228.2 43.1301C228.2 43.2201 228.17 43.4401 228.11 43.8101C228.05 44.1801 227.62 44.5901 226.82 45.0701C226.02 45.5401 225.2 46.1801 224.36 46.9801C223.52 47.7801 222.9 48.5401 222.5 49.2601C222.33 49.5901 222.24 49.8601 222.24 50.0701C222.24 50.5201 222.53 50.7501 223.1 50.7501C223.71 50.7501 224.74 50.4601 226.19 49.8901C226.56 49.7701 226.9 49.7101 227.21 49.7101C228.29 49.7101 228.94 50.2801 229.15 51.4101C229.18 51.5801 229.2 51.7801 229.2 51.9901C229.2 53.1401 228.73 54.0901 227.79 54.8401C227.37 55.1501 226.71 55.9101 225.8 57.1201C224.89 58.3201 224.16 59.6001 223.6 60.9401C223.27 61.8601 223.1 62.5901 223.1 63.1101C223.1 63.8801 223.51 64.2601 224.33 64.2601C224.92 64.2601 225.82 64.0701 227.02 63.7001C228.22 63.3301 229.1 63.1401 229.66 63.1401C230.72 63.1401 231.26 63.6401 231.26 64.6301C231.26 65.4701 230.91 66.3701 230.21 67.3201C229.41 68.4401 228.46 69.3101 227.37 69.9501C226.29 70.5601 225.14 70.8801 223.94 70.8801Z" fill="#473831"/>
<path d="M253.49 76.1601C251.41 76.1601 249.68 74.5701 248.29 71.4001C247.16 68.8401 246.39 66.0401 245.99 63.0101C245.43 58.7201 245.15 54.9901 245.15 51.8201C245.15 47.6201 245.46 43.5202 246.09 39.5302C244.89 39.5302 243.96 39.1901 243.32 38.5101C242.8 37.9501 242.54 37.3301 242.54 36.6501C242.54 35.5501 243.18 34.6901 244.48 34.0601C244.95 33.8201 245.42 33.6201 245.88 33.4801C246.34 33.3401 246.9 33.2101 247.54 33.0901C247.89 31.6601 248.4 30.6402 249.08 30.0302C249.76 29.4202 250.46 29.1101 251.17 29.1101C251.99 29.1101 252.72 29.3801 253.35 29.9101C253.99 30.4401 254.31 31.0602 254.31 31.7802L256.22 31.7501C257.25 31.7501 258.57 31.7901 260.18 31.8701C261.79 31.9501 263.36 32.2101 264.87 32.6401C265.81 32.9201 266.48 33.3101 266.88 33.8201C267.23 34.2601 267.4 34.6901 267.4 35.1301C267.4 36.2301 266.58 36.9901 264.94 37.4001C263.49 37.7701 261.73 37.9802 259.66 38.0302C257.58 38.0802 255.74 38.2701 254.12 38.5801C254.12 41.3901 254 45.3401 253.75 50.4501C254.88 50.2201 255.77 50.1101 256.42 50.1101C258.16 50.1101 259.44 50.4901 260.26 51.2601C260.8 51.7701 261.07 52.3501 261.07 53.0101C261.07 54.8401 259.1 56.1501 255.16 56.9301L253.75 57.2201C253.75 58.6801 253.86 60.7201 254.09 63.3401C254.35 66.5501 254.63 68.8201 254.93 70.1701C255.23 71.5101 255.37 72.5801 255.37 73.3601C255.37 74.3701 255.22 75.0901 254.93 75.5201C254.63 75.9401 254.15 76.1601 253.49 76.1601Z" fill="#473831"/>
<path d="M266.72 73.6501C265.62 73.6501 264.75 72.3501 264.11 69.7501C263.38 66.6501 263.01 63.0801 263.01 59.0501C263.01 55.8201 263.28 52.9601 263.82 50.4501C264.34 48.0601 265.18 46.8701 266.33 46.8701C267.06 46.8701 267.76 47.2701 268.42 48.0601C269.08 48.8501 269.5 49.6901 269.68 50.5801C270.29 54.5901 270.6 60.7601 270.6 69.0901C270.6 70.6401 270.24 71.7902 269.52 72.5302C268.78 73.2802 267.85 73.6501 266.72 73.6501Z" fill="#473831"/>
<path d="M279.87 71.58C278.63 71.58 277.61 71 276.81 69.83C275.07 67.32 274.19 63.15 274.19 57.33C274.24 46.22 275.51 40.6699 278.01 40.6699C278.76 40.6699 279.43 41.0599 280.02 41.8499C280.47 42.4299 280.78 43.2599 280.95 44.3499C281.12 45.4399 281.22 47.3899 281.25 50.1899C282.85 46.5299 285.14 44.7 288.1 44.7C290.45 44.7 292.2 45.7099 293.33 47.7299C294.55 49.9299 295.16 52.69 295.16 56.02C295.16 61.22 294.91 64.68 294.4 66.4C293.7 68.81 292.89 70.0099 291.97 70.0099C291.29 70.0099 290.8 69.7099 290.51 69.1099C290.21 68.5099 290.04 67.4099 289.99 65.7999C289.78 60.0499 289.5 56.14 289.15 54.08C288.61 50.92 287.84 49.3499 286.85 49.3499C285.61 49.3499 284.37 51.4199 283.11 55.5499C282.71 56.8799 282.44 59.1599 282.3 62.4099C282.16 65.6599 282 67.5999 281.8 68.2299C281.7 68.6099 281.61 69.02 281.55 69.46C281.49 69.9 281.39 70.2999 281.25 70.6599C281.03 71.2799 280.57 71.58 279.87 71.58Z" fill="#473831"/>
</svg>
