<svg width="1699" height="699" viewBox="0 0 1699 699" fill="none" xmlns="http://www.w3.org/2000/svg">
<path d="M682.254 266.444C675.943 267.131 668.904 263.378 661.136 255.186C643.923 236.921 632.96 206.14 628.248 162.841C623.747 121.483 621.859 85.6373 622.586 55.3025C620.19 55.8579 615.476 56.7639 608.441 58.0206C601.504 59.2667 596.385 60.0694 593.084 60.4286C587.745 61.0097 582.744 59.7367 578.081 56.6095C573.505 53.3746 570.942 49.2331 570.393 44.1847C569.791 38.651 577.596 32.7426 593.808 26.4596C603.512 22.653 614.141 19.6789 625.696 17.5373C629.677 7.18254 635.697 1.56669 643.755 0.68976C647.444 0.288276 650.78 1.15316 653.762 3.2844C656.831 5.308 659.078 8.35426 660.503 12.4232C690.308 9.17961 708.944 11.179 716.412 18.4214C717.832 19.7403 718.648 21.3705 718.86 23.3122C719.124 25.7393 718.362 28.6709 716.575 32.1071C715.849 33.5613 715.178 34.6167 714.562 35.2731C712.011 38.0066 705.988 40.4303 696.493 42.5442C682.595 45.7266 671.715 47.7457 663.851 48.6015C663.883 67.8516 664.956 87.185 667.069 106.602C670.238 135.727 675.899 169.688 684.051 208.487C688.053 227.207 690.566 241.276 691.591 250.693C692.119 255.547 691.447 259.304 689.576 261.963C687.801 264.612 685.36 266.106 682.254 266.444ZM780.297 248.112C774.958 248.693 768.906 242.279 762.142 228.869C751.899 208.766 744.569 178.424 740.153 137.843C738.241 120.271 737.083 100.603 736.679 78.8392C736.264 56.9784 737.944 39.0154 741.718 24.9504C744.861 13.2133 749.734 6.98553 756.335 6.26708C759.83 5.88673 762.826 6.78859 765.323 8.97266C767.81 11.0596 769.713 13.6522 771.032 16.7503C772.438 19.7407 773.294 22.6436 773.601 25.459C775.091 39.1478 776.125 56.3242 776.704 76.9883C777.096 94.1363 778.007 111.081 779.436 127.821C785.612 96.1075 797.971 79.2417 816.514 77.2237C829.62 75.7974 840.015 81.0512 847.699 92.9853C855.974 105.837 861.242 122.651 863.503 143.427C865.468 161.484 865.098 179.747 862.392 198.214C859.676 216.585 855.746 226.05 850.6 226.61C846.814 227.022 843.89 225.425 841.827 221.818C839.775 218.309 838.06 211.57 836.68 201.602C832.035 167.038 828.736 144.853 826.785 135.046C822.914 115.722 818.211 106.361 812.677 106.964C809.182 107.344 804.997 114.921 800.122 129.696C795.333 144.362 792.579 165.095 791.861 191.892L790.985 221.752C790.655 238.586 787.093 247.372 780.297 248.112ZM939.406 208.694C929.309 209.793 921.153 208.863 914.937 205.905C908.721 202.947 904.018 198.547 900.829 192.705C897.736 186.853 895.783 180.189 894.969 172.714C894.156 165.239 894.851 158.09 897.056 151.269C899.26 144.447 902.132 138.339 905.671 132.944C909.306 127.538 912.908 123.168 916.474 119.833C912.493 120.266 908.369 119.831 904.102 118.527C899.824 117.126 896.071 114.686 892.843 111.206C889.605 107.629 887.643 102.686 886.956 96.3751C886.343 90.7443 887.305 85.1386 889.841 79.558C894.903 68.2998 902.921 58.9301 913.894 51.449C921.11 46.4397 927.484 43.634 933.018 43.0318C936.513 42.6514 939.369 43.1755 941.588 44.604C944.431 46.3575 946.011 48.6905 946.328 51.603C946.381 52.0884 946.324 53.3716 946.157 55.4526C946.088 57.5231 943.963 60.1119 939.783 63.2192C935.602 66.3264 931.425 70.3665 927.251 75.3395C923.077 80.3124 920.09 84.9106 918.29 89.134C917.52 91.0843 917.198 92.6419 917.325 93.8069C917.6 96.331 919.339 97.4188 922.543 97.0701C925.941 96.7003 931.494 94.4751 939.204 90.3944C941.168 89.493 943.025 88.9472 944.772 88.757C950.791 88.1019 954.727 90.8662 956.578 97.0498C956.878 97.9995 957.092 99.0569 957.218 100.222C957.916 106.629 955.87 112.206 951.082 116.951C948.942 118.952 945.713 123.576 941.393 130.825C937.074 138.073 933.768 145.603 931.475 153.417C930.19 158.763 929.706 162.892 930.023 165.805C930.488 170.077 933.002 171.964 937.565 171.468C940.866 171.108 945.755 169.545 952.231 166.777C958.698 163.912 963.484 162.311 966.591 161.973C972.513 161.328 975.775 163.773 976.377 169.307C976.884 173.967 975.487 179.178 972.185 184.94C968.395 191.639 963.638 197.118 957.912 201.375C952.273 205.525 946.105 207.965 939.406 208.694ZM40.2701 697.974C37.746 698.248 35.0211 696.678 32.0954 693.264C29.2774 689.936 26.7378 685.104 24.4766 678.769C16.2467 655.499 9.6859 621.39 4.79413 576.44C-0.995689 523.239 -1.01827 487.828 4.7264 470.209C8.38667 458.71 15.071 452.432 24.7793 451.376C30.0217 450.805 35.0819 452.17 39.9598 455.47C50.5661 462.666 61.0653 481.514 71.4574 512.014C74.5104 521.112 79.147 535.735 85.3673 555.884C86.6519 550.537 88.0416 541.643 89.5363 529.202C91.0311 516.76 93.0627 502.934 95.6314 487.723C98.1894 472.415 101.851 457.772 106.617 443.796C110.037 433.699 114.617 425.685 120.357 419.756C126.183 413.719 132.349 410.347 138.853 409.639C145.067 408.963 151.02 411.311 156.712 416.684C162.502 422.046 167.2 430.916 170.807 443.294C175.355 458.909 179.763 486.327 184.032 525.549C189.42 575.061 191.549 609.063 190.418 627.556C189.51 642.685 185.95 650.587 179.736 651.263C177.018 651.559 173.814 649.648 170.124 645.531C166.532 641.403 163.789 633.352 161.896 621.377C158.557 600.62 155.813 581.272 153.664 563.333C150.277 534.92 145.295 503.585 138.719 469.33C135.959 478.275 133.799 489.119 132.239 501.863C130.669 514.509 129.318 527.819 128.186 541.793C124.981 580.944 120.907 606.24 115.963 617.682C111.594 628.079 104.506 633.811 94.7009 634.878C80.4297 636.432 68.4339 623.69 58.7135 596.653C46.432 562.331 39.4077 542.467 37.6404 537.06L41.9066 574.906C43.3857 588.498 44.9243 604.441 46.5222 622.734C50.9946 671.954 48.9105 697.033 40.2701 697.974ZM285.837 639.274C266.809 641.345 251.518 636.231 239.963 623.932C228.495 611.526 221.382 592.654 218.624 567.315C216.585 548.578 218.294 532.233 223.75 518.279C229.769 503.184 239.041 494.955 251.564 493.592C253.215 493.412 254.886 493.427 256.579 493.636C261.14 494.023 263.568 495.576 263.864 498.295C264.139 500.819 263.244 502.979 261.18 504.775C255.356 509.928 251.347 518.223 249.154 529.66C246.95 541 246.413 551.864 247.543 562.252C248.97 575.358 252.337 585.994 257.646 594.159C262.945 602.227 269.575 605.828 277.535 604.961C287.244 603.905 293.771 593.027 297.118 572.329C299.043 560.233 299.293 547.632 297.866 534.526C297.159 528.021 295.772 521.149 293.707 513.908C291.739 506.656 288.604 500.416 284.302 495.186C280.097 489.946 274.888 487.665 268.675 488.341C267.413 488.478 265.881 488.841 264.078 489.43C261.51 490.201 259.012 490.718 256.585 490.983C254.061 491.257 252.067 490.541 250.605 488.834C249.615 487.861 249.019 486.452 248.819 484.608C248.47 481.404 250.31 478.453 254.339 475.755C258.367 473.058 263.294 471.392 269.119 470.758C293.875 468.064 312.803 477.252 325.901 498.321C333.638 510.741 338.394 525.106 340.169 541.415C341.056 549.57 341.03 558.807 340.09 569.126C339.237 579.337 336.587 589.743 332.142 600.345C327.696 610.946 321.588 619.814 313.818 626.946C306.135 633.971 296.808 638.08 285.837 639.274ZM486.075 639.29C479.668 639.988 475.015 637.4 472.116 631.526C467.189 621.454 462.665 597.486 458.544 559.624L457.403 549.139C450.638 588.972 435.945 610.119 413.325 612.581C403.811 613.616 395.375 609.671 388.019 600.747C380.663 591.823 375.066 579.661 371.229 564.263C369.797 558.329 368.728 552.109 368.02 545.605C366.889 535.217 366.758 524.082 367.626 512.199C368.125 505.956 369.581 501.279 371.993 498.168C374.405 495.057 377.019 493.348 379.834 493.041C387.406 492.217 392.729 501.412 395.803 520.626C398.035 534.823 400.405 545.764 402.911 553.448C406.982 565.579 412.366 571.28 419.065 570.551C425.861 569.811 432.189 561.166 438.05 544.614C443.249 530.099 446.409 515.364 447.532 500.409C448.83 484.354 451.19 473.537 454.61 467.958C457.283 463.64 461.193 461.201 466.338 460.641C472.843 459.933 478.624 462.054 483.681 467.005C488.836 471.945 492.063 480.386 493.362 492.327C495.611 513.89 497.779 547.348 499.866 592.701C500.636 609.709 499.675 622.093 496.983 629.852C495.051 635.563 491.415 638.709 486.075 639.29ZM571.121 609.848C564.228 610.598 558.195 607.964 553.021 601.945C541.792 589.022 534.412 566.347 530.884 533.922C524.445 472.048 528.167 440.356 542.05 438.845C546.224 438.391 550.2 440.168 553.976 444.178C556.849 447.107 559.055 451.582 560.594 457.603C562.22 463.517 563.981 474.278 565.876 489.887C572.589 468.528 584.197 456.95 600.701 455.154C613.808 453.728 624.129 458.302 631.665 468.877C639.792 480.37 644.864 495.388 646.882 513.93C650.031 542.861 650.72 562.285 648.951 572.203C646.525 586.023 642.74 593.213 637.595 593.773C633.808 594.185 630.91 592.83 628.901 589.709C626.881 586.491 625.239 580.432 623.976 571.532C619.324 539.621 615.404 518.044 612.216 506.799C607.294 489.555 602.066 481.234 596.532 481.836C589.639 482.586 583.95 494.846 579.464 518.615C578.034 526.236 577.919 539.167 579.118 557.406C580.306 575.548 580.557 586.424 579.869 590.035C579.519 592.235 579.282 594.569 579.158 597.038C579.131 599.497 578.84 601.788 578.285 603.911C577.392 607.447 575.005 609.425 571.121 609.848ZM745.965 622.942L743.635 623.196C729.169 624.77 716.337 619.683 705.137 607.935C693.947 596.285 686.06 569.392 681.474 527.258C679.488 509.007 679.081 484.051 680.252 452.391C663.748 454.187 654.941 449.988 653.832 439.794C653.145 433.484 656.256 428.676 663.166 425.37C666.253 423.953 672.571 422.43 682.119 420.802C684.741 391.636 691.537 376.456 702.507 375.262C705.905 374.893 708.894 376.63 711.473 380.475C713.451 383.305 714.794 387.973 715.502 394.477C715.925 398.36 716.393 405.824 716.907 416.869C734.23 415.376 743.32 418.562 744.176 426.426C745.338 437.105 736.639 444.731 718.08 449.305C719.107 476.797 721.396 506.853 724.946 539.473C727.545 563.355 731.321 579.103 736.276 586.717C741.23 594.332 746.426 597.843 751.862 597.251C754.289 596.987 756.934 596.012 759.795 594.325C761.264 593.379 762.97 592.801 764.911 592.589C767.435 592.315 769.51 592.875 771.135 594.27C772.771 595.762 773.716 597.673 773.969 600.002C774.625 606.022 771.091 611.465 763.369 616.333C757.861 619.879 752.06 622.083 745.965 622.942ZM794.339 521.901C796.377 521.679 799.016 518.396 802.255 512.051C812.514 491.681 818.724 470.671 820.887 449.021C811.873 452.85 805.05 458.75 800.416 466.72C795.869 474.583 792.874 482.718 791.431 491.127C790.13 499.029 789.791 505.844 790.415 511.571C791.186 518.658 792.494 522.102 794.339 521.901ZM857.888 589.986C853.616 590.451 849.729 588.123 846.224 583.003C839.077 572.386 832.838 548.458 827.508 511.218C824.937 522.795 821.5 533.189 817.198 542.4C809.927 557.729 801.923 565.87 793.186 566.821C784.642 567.75 777.631 566.058 772.151 561.742C762.807 554.409 757.216 542.297 755.378 525.404C752.884 502.493 756.664 480.814 766.718 460.368C776.133 441.268 788.461 430.889 803.703 429.23C810.693 428.47 816.597 429.006 821.413 430.84C822.471 420.705 825.175 412.601 829.524 406.528C833.97 400.445 838.572 397.145 843.329 396.627C847.892 396.131 852.225 397.132 856.328 399.633C861.282 402.728 864.181 408.159 865.026 415.926C865.819 423.207 865.465 434.395 863.964 449.49C862.067 468.164 861.879 484.491 863.4 498.471L867.825 537.774C869.177 550.201 869.618 560.565 869.146 568.868C868.34 582.218 864.587 589.257 857.888 589.986ZM932.322 582.18C926.206 582.845 920.565 576.141 915.398 562.067C909.44 545.23 905.241 525.598 902.8 503.172C900.846 485.211 900.613 469.077 902.101 454.77C903.566 441.153 907.502 433.995 913.91 433.298C917.987 432.854 922.113 434.665 926.289 438.729C930.453 442.696 933.29 447.103 934.8 451.948C940.628 473.907 946.067 508.09 951.117 554.496C952.058 563.136 950.711 569.717 947.077 574.238C943.551 578.846 938.633 581.493 932.322 582.18ZM915.194 423.433C909.369 424.067 904.967 422.434 901.988 418.534C899.785 415.434 898.461 411.845 898.017 407.768C897.478 402.817 898.308 398.257 900.507 394.088C903.127 389.284 907.108 386.592 912.447 386.011C917.787 385.43 922.49 387.128 926.558 391.106C929.528 394.024 931.245 397.619 931.71 401.891C932.228 406.648 930.82 411.32 927.489 415.907C924.243 420.385 920.145 422.894 915.194 423.433ZM1016.39 561.39C1009.5 562.14 1003.47 559.506 998.295 553.487C987.065 540.564 979.686 517.889 976.157 485.463C969.718 423.59 973.44 391.898 987.323 390.387C991.497 389.932 995.473 391.71 999.249 395.72C1002.12 398.649 1004.33 403.124 1005.87 409.145C1007.49 415.058 1009.25 425.82 1011.15 441.429C1017.86 420.07 1029.47 408.492 1045.97 406.696C1059.08 405.269 1069.4 409.844 1076.94 420.418C1085.06 431.911 1090.14 446.929 1092.16 465.472C1095.3 494.403 1095.99 513.827 1094.22 523.745C1091.8 537.565 1088.01 544.755 1082.87 545.315C1079.08 545.727 1076.18 544.372 1074.17 541.251C1072.15 538.033 1070.51 531.974 1069.25 523.074C1064.6 491.163 1060.68 469.585 1057.49 458.341C1052.57 441.096 1047.34 432.775 1041.81 433.378C1034.91 434.128 1029.22 446.387 1024.74 470.157C1023.31 477.778 1023.19 490.708 1024.39 508.947C1025.58 527.089 1025.83 537.966 1025.14 541.577C1024.79 543.776 1024.56 546.111 1024.43 548.58C1024.4 551.039 1024.11 553.33 1023.56 555.453C1022.67 558.988 1020.28 560.967 1016.39 561.39ZM1273.05 545.099C1259.07 546.621 1244.8 536.041 1230.25 513.361C1217.15 493.176 1205.94 467.775 1196.62 437.159C1189.17 413.017 1184.34 390.704 1182.11 370.22C1180.28 353.425 1180.65 340.565 1183.22 331.641C1185.12 324.754 1188.5 321.047 1193.35 320.519C1203.93 319.367 1213.48 331.737 1222 357.627C1236.76 402.092 1253.66 446.864 1272.72 491.942L1282.71 444.293C1287.2 420.62 1291.84 391.432 1296.61 356.728C1298.7 341.667 1300.02 331.258 1300.58 325.5C1301.22 319.732 1302.11 315.215 1303.23 311.95C1305.6 304.913 1309.71 301.078 1315.53 300.444C1322.23 299.715 1326.25 305.515 1327.59 317.845C1327.96 321.243 1328.08 325.061 1327.95 329.299C1327.06 377.039 1322.05 425.325 1312.92 474.158C1309.56 492.009 1306.49 505.801 1303.72 515.533C1301.04 525.157 1297.43 532.229 1292.92 536.748C1288.41 541.365 1281.79 544.148 1273.05 545.099ZM1387.79 532.612C1381.67 533.278 1376.03 526.573 1370.87 512.499C1364.91 495.662 1360.71 476.03 1358.27 453.604C1356.31 435.644 1356.08 419.51 1357.57 405.202C1359.03 391.585 1362.97 384.428 1369.38 383.73C1373.45 383.287 1377.58 385.097 1381.76 389.161C1385.92 393.129 1388.76 397.535 1390.27 402.381C1396.09 424.34 1401.53 458.522 1406.58 504.928C1407.52 513.568 1406.18 520.149 1402.54 524.67C1399.02 529.278 1394.1 531.925 1387.79 532.612ZM1370.66 373.866C1364.84 374.5 1360.43 372.867 1357.46 368.967C1355.25 365.867 1353.93 362.278 1353.48 358.2C1352.95 353.249 1353.78 348.689 1355.97 344.521C1358.59 339.717 1362.57 337.024 1367.91 336.443C1373.25 335.862 1377.96 337.56 1382.02 341.538C1384.99 344.457 1386.71 348.052 1387.18 352.323C1387.69 357.08 1386.29 361.752 1382.96 366.339C1379.71 370.818 1375.61 373.327 1370.66 373.866ZM1477.23 525.973C1474.13 526.311 1470.54 524.933 1466.47 521.839C1462.4 518.746 1458.34 513.49 1454.29 506.072C1442.29 484.293 1434.07 452.919 1429.61 411.95C1424.1 361.37 1426.39 321.877 1436.46 293.472C1440.76 281.511 1446.16 275.177 1452.66 274.469C1456.25 274.078 1459.27 276.059 1461.71 280.41C1463.3 283.282 1464.32 286.854 1464.79 291.126C1465.15 294.427 1465.29 298.881 1465.21 304.489C1465.12 309.999 1465.25 317.942 1465.59 328.318C1466.26 352.508 1467.73 374.992 1469.99 395.768C1472.72 420.912 1477.15 451.178 1483.26 486.564C1484.32 492.735 1485.05 497.617 1485.44 501.209C1486.15 507.713 1485.85 513.493 1484.53 518.548C1483.35 523.096 1480.92 525.571 1477.23 525.973ZM1556.73 517.321C1553.63 517.659 1550.04 516.281 1545.97 513.188C1541.9 510.094 1537.84 504.838 1533.79 497.42C1521.79 475.641 1513.57 444.267 1509.11 403.298C1503.6 352.718 1505.89 313.225 1515.96 284.821C1520.26 272.86 1525.66 266.525 1532.16 265.817C1535.75 265.426 1538.77 267.407 1541.21 271.758C1542.8 274.631 1543.82 278.203 1544.29 282.474C1544.65 285.775 1544.79 290.229 1544.71 295.837C1544.62 301.348 1544.75 309.291 1545.09 319.666C1545.76 343.857 1547.23 366.34 1549.49 387.116C1552.22 412.26 1556.65 442.526 1562.76 477.912C1563.82 484.083 1564.55 488.965 1564.94 492.557C1565.65 499.061 1565.34 504.841 1564.03 509.896C1562.85 514.444 1560.42 516.919 1556.73 517.321ZM1623.72 431.641C1625.76 431.419 1628.4 428.135 1631.64 421.791C1641.9 401.421 1648.11 380.411 1650.27 358.76C1641.26 362.59 1634.43 368.49 1629.8 376.46C1625.25 384.322 1622.26 392.458 1620.82 400.866C1619.51 408.768 1619.18 415.583 1619.8 421.311C1620.57 428.398 1621.88 431.841 1623.72 431.641ZM1687.27 499.725C1683 500.19 1679.11 497.863 1675.61 492.743C1668.46 482.126 1662.22 458.198 1656.89 420.958C1654.32 432.535 1650.88 442.928 1646.58 452.139C1639.31 467.469 1631.31 475.609 1622.57 476.56C1614.03 477.49 1607.02 475.797 1601.54 471.482C1592.19 464.149 1586.6 452.036 1584.76 435.144C1582.27 412.232 1586.05 390.553 1596.1 370.107C1605.52 351.008 1617.85 340.629 1633.09 338.97C1640.08 338.209 1645.98 338.746 1650.8 340.579C1651.86 330.444 1654.56 322.341 1658.91 316.268C1663.35 310.185 1667.96 306.884 1672.71 306.367C1677.28 305.87 1681.61 306.872 1685.71 309.373C1690.67 312.468 1693.57 317.899 1694.41 325.666C1695.2 332.947 1694.85 344.135 1693.35 359.23C1691.45 377.904 1691.26 394.231 1692.78 408.211L1697.21 447.514C1698.56 459.94 1699 470.305 1698.53 478.608C1697.72 491.957 1693.97 498.996 1687.27 499.725Z" fill="white"/>
</svg>
