<svg width="16" height="19" viewBox="0 0 16 19" fill="none" xmlns="http://www.w3.org/2000/svg">
<path d="M4.68993 5.56964C4.66993 5.58964 4.64992 5.61965 4.62992 5.63965C5.10992 6.44965 5.57993 7.26963 6.07993 8.11963C4.15993 8.50963 2.28992 8.88964 0.419922 9.25964C0.419922 9.28964 0.419922 9.31961 0.419922 9.34961C2.27992 9.75961 4.12992 10.1597 6.03992 10.5797C5.53992 11.4297 5.07992 12.1996 4.62992 12.9796C4.64992 12.9996 4.67992 13.0196 4.69992 13.0396C5.36992 12.4896 6.02992 11.9496 6.73992 11.3696C7.09992 13.6296 7.44992 15.8196 7.78992 17.9996C7.80992 17.9996 7.83992 17.9996 7.85992 17.9896C8.17992 15.7896 8.49992 13.5896 8.83992 11.3196C9.57992 11.9196 10.2799 12.4697 10.9699 13.0297C10.9899 13.0097 11.0099 12.9797 11.0299 12.9597C10.5599 12.1697 10.0799 11.3896 9.57993 10.5496C11.5199 10.1396 13.3899 9.73966 15.2699 9.33966C15.2699 9.30966 15.2699 9.28964 15.2599 9.25964C13.3699 8.87964 11.4799 8.49962 9.52992 8.10962C10.0599 7.23962 10.5399 6.43964 11.0299 5.62964C11.0099 5.60964 10.9899 5.57963 10.9699 5.55963C10.2699 6.10963 9.55993 6.66962 8.82993 7.23962C8.49993 4.96962 8.17992 2.79963 7.85992 0.619629C7.82992 0.619629 7.80992 0.619629 7.77992 0.619629C7.42992 2.80963 7.07993 4.99962 6.72993 7.23962C6.01993 6.66962 5.34993 6.11964 4.68993 5.56964Z" fill="#473831" fill-opacity="0.1"/>
<path d="M4.68969 5.56964C5.35969 6.11964 6.01968 6.66964 6.73969 7.25964C7.09969 5.01964 7.43969 2.82965 7.78969 0.639648C7.81969 0.639648 7.83969 0.639648 7.86969 0.639648C8.18969 2.80965 8.50968 4.98964 8.83968 7.25964C9.56968 6.67964 10.2697 6.12965 10.9797 5.57965C10.9997 5.59965 11.0197 5.62966 11.0397 5.64966C10.5497 6.44966 10.0697 7.25964 9.53969 8.12964C11.4897 8.51964 13.3797 8.89966 15.2697 9.27966C15.2697 9.30966 15.2697 9.32962 15.2797 9.35962C13.3997 9.75962 11.5297 10.1596 9.58968 10.5696C10.0897 11.3996 10.5697 12.1896 11.0397 12.9796C11.0197 12.9996 10.9997 13.0296 10.9797 13.0496C10.2897 12.4896 9.58969 11.9397 8.84969 11.3397C8.51969 13.6097 8.19969 15.8096 7.86969 18.0096C7.84969 18.0096 7.81969 18.0097 7.79969 18.0197C7.44969 15.8397 7.10969 13.6596 6.74969 11.3896C6.04969 11.9696 5.37969 12.5096 4.70969 13.0596C4.68969 13.0396 4.65969 13.0196 4.63969 12.9996C5.09969 12.2196 5.54969 11.4496 6.04969 10.5996C4.13969 10.1796 2.27969 9.76963 0.429688 9.36963C0.429688 9.33963 0.429688 9.30966 0.429688 9.27966C2.29969 8.89966 4.15968 8.52965 6.08968 8.13965C5.58968 7.27965 5.10969 6.46961 4.63969 5.65961C4.64969 5.60961 4.66969 5.58964 4.68969 5.56964Z" fill="#473831" fill-opacity="0.1"/>
</svg>
