<svg width="9" height="11" viewBox="0 0 9 11" fill="none" xmlns="http://www.w3.org/2000/svg">
<path d="M7.00016 3.03973C6.94016 2.96973 6.88016 2.90978 6.82016 2.83978C6.35016 3.09978 5.88016 3.35974 5.22016 3.72974C4.93016 2.51974 4.66016 1.40976 4.33016 -0.000244141C4.08016 1.30976 3.89016 2.28976 3.69016 3.31976C3.21016 3.15976 2.89016 3.04976 2.39016 2.87976C2.60016 3.47976 2.74016 3.88976 2.91016 4.37976C1.94016 4.63976 1.05016 4.86974 0.160156 5.10974C0.170156 5.19974 0.180155 5.27975 0.190155 5.36975C0.960155 5.56975 1.74016 5.77977 2.62016 6.00977C2.24016 6.73977 1.91016 7.35979 1.43016 8.27979C2.26016 7.86979 2.74016 7.61973 3.40016 7.28973C3.67016 8.47973 3.92016 9.55977 4.16016 10.6398C4.23016 10.6298 4.30016 10.6197 4.37016 10.6097C4.64016 9.45974 4.90016 8.29974 5.19016 7.04974C5.68015 7.25974 6.04016 7.39974 6.53016 7.60974C6.30016 7.01974 6.12016 6.56979 5.91016 6.02979C6.82016 5.80979 7.62016 5.60978 8.72016 5.33978C7.69016 5.03978 6.97016 4.82978 6.15016 4.58978C6.48016 3.98978 6.74016 3.51973 7.00016 3.03973Z"  fill="#473831" fill-opacity="0.1"/>
<path d="M7.00016 3.03973C6.74016 3.50973 6.48016 3.98974 6.15016 4.60974C6.96016 4.84974 7.69016 5.05974 8.72016 5.35974C7.63016 5.62974 6.82016 5.81974 5.91016 6.04974C6.13016 6.58974 6.30016 7.03976 6.53016 7.62976C6.04016 7.41976 5.69016 7.27976 5.19016 7.06976C4.90016 8.32976 4.64016 9.47976 4.37016 10.6298C4.30016 10.6398 4.23016 10.6497 4.16016 10.6597C3.91016 9.57973 3.67016 8.49975 3.40016 7.30975C2.74016 7.63975 2.26016 7.87974 1.43016 8.29974C1.91016 7.37974 2.24016 6.75979 2.62016 6.02979C1.74016 5.79979 0.960155 5.58977 0.190155 5.38977C0.180155 5.29977 0.170156 5.21976 0.160156 5.12976C1.05016 4.88976 1.94016 4.65978 2.91016 4.39978C2.74016 3.90978 2.60016 3.49978 2.39016 2.89978C2.89016 3.06978 3.21016 3.17978 3.69016 3.33978C3.89016 2.30978 4.08016 1.32978 4.33016 0.0197754C4.67016 1.42978 4.93016 2.53976 5.22016 3.74976C5.88016 3.37976 6.35016 3.11974 6.82016 2.85974C6.88016 2.90974 6.94016 2.97973 7.00016 3.03973Z"  fill="#473831" fill-opacity="0.1"/>
</svg>
