<svg width="1432" height="622" viewBox="0 0 1432 622" fill="none" xmlns="http://www.w3.org/2000/svg">
<path d="M120.337 455.257C114.027 455.944 106.988 452.191 99.2197 443.999C82.0059 425.735 71.043 394.953 66.3308 351.654C61.83 310.297 59.9427 274.451 60.6689 244.116C58.2736 244.671 53.5588 245.578 46.5245 246.834C39.5874 248.08 34.4684 248.883 31.1676 249.242C25.828 249.823 20.8269 248.55 16.1643 245.423C11.5883 242.188 9.02557 238.047 8.47617 232.998C7.87394 227.465 15.679 221.556 31.8912 215.273C41.595 211.467 52.2243 208.492 63.7791 206.351C67.7604 195.996 73.7799 190.38 81.8378 189.503C85.527 189.102 88.8628 189.967 91.8452 192.098C94.9142 194.122 97.1613 197.168 98.5864 201.237C128.391 197.993 147.027 199.993 154.495 207.235C155.916 208.554 156.732 210.184 156.943 212.126C157.207 214.553 156.446 217.484 154.658 220.921C153.933 222.375 153.262 223.43 152.645 224.087C150.094 226.82 144.071 229.244 134.576 231.358C120.679 234.54 109.798 236.559 101.934 237.415C101.966 256.665 103.039 275.999 105.152 295.415C108.322 324.54 113.982 358.502 122.134 397.301C126.136 416.021 128.649 430.089 129.674 439.506C130.202 444.36 129.531 448.117 127.659 450.777C125.884 453.426 123.444 454.919 120.337 455.257ZM218.38 436.925C213.041 437.506 206.989 431.092 200.225 417.683C189.982 397.579 182.653 367.237 178.236 326.656C176.324 309.084 175.166 289.417 174.762 267.653C174.348 245.792 176.027 227.829 179.801 213.764C182.944 202.027 187.817 195.799 194.418 195.081C197.913 194.7 200.909 195.602 203.406 197.786C205.893 199.873 207.796 202.466 209.115 205.564C210.521 208.554 211.378 211.457 211.684 214.273C213.174 227.961 214.208 245.138 214.787 265.802C215.18 282.95 216.09 299.894 217.519 316.635C223.695 284.921 236.054 268.055 254.597 266.037C267.703 264.611 278.098 269.865 285.782 281.799C294.057 294.651 299.325 311.465 301.586 332.241C303.551 350.298 303.181 368.56 300.476 387.028C297.76 405.398 293.829 414.864 288.684 415.424C284.897 415.836 281.973 414.238 279.91 410.632C277.859 407.122 276.143 400.383 274.763 390.416C270.118 355.852 266.819 333.667 264.868 323.859C260.997 304.536 256.294 295.175 250.761 295.777C247.266 296.158 243.08 303.735 238.205 318.509C233.416 333.176 230.662 353.908 229.944 380.706L229.068 410.566C228.739 427.399 225.176 436.186 218.38 436.925ZM377.489 397.507C367.392 398.606 359.236 397.677 353.02 394.718C346.804 391.76 342.102 387.36 338.912 381.519C335.819 375.667 333.866 369.003 333.052 361.528C332.239 354.052 332.934 346.904 335.139 340.082C337.344 333.261 340.215 327.153 343.754 321.758C347.39 316.352 350.991 311.982 354.557 308.647C350.577 309.08 346.453 308.644 342.185 307.341C337.907 305.94 334.154 303.5 330.926 300.02C327.688 296.443 325.726 291.499 325.039 285.189C324.427 279.558 325.388 273.952 327.924 268.372C332.986 257.113 341.004 247.744 351.978 240.263C359.193 235.253 365.567 232.448 371.101 231.845C374.596 231.465 377.453 231.989 379.671 233.418C382.514 235.171 384.094 237.504 384.411 240.417C384.464 240.902 384.407 242.185 384.241 244.266C384.171 246.337 382.046 248.925 377.866 252.033C373.685 255.14 369.508 259.18 365.334 264.153C361.16 269.126 358.173 273.724 356.373 277.948C355.603 279.898 355.282 281.455 355.408 282.62C355.683 285.145 357.422 286.232 360.626 285.884C364.024 285.514 369.578 283.289 377.287 279.208C379.252 278.307 381.108 277.761 382.855 277.571C388.874 276.916 392.81 279.68 394.662 285.863C394.961 286.813 395.175 287.87 395.302 289.035C395.999 295.443 393.953 301.019 389.165 305.764C387.025 307.765 383.796 312.39 379.477 319.638C375.157 326.886 371.851 334.417 369.558 342.231C368.273 347.577 367.789 351.706 368.106 354.618C368.571 358.89 371.085 360.778 375.648 360.281C378.949 359.922 383.838 358.358 390.315 355.591C396.781 352.726 401.567 351.124 404.674 350.786C410.596 350.142 413.858 352.586 414.46 358.12C414.968 362.78 413.57 367.991 410.268 373.753C406.478 380.453 401.721 385.931 395.995 390.189C390.357 394.339 384.188 396.778 377.489 397.507ZM578.429 389.196C568.915 390.231 560.227 388.475 552.365 383.928C548.907 381.947 545.813 379.238 543.082 375.803C540.35 372.367 538.8 368.95 538.43 365.552C538.007 361.669 539.592 359.532 543.184 359.141C545.611 358.877 548.851 359.31 552.903 360.441C558.971 362.04 564.626 362.554 569.869 361.984C575.403 361.381 581.663 358.883 588.65 354.488C595.735 350.082 601.753 342.649 606.705 332.189C610.541 324.109 612.285 318.467 611.936 315.264C611.587 312.06 609.083 310.712 604.423 311.219C600.831 311.61 593.708 313.858 583.055 317.965C563.723 325.373 547.844 329.753 535.418 331.106C507.167 334.18 491.34 320.087 487.938 288.826C486.85 278.827 487.35 267.181 489.44 253.888C491.617 240.488 495.19 226.838 500.161 212.937C505.228 199.026 511.567 185.959 519.176 173.736C526.785 161.513 535.548 151.325 545.467 143.173C555.472 134.913 566.445 130.134 578.386 128.834C589.162 127.661 597.951 130.34 604.752 136.869C611.65 143.387 615.717 152.326 616.953 163.685C619.267 184.946 617.442 200.223 611.479 209.517C608.784 213.641 605.738 215.888 602.34 216.258C597.972 216.733 595.333 212.796 594.424 204.447C594.107 201.535 593.857 197.878 593.673 193.478C593.585 189.067 593.383 185.405 593.066 182.493C592.675 178.9 591.977 175.194 590.972 171.375C589.967 167.555 588.486 164.327 586.529 161.691C584.562 158.958 582.268 157.734 579.647 158.02C575.957 158.421 571.112 162.19 565.111 169.326C557.282 178.626 550.391 190.231 544.439 204.14C538.487 218.049 533.905 231.908 530.693 245.715C527.567 259.415 526.426 270.148 527.271 277.915C528.275 287.138 533.194 291.269 542.029 290.307C548.825 289.568 559.734 286.907 574.756 282.325C587.587 278.375 599.925 275.755 611.769 274.466C624.099 273.124 633.59 275.038 640.243 280.208C647.445 285.908 651.601 293.854 652.71 304.048C653.555 311.815 652.48 319.987 649.484 328.564C645.75 339.384 639.677 349.475 631.266 358.838C622.854 368.202 613.31 375.724 602.631 381.405C594.555 385.722 586.487 388.319 578.429 389.196ZM741.612 393.981L739.282 394.235C724.817 395.809 711.984 390.722 700.784 378.974C689.595 367.324 681.707 340.431 677.122 298.297C675.136 280.046 674.728 255.09 675.899 223.429C659.395 225.225 650.589 221.027 649.479 210.833C648.793 204.523 651.904 199.714 658.813 196.408C661.901 194.992 668.219 193.469 677.766 191.841C680.388 162.675 687.184 147.495 698.154 146.301C701.552 145.932 704.541 147.669 707.121 151.514C709.099 154.344 710.442 159.011 711.149 165.516C711.572 169.399 712.04 176.863 712.555 187.907C729.878 186.415 738.967 189.601 739.823 197.465C740.985 208.144 732.287 215.77 713.727 220.344C714.754 247.836 717.043 277.891 720.593 310.511C723.192 334.394 726.969 350.142 731.923 357.756C736.878 365.37 742.073 368.882 747.51 368.29C749.937 368.026 752.581 367.05 755.443 365.364C756.912 364.418 758.617 363.84 760.559 363.628C763.083 363.354 765.157 363.914 766.783 365.308C768.419 366.8 769.363 368.711 769.617 371.041C770.272 377.06 766.739 382.504 759.017 387.372C753.509 390.918 747.707 393.121 741.612 393.981ZM867.884 368.304C861.476 369.001 856.823 366.413 853.925 360.54C848.998 350.467 844.474 326.5 840.353 288.637L839.212 278.152C832.447 317.985 817.754 339.132 795.134 341.594C785.619 342.63 777.184 338.685 769.828 329.761C762.471 320.836 756.875 308.675 753.038 293.277C751.606 287.342 750.536 281.123 749.829 274.618C748.698 264.23 748.567 253.095 749.435 241.213C749.934 234.97 751.39 230.293 753.802 227.181C756.214 224.07 758.827 222.361 761.643 222.055C769.215 221.231 774.538 230.426 777.611 249.64C779.844 263.837 782.214 274.778 784.72 282.462C788.791 294.592 794.175 300.293 800.874 299.564C807.67 298.825 813.998 290.179 819.859 273.628C825.057 259.113 828.218 244.378 829.341 229.422C830.639 213.367 832.998 202.551 836.419 196.972C839.092 192.654 843.002 190.214 848.147 189.654C854.652 188.946 860.433 191.068 865.49 196.018C870.645 200.959 873.872 209.399 875.171 221.34C877.42 242.903 879.587 276.361 881.674 321.714C882.445 338.723 881.484 351.107 878.792 358.865C876.859 364.577 873.223 367.723 867.884 368.304ZM956.362 294.578C960.343 294.145 963.611 291.677 966.166 287.175C968.711 282.576 970.702 276.956 972.141 270.317C973.579 263.677 974.603 256.836 975.212 249.795C975.81 242.658 976.133 236.139 976.178 230.24C976.321 224.331 976.282 219.914 976.062 216.991C955.822 230.491 945.586 247.911 945.355 269.253C945.425 271.701 945.576 273.993 945.808 276.129C946.347 281.08 947.513 285.472 949.305 289.305C951.098 293.137 953.45 294.895 956.362 294.578ZM1018.41 362.384C1014.14 362.849 1010.19 360.479 1006.58 355.272C1003.07 350.056 999.361 341.716 995.462 330.255C991.562 318.793 988.909 306.606 987.504 293.694C985.454 303.74 981.467 311.787 975.544 317.835C969.61 323.785 962.857 327.172 955.284 327.996C945.187 329.095 936.85 327.399 930.27 322.909C918.588 314.848 911.753 301.692 909.767 283.441C909.545 281.402 909.306 277.4 909.05 271.436C908.891 265.461 910.149 257.613 912.823 247.891C915.488 238.073 919.584 229.228 925.113 221.357C930.631 213.389 937.574 207.231 945.941 202.882C950.875 200.381 956.255 198.813 962.08 198.179C966.157 197.735 970.433 197.761 974.908 198.256C974.464 194.179 974.048 184.941 973.66 170.543C973.261 156.048 973.708 142.099 975 128.697C976.119 120.029 978.032 113.682 980.737 109.654C983.539 105.617 986.591 103.418 989.892 103.059C993.775 102.636 997.454 104.397 1000.93 108.341C1004.39 112.188 1006.73 117.386 1007.93 123.935C1009.3 132.037 1011.73 149.848 1015.22 177.366C1017.38 194.518 1019.47 212.414 1021.5 231.054C1022.72 242.219 1024.39 258.491 1026.52 279.87C1029.4 308.142 1030.45 328.608 1029.67 341.267C1028.86 354.616 1025.11 361.655 1018.41 362.384ZM1090.48 335.534C1084.36 336.199 1078.72 329.495 1073.55 315.42C1067.59 298.583 1063.39 278.952 1060.95 256.525C1059 238.565 1058.77 222.431 1060.25 208.124C1061.72 194.506 1065.65 187.349 1072.06 186.652C1076.14 186.208 1080.27 188.018 1084.44 192.083C1088.61 196.05 1091.44 200.456 1092.95 205.302C1098.78 227.261 1104.22 261.444 1109.27 307.849C1110.21 316.49 1108.86 323.071 1105.23 327.592C1101.7 332.2 1096.79 334.847 1090.48 335.534ZM1073.35 176.787C1067.52 177.421 1063.12 175.788 1060.14 171.888C1057.94 168.788 1056.61 165.199 1056.17 161.122C1055.63 156.17 1056.46 151.61 1058.66 147.442C1061.28 142.638 1065.26 139.945 1070.6 139.364C1075.94 138.783 1080.64 140.482 1084.71 144.459C1087.68 147.378 1089.4 150.973 1089.86 155.245C1090.38 160.002 1088.97 164.674 1085.64 169.26C1082.4 173.739 1078.3 176.248 1073.35 176.787ZM1197.96 310.574C1178.94 312.645 1163.64 307.531 1152.09 295.232C1140.62 282.826 1133.51 263.954 1130.75 238.615C1128.71 219.878 1130.42 203.533 1135.88 189.579C1141.9 174.484 1151.17 166.255 1163.69 164.892C1165.34 164.712 1167.01 164.727 1168.71 164.936C1173.27 165.323 1175.7 166.876 1175.99 169.595C1176.27 172.119 1175.37 174.279 1173.31 176.075C1167.48 181.228 1163.47 189.523 1161.28 200.96C1159.08 212.3 1158.54 223.164 1159.67 233.552C1161.1 246.658 1164.46 257.294 1169.77 265.459C1175.07 273.527 1181.7 277.128 1189.66 276.261C1199.37 275.205 1205.9 264.327 1209.24 243.629C1211.17 231.533 1211.42 218.932 1209.99 205.826C1209.29 199.321 1207.9 192.449 1205.83 185.208C1203.87 177.956 1200.73 171.716 1196.43 166.486C1192.22 161.246 1187.02 158.965 1180.8 159.641C1179.54 159.778 1178.01 160.141 1176.21 160.73C1173.64 161.501 1171.14 162.019 1168.71 162.283C1166.19 162.557 1164.19 161.841 1162.73 160.134C1161.74 159.161 1161.15 157.752 1160.95 155.908C1160.6 152.704 1162.44 149.753 1166.47 147.055C1170.49 144.358 1175.42 142.692 1181.25 142.058C1206 139.364 1224.93 148.552 1238.03 169.621C1245.76 182.041 1250.52 196.406 1252.3 212.716C1253.18 220.871 1253.16 230.107 1252.22 240.426C1251.36 250.637 1248.71 261.043 1244.27 271.645C1239.82 282.247 1233.72 291.114 1225.95 298.246C1218.26 305.271 1208.93 309.38 1197.96 310.574ZM1354.17 317.593C1345.72 318.512 1338.1 317.082 1331.31 313.303C1328.05 311.397 1325.18 308.959 1322.7 305.988C1320.31 303.006 1318.96 300.01 1318.63 297.001C1318.1 292.146 1320.51 289.429 1325.84 288.848C1328.27 288.584 1331.36 288.936 1335.1 289.904C1339.34 291.013 1343.26 291.373 1346.85 290.982C1350.64 290.57 1355.02 288.865 1360 285.867C1364.97 282.773 1369.3 277.439 1372.99 269.866C1375.8 264.059 1377.11 260.331 1376.93 258.681C1376.83 257.71 1376.14 257.293 1374.88 257.43C1372.45 257.694 1367.18 259.349 1359.07 262.393C1343.4 268.322 1330.48 271.84 1320.28 272.95C1295.53 275.644 1281.73 263.982 1278.9 237.964C1278.05 230.1 1278.47 220.918 1280.18 210.418C1281.98 199.907 1284.89 189.227 1288.92 178.376C1293.04 167.514 1298.16 157.232 1304.28 147.529C1310.49 137.816 1317.75 129.609 1326.06 122.909C1334.46 116.199 1343.81 112.284 1354.1 111.164C1363.91 110.097 1371.82 112.379 1377.83 118.011C1383.95 123.633 1387.51 131.104 1388.52 140.424C1390.36 157.316 1388.75 169.623 1383.7 177.344C1380.91 181.479 1377.52 183.763 1373.54 184.196C1367.62 184.841 1364.21 180.988 1363.3 172.639C1363.04 170.309 1362.88 167.478 1362.81 164.145C1362.74 160.716 1362.58 157.884 1362.33 155.652C1362.05 153.03 1361.51 150.338 1360.72 147.576C1359.22 141.943 1357.54 139.178 1355.69 139.282C1353.84 139.483 1350.87 141.967 1346.77 146.736C1340.75 153.678 1335.42 162.461 1330.78 173.083C1326.13 183.609 1322.55 194.067 1320.05 204.458C1317.64 214.838 1316.75 222.892 1317.37 228.62C1317.95 233.862 1320.51 236.235 1325.07 235.738C1330.12 235.189 1338.45 233.153 1350.05 229.632C1360.52 226.528 1370.56 224.453 1380.17 223.407C1391.04 222.223 1399.58 223.995 1405.8 228.722C1412.01 233.449 1415.57 240.035 1416.49 248.481C1417.18 254.792 1416.28 261.422 1413.79 268.373C1410.63 277.165 1405.57 285.329 1398.63 292.862C1391.69 300.395 1383.8 306.46 1374.97 311.056C1368.09 314.653 1361.16 316.832 1354.17 317.593Z" fill="white"/>
<path d="M416.881 568.658C416.821 576.229 414.683 582.306 410.466 586.891C406.279 591.44 400.334 594.133 392.632 594.971C384.283 595.88 377.259 593.615 371.559 588.178C365.891 582.737 362.512 575 361.42 564.968L360.681 558.172C359.966 551.603 360.503 545.7 362.29 540.463C364.11 535.222 367.028 531.041 371.043 527.919C375.055 524.765 379.893 522.879 385.556 522.263C393.064 521.446 399.312 522.895 404.3 526.609C409.285 530.29 412.552 535.796 414.103 543.126L404.735 544.145C403.313 538.602 401.105 534.717 398.112 532.488C395.152 530.256 391.244 529.404 386.39 529.933C380.436 530.581 375.999 533.29 373.08 538.061C370.193 542.828 369.192 549.273 370.076 557.396L370.821 564.24C371.655 571.91 373.921 577.835 377.617 582.017C381.314 586.199 386.043 587.977 391.803 587.35C396.981 586.787 400.818 585.19 403.315 582.561C405.841 579.896 407.241 575.601 407.513 569.678L416.881 568.658ZM495.284 549.371C496.038 556.296 495.531 562.474 493.765 567.906C491.995 573.305 489.122 577.596 485.146 580.779C481.17 583.962 476.334 585.863 470.639 586.483C465.072 587.089 459.99 586.267 455.39 584.017C450.786 581.734 447.013 578.199 444.069 573.411C441.153 568.588 439.301 562.846 438.511 556.187L437.956 551.09C437.217 544.294 437.745 538.163 439.54 532.696C441.336 527.228 444.236 522.885 448.24 519.666C452.274 516.411 457.074 514.481 462.64 513.875C468.303 513.259 473.436 514.092 478.04 516.375C482.672 518.621 486.436 522.223 489.333 527.179C492.227 532.104 494.048 538.012 494.798 544.905L495.284 549.371ZM485.516 545.817C484.604 537.435 482.223 531.195 478.371 527.095C474.516 522.963 469.563 521.226 463.511 521.885C457.622 522.526 453.223 525.28 450.314 530.148C447.434 534.98 446.379 541.382 447.148 549.353L447.714 554.547C448.597 562.67 450.992 568.876 454.897 573.166C458.831 577.421 463.791 579.222 469.778 578.571C475.797 577.916 480.219 575.224 483.045 570.497C485.867 565.736 486.881 559.257 486.087 551.059L485.516 545.817ZM529.636 507.568L559.016 562.721L575.847 502.539L587.934 501.224L595.625 571.901L586.305 572.915L583.31 545.392L580.951 515.589L563.976 575.345L556.84 576.121L527.474 521.556L531.613 551.017L534.608 578.54L525.288 579.554L517.597 508.878L529.636 507.568ZM634.507 567.67L625.187 568.684L617.496 498.008L626.816 496.994L634.507 567.67ZM718.338 558.548L708.969 559.568L667.462 508.976L673.388 563.439L664.02 564.459L656.329 493.782L665.698 492.763L707.329 543.587L701.376 488.881L710.647 487.872L718.338 558.548ZM798.491 540.446C796.469 544.136 793.4 547.074 789.282 549.257C785.194 551.405 780.302 552.788 774.606 553.408C768.846 554.035 763.587 553.248 758.829 551.048C754.067 548.816 750.185 545.342 747.184 540.626C744.214 535.906 742.34 530.265 741.56 523.703L740.889 517.538C739.731 506.891 741.309 498.37 745.623 491.974C749.969 485.574 756.64 481.885 765.637 480.906C773.015 480.103 779.159 481.35 784.069 484.647C788.976 487.911 792.308 492.952 794.064 499.768L784.744 500.782C781.979 491.62 775.904 487.549 766.52 488.57C760.274 489.25 755.772 491.966 753.015 496.719C750.287 501.437 749.359 507.956 750.232 516.276L750.86 522.052C751.723 529.981 754.222 536.094 758.357 540.392C762.488 544.658 767.644 546.454 773.825 545.782C777.32 545.401 780.336 544.68 782.873 543.618C785.41 542.557 787.435 541.01 788.95 538.979L787.223 523.106L770.864 524.886L770.04 517.313L795.67 514.524L798.491 540.446ZM881.99 508.865C873.747 507.437 867.616 505.255 863.596 502.32C859.605 499.349 857.343 495.404 856.807 490.485C856.202 484.919 857.918 480.082 861.957 475.975C866.025 471.833 871.619 469.374 878.738 468.599C883.593 468.071 888.015 468.539 892.005 470.004C896.028 471.466 899.255 473.734 901.685 476.81C904.148 479.882 905.592 483.375 906.018 487.291L896.65 488.311C896.185 484.039 894.461 480.837 891.479 478.706C888.493 476.542 884.524 475.73 879.573 476.269C874.978 476.769 871.497 478.179 869.13 480.499C866.791 482.784 865.818 485.722 866.209 489.314C866.522 492.195 868.001 494.506 870.647 496.248C873.321 497.954 877.677 499.314 883.713 500.327C889.783 501.337 894.577 502.665 898.096 504.312C901.644 505.924 904.355 507.97 906.23 510.451C908.137 512.929 909.285 515.963 909.676 519.555C910.3 525.283 908.567 530.122 904.478 534.07C900.385 537.986 894.601 540.351 887.126 541.165C882.271 541.693 877.641 541.263 873.233 539.877C868.822 538.457 865.291 536.255 862.641 533.269C860.024 530.279 858.492 526.729 858.045 522.62L867.413 521.6C867.878 525.872 869.815 529.083 873.226 531.233C876.665 533.347 881.021 534.118 886.296 533.544C891.215 533.008 894.876 531.595 897.279 529.303C899.682 527.012 900.695 524.135 900.318 520.672C899.942 517.209 898.437 514.672 895.806 513.059C893.171 511.414 888.566 510.015 881.99 508.865ZM986.817 495.887C987.57 502.812 987.064 508.99 985.297 514.421C983.527 519.82 980.654 524.111 976.678 527.294C972.702 530.478 967.866 532.379 962.171 532.999C956.605 533.604 951.522 532.782 946.922 530.532C942.319 528.25 938.545 524.715 935.601 519.927C932.686 515.103 930.833 509.362 930.043 502.703L929.488 497.606C928.749 490.81 929.277 484.678 931.072 479.211C932.868 473.744 935.768 469.401 939.773 466.182C943.806 462.927 948.606 460.997 954.172 460.391C959.835 459.775 964.969 460.608 969.572 462.89C974.204 465.137 977.969 468.738 980.866 473.695C983.759 478.619 985.581 484.528 986.331 491.421L986.817 495.887ZM977.049 492.332C976.137 483.951 973.755 477.71 969.903 473.611C966.048 469.479 961.095 467.742 955.044 468.4C949.154 469.041 944.755 471.796 941.846 476.664C938.967 481.496 937.912 487.897 938.681 495.869L939.246 501.063C940.13 509.185 942.524 515.392 946.429 519.682C950.363 523.936 955.323 525.738 961.31 525.087C967.329 524.432 971.751 521.74 974.577 517.012C977.399 512.252 978.413 505.773 977.619 497.575L977.049 492.332ZM1067.59 487.097C1068.34 494.023 1067.84 500.201 1066.07 505.632C1064.3 511.031 1061.43 515.322 1057.45 518.505C1053.48 521.689 1048.64 523.59 1042.94 524.21C1037.38 524.815 1032.3 523.993 1027.7 521.743C1023.09 519.461 1019.32 515.926 1016.37 511.138C1013.46 506.314 1011.61 500.573 1010.82 493.914L1010.26 488.817C1009.52 482.021 1010.05 475.889 1011.85 470.422C1013.64 464.955 1016.54 460.612 1020.55 457.393C1024.58 454.138 1029.38 452.208 1034.95 451.602C1040.61 450.986 1045.74 451.819 1050.35 454.101C1054.98 456.348 1058.74 459.949 1061.64 464.906C1064.53 469.83 1066.35 475.739 1067.1 482.632L1067.59 487.097ZM1057.82 483.543C1056.91 475.162 1054.53 468.921 1050.68 464.822C1046.82 460.69 1041.87 458.953 1035.82 459.611C1029.93 460.252 1025.53 463.007 1022.62 467.875C1019.74 472.707 1018.68 479.108 1019.45 487.08L1020.02 492.274C1020.9 500.396 1023.3 506.603 1027.2 510.893C1031.14 515.147 1036.1 516.949 1042.08 516.297C1048.1 515.643 1052.52 512.951 1055.35 508.223C1058.17 503.463 1059.19 496.984 1058.39 488.786L1057.82 483.543ZM1151.91 511.371L1142.54 512.39L1101.04 461.798L1106.96 516.262L1097.59 517.281L1089.9 446.604L1099.27 445.585L1140.9 496.409L1134.95 441.703L1144.22 440.694L1151.91 511.371Z" fill="white"/>
</svg>
