<svg width="136" height="40" viewBox="0 0 136 40" fill="none" xmlns="http://www.w3.org/2000/svg">
<path d="M113.75 9.23008C112.95 9.52008 112.02 10.5601 111.95 11.3601C111.89 12.0201 113 12.7801 113.59 13.4901C114.35 12.8101 115.11 12.1401 116.34 11.0401C115.14 10.1501 114.22 9.06008 113.75 9.23008Z" fill="#2e2e2e"/>
<path d="M27.56 10.46C27.23 9.55003 26.05 8.49003 25.14 8.41003C24.39 8.34003 23.53 9.60003 22.72 10.27C23.49 11.14 24.26 12 25.51 13.4C26.51 12.04 27.75 10.99 27.56 10.46Z" fill="#2e2e2e"/>
<path d="M16.37 19.51C14.8 19.51 13.15 19.68 11.42 20.01C9.39001 20.4 7.92 20.59 7.03 20.59C5.86 20.59 5.28 19.98 5.28 18.76C5.28 17.73 5.58001 16.34 6.20001 14.59C6.81001 12.84 7.60002 11.09 8.58002 9.36C9.56002 7.63 10.62 6.21001 11.78 5.10001C12.67 4.25001 13.35 3.83 13.84 3.83C14.19 3.83 14.47 4.02001 14.69 4.40001C14.91 4.78001 15.06 5.23001 15.13 5.74001C15.21 6.25001 15.25 6.75 15.25 7.22C15.25 7.61 15.23 8.09001 15.18 8.67001C15.13 9.25001 15.11 9.73001 15.11 10.12C15.11 11.23 15.4 11.78 15.98 11.78C16.43 11.78 16.86 11.53 17.27 11.03C18.18 9.90001 18.64 7.93 18.64 5.11C18.64 3.61 18.24 2.38001 17.44 1.43001C16.64 0.480008 15.52 0 14.1 0C12.52 0 11.02 0.470009 9.60001 1.40001C8.18001 2.33001 6.89 3.54001 5.72 5.03001C4.55 6.52001 3.54002 8.14001 2.68002 9.89001C1.83002 11.64 1.16001 13.37 0.700012 15.08C0.230012 16.8 0 18.31 0 19.64C0 23.78 1.87002 25.85 5.61002 25.85C7.25002 25.85 9.39 25.5 12.03 24.81C13.48 24.42 14.45 24.23 14.92 24.23C15.54 24.23 15.85 24.44 15.85 24.87C15.85 25.3 15.54 26.01 14.92 27.01C14.12 28.31 13.23 29.19 12.25 29.67C11.27 30.15 10.41 30.38 9.68002 30.38C8.99002 30.38 8.25001 30.23 7.48001 29.94C6.97001 29.73 6.55001 29.63 6.23001 29.63C5.75001 29.63 5.52002 29.89 5.52002 30.4C5.52002 30.85 5.67001 31.32 5.98001 31.81C6.29001 32.3 6.65002 32.7 7.08002 33.01C8.04002 33.72 9.15 34.07 10.41 34.07C11.48 34.07 12.57 33.84 13.69 33.4C15.17 32.81 16.52 31.96 17.76 30.86C18.99 29.76 19.93 28.52 20.57 27.16C21.08 26.08 21.34 25.03 21.34 24C21.34 22.65 20.91 21.55 20.05 20.7C19.22 19.9 18 19.51 16.37 19.51Z" fill="#2e2e2e"/>
<path d="M27.22 15.4601C26.73 14.8801 26.22 14.5801 25.68 14.5801C24.83 14.5801 24.22 15.4601 23.83 17.2201C23.43 19.0701 23.23 21.1801 23.23 23.5601C23.23 26.5301 23.5 29.1601 24.04 31.4401C24.52 33.3501 25.16 34.3101 25.97 34.3101C26.81 34.3101 27.49 34.0401 28.02 33.4901C28.55 32.9401 28.82 32.1001 28.82 30.9601C28.82 24.8201 28.6 20.2701 28.15 17.3101C28.02 16.6601 27.71 16.0401 27.22 15.4601Z" fill="#2e2e2e"/>
<path d="M41.74 12.98C39.56 12.98 37.87 14.33 36.69 17.03C36.66 14.96 36.59 13.53 36.47 12.72C36.35 11.92 36.12 11.3 35.79 10.88C35.35 10.3 34.86 10.01 34.31 10.01C32.47 10.01 31.53 14.1 31.5 22.29C31.5 26.58 32.14 29.65 33.43 31.5C34.02 32.36 34.77 32.79 35.68 32.79C36.19 32.79 36.53 32.57 36.7 32.12C36.8 31.85 36.88 31.55 36.92 31.23C36.96 30.91 37.03 30.61 37.1 30.32C37.24 29.86 37.36 28.43 37.47 26.03C37.57 23.63 37.77 21.95 38.07 20.97C38.99 17.92 39.91 16.4 40.83 16.4C41.56 16.4 42.13 17.56 42.53 19.89C42.79 21.41 42.99 24.28 43.15 28.52C43.19 29.7 43.32 30.51 43.54 30.96C43.76 31.4 44.12 31.62 44.62 31.62C45.3 31.62 45.9 30.73 46.41 28.96C46.78 27.69 46.97 25.14 46.97 21.31C46.97 18.86 46.52 16.82 45.62 15.2C44.75 13.73 43.47 12.98 41.74 12.98Z" fill="#2e2e2e"/>
<path d="M65 28.59C65.39 26.08 65.58 23.62 65.58 21.21C65.58 16.97 65.12 13.67 64.19 11.3C63.79 10.27 63.22 9.76001 62.47 9.76001C62.03 9.76001 61.69 9.91001 61.43 10.2C61.17 10.5 60.92 10.91 60.68 11.45C59.91 11.05 59.14 10.85 58.37 10.85C57.24 10.85 56.12 11.22 55.02 11.95C54.03 12.59 53.13 13.43 52.31 14.46C51.49 15.49 50.82 16.61 50.28 17.81C49.43 19.69 49.01 21.44 49.01 23.07C49.01 24.89 49.56 26.26 50.65 27.18C51.4 27.8 52.45 28.1 53.81 28.1C55.11 28.1 56.39 27.31 57.66 25.73C58.69 24.46 59.52 22.95 60.17 21.22C60.17 23.58 60.09 25.72 59.94 27.64C58.08 27.74 56.43 28.24 54.99 29.12C52.79 30.47 51.69 32.44 51.69 35.04C51.69 35.9 51.91 36.7 52.35 37.43C52.79 38.16 53.39 38.75 54.17 39.18C54.95 39.62 55.84 39.84 56.86 39.84C60.5 39.84 63.03 37.04 64.45 31.44L65.09 31.84C65.37 32.03 65.64 32.13 65.88 32.13C66.23 32.13 66.5 32 66.71 31.73C66.92 31.47 67.02 31.19 67.02 30.89C67.02 30.62 66.92 30.33 66.71 30.02C66.28 29.45 65.72 28.96 65 28.59ZM59.03 16.45C58.64 17.54 58.17 18.7 57.63 19.92C57.09 21.14 56.53 22.2 55.95 23.09C55.37 23.98 54.85 24.43 54.39 24.43C54.09 24.43 53.95 24.17 53.95 23.66C53.95 22.68 54.32 21.33 55.07 19.59C55.64 18.29 56.33 17.12 57.14 16.06C57.96 15.01 58.83 14.35 59.75 14.09C59.67 14.57 59.42 15.36 59.03 16.45ZM56.75 36.67C56.49 36.67 56.24 36.52 55.99 36.21C55.74 35.9 55.61 35.43 55.61 34.78C55.61 33.51 55.92 32.52 56.55 31.81C57.18 31.1 57.85 30.67 58.55 30.52C58.94 30.44 59.29 30.39 59.61 30.35C59.03 34.56 58.07 36.67 56.75 36.67Z" fill="#2e2e2e"/>
<path d="M73.6299 1.46997C72.7699 1.46997 71.9699 2.21997 71.2399 3.71997C69.5199 7.28997 68.6599 12.43 68.6599 19.12C68.6599 24.54 69.2899 28.76 70.5499 31.78C70.9699 32.81 71.4299 33.55 71.9199 34.02C72.4099 34.48 72.8599 34.71 73.2699 34.71C73.7599 34.71 74.1099 34.42 74.3299 33.84C74.5699 33.2 74.6999 32.45 74.6999 31.58C74.6999 31.1 74.6699 30.46 74.6199 29.63C74.3199 24.91 74.1799 20.89 74.1799 17.57C74.1799 14.82 74.3099 11.86 74.5699 8.68997C74.6699 7.32997 74.7699 6.27998 74.8599 5.55998C74.9499 4.82998 74.9899 4.24998 74.9899 3.81998C74.9899 3.24998 74.9099 2.76998 74.7399 2.36998C74.4699 1.77998 74.1099 1.46997 73.6299 1.46997Z" fill="#2e2e2e"/>
<path d="M86.78 26.55C86.37 26.55 85.72 26.69 84.83 26.96C83.94 27.24 83.28 27.37 82.84 27.37C82.24 27.37 81.93 27.09 81.93 26.52C81.93 26.13 82.05 25.6 82.3 24.92C82.71 23.93 83.25 22.99 83.92 22.11C84.59 21.22 85.08 20.66 85.38 20.43C86.07 19.88 86.42 19.18 86.42 18.33C86.42 18.18 86.41 18.03 86.38 17.91C86.23 17.07 85.75 16.66 84.95 16.66C84.72 16.66 84.47 16.7 84.2 16.79C83.13 17.21 82.38 17.43 81.93 17.43C81.51 17.43 81.29 17.26 81.29 16.93C81.29 16.78 81.35 16.58 81.48 16.33C81.78 15.8 82.23 15.24 82.85 14.65C83.47 14.06 84.07 13.59 84.66 13.24C85.25 12.89 85.57 12.58 85.61 12.31C85.66 12.04 85.68 11.87 85.68 11.81C85.68 11.42 85.51 11.1 85.16 10.83C84.89 10.61 84.52 10.5 84.06 10.5C83.33 10.5 82.45 10.78 81.44 11.33C79.9 12.15 78.72 13.26 77.89 14.66C77.48 15.35 77.27 16.07 77.27 16.82C77.27 17.66 77.46 18.33 77.83 18.83C78.2 19.34 78.66 19.71 79.2 19.95C79.74 20.19 80.27 20.31 80.8 20.31C80.29 20.7 79.76 21.22 79.21 21.87C78.66 22.52 78.2 23.28 77.81 24.14C77.42 25 77.23 25.93 77.23 26.92C77.23 27.91 77.39 28.81 77.72 29.62C78.05 30.43 78.6 31.07 79.37 31.55C80.14 32.03 81.19 32.26 82.53 32.26C83.42 32.26 84.26 32.03 85.06 31.56C85.86 31.09 86.56 30.45 87.15 29.62C87.66 28.91 87.92 28.25 87.92 27.63C87.95 26.91 87.56 26.55 86.78 26.55Z" fill="#2e2e2e"/>
<path d="M106.49 16.97C106.01 16.97 105.36 17.05 104.52 17.22C104.7 13.46 104.79 10.54 104.79 8.46999C105.99 8.23999 107.35 8.09999 108.88 8.06999C110.41 8.02999 111.71 7.87999 112.77 7.60999C113.98 7.29999 114.58 6.73999 114.58 5.92999C114.58 5.60999 114.45 5.28999 114.19 4.96999C113.89 4.59999 113.4 4.30999 112.71 4.09999C111.59 3.77999 110.44 3.59 109.25 3.53C108.06 3.47 107.09 3.43999 106.33 3.43999L104.92 3.45999C104.92 2.92999 104.69 2.46999 104.22 2.07999C103.75 1.68999 103.21 1.48999 102.61 1.48999C102.08 1.48999 101.57 1.71999 101.07 2.15999C100.57 2.60999 100.19 3.35999 99.93 4.40999C99.45 4.49999 99.05 4.6 98.71 4.7C98.37 4.8 98.03 4.94 97.68 5.12C96.73 5.58 96.25 6.22 96.25 7.03C96.25 7.53 96.44 7.98999 96.83 8.39999C97.31 8.89999 97.99 9.14999 98.87 9.14999C98.41 12.09 98.18 15.11 98.18 18.21C98.18 20.55 98.39 23.3 98.8 26.46C99.1 28.7 99.66 30.76 100.5 32.65C101.53 34.99 102.81 36.16 104.34 36.16C104.83 36.16 105.18 36 105.4 35.69C105.62 35.37 105.73 34.84 105.73 34.1C105.73 33.52 105.62 32.74 105.4 31.75C105.18 30.76 104.98 29.08 104.78 26.72C104.61 24.79 104.53 23.29 104.53 22.21L105.57 22C108.47 21.42 109.93 20.46 109.93 19.11C109.93 18.62 109.73 18.19 109.33 17.82C108.72 17.25 107.78 16.97 106.49 16.97Z" fill="#2e2e2e"/>
<path d="M115.34 15.4601C114.85 14.8801 114.34 14.5801 113.8 14.5801C112.95 14.5801 112.34 15.4601 111.95 17.2201C111.55 19.0701 111.35 21.1801 111.35 23.5601C111.35 26.5301 111.62 29.1601 112.16 31.4401C112.64 33.3501 113.28 34.3101 114.09 34.3101C114.93 34.3101 115.61 34.0401 116.14 33.4901C116.67 32.9401 116.94 32.1001 116.94 30.9601C116.94 24.8201 116.72 20.2701 116.27 17.3101C116.14 16.6601 115.83 16.0401 115.34 15.4601Z" fill="#2e2e2e"/>
<path d="M133.71 15.22C132.87 13.73 131.59 12.98 129.86 12.98C127.68 12.98 125.99 14.33 124.81 17.03C124.78 14.96 124.71 13.53 124.59 12.72C124.47 11.92 124.24 11.3 123.91 10.88C123.47 10.3 122.98 10.01 122.43 10.01C120.59 10.01 119.66 14.1 119.62 22.29C119.62 26.58 120.26 29.65 121.55 31.5C122.14 32.36 122.89 32.79 123.8 32.79C124.31 32.79 124.65 32.57 124.82 32.12C124.92 31.85 125 31.55 125.04 31.23C125.08 30.91 125.15 30.61 125.22 30.32C125.36 29.86 125.48 28.43 125.59 26.03C125.69 23.63 125.89 21.95 126.19 20.97C127.12 17.92 128.03 16.4 128.95 16.4C129.68 16.4 130.25 17.56 130.65 19.89C130.91 21.41 131.11 24.28 131.27 28.52C131.31 29.7 131.44 30.51 131.66 30.96C131.88 31.4 132.24 31.62 132.74 31.62C133.42 31.62 134.02 30.73 134.53 28.96C134.9 27.69 135.09 25.14 135.09 21.31C135.05 18.87 134.6 16.83 133.71 15.22Z" fill="#2e2e2e"/>
</svg>
